#N canvas 0 71 1280 953 10;
#X obj 215 478 readsf~ 2 44100;
#X obj 353 130 inlet;
#X obj 214 661 outlet~;
#X obj 267 692 outlet~;
#X obj 353 154 select 0;
#X text 205 102 velocite in from partition;
#X obj 341 627 dac~;
#X msg 436 108 1;
#X obj 436 185 f;
#X obj 413 32 tgl 15 0 empty empty empty 17 7 0 10 -262144 -1 -1 0
1;
#X text 473 185 a remplacer par la sortie de droite de select 0;
#X obj 471 149 spigot;
#X obj 510 110 tgl 15 0 empty empty empty 17 7 0 10 -262144 -1 -1 1
1;
#X obj 529 393 line;
#X floatatom 520 457 5 0 0 0 - - -, f 5;
#X msg 215 413 0;
#X msg 260 413 1;
#X obj 216 570 *~ 1;
#X obj 265 570 *~ 1;
#X obj 38 485 print;
#X obj 215 202 bng 15 250 50 0 empty empty empty 17 7 0 10 -262144
-1 -1;
#X obj 245 358 delay 1;
#X floatatom 391 556 5 0 0 0 - - -, f 5;
#X obj 266 611 *~ 0.1;
#X obj 215 611 *~ 0.1;
#X msg 471 108 0.5;
#X obj 442 81 delay 125;
#X msg 23 384 open samples/sample_1.wav;
#X text 78 800 essai de faire un fade out sur le son avnt qu'il ne
soit coupé;
#X msg 529 370 0 100;
#X obj 338 479 line;
#X floatatom 338 504 5 0 0 0 - - -, f 5;
#X msg 338 453 0 100;
#X floatatom 520 56 5 0 0 0 - - -, f 5;
#X obj 324 430 route 0;
#X obj 900 493 readsf~ 2 44100;
#X obj 899 676 outlet~;
#X obj 952 707 outlet~;
#X obj 1026 642 dac~;
#X msg 900 445 1;
#X obj 901 585 *~ 1;
#X obj 950 585 *~ 1;
#X obj 951 626 *~ 0.1;
#X obj 900 626 *~ 0.1;
#X obj 73 300 delay 10;
#X obj 748 568 line;
#X obj 748 377 bng 15 250 50 0 empty empty empty 17 7 0 10 -262144
-1 -1;
#X obj 413 56 metro 500;
#X msg 798 476 open samples/hihat.wav;
#X msg 748 545 0 10;
#X msg 798 545 1 10;
#X obj 798 423 delay 10;
#X obj 900 392 delay 11;
#X connect 0 0 17 0;
#X connect 0 1 18 0;
#X connect 0 2 15 0;
#X connect 1 0 4 0;
#X connect 7 0 8 0;
#X connect 8 0 46 0;
#X connect 9 0 47 0;
#X connect 11 0 8 0;
#X connect 12 0 11 1;
#X connect 13 0 14 0;
#X connect 14 0 22 0;
#X connect 15 0 0 0;
#X connect 15 0 34 0;
#X connect 15 0 44 0;
#X connect 16 0 0 0;
#X connect 16 0 34 0;
#X connect 17 0 24 0;
#X connect 18 0 23 0;
#X connect 20 0 15 0;
#X connect 20 0 21 0;
#X connect 21 0 16 0;
#X connect 22 0 18 1;
#X connect 22 0 17 1;
#X connect 23 0 3 0;
#X connect 23 0 6 1;
#X connect 24 0 2 0;
#X connect 24 0 6 0;
#X connect 25 0 11 0;
#X connect 26 0 25 0;
#X connect 27 0 0 0;
#X connect 27 0 19 0;
#X connect 29 0 13 0;
#X connect 30 0 31 0;
#X connect 32 0 30 0;
#X connect 33 0 26 1;
#X connect 35 0 40 0;
#X connect 35 1 41 0;
#X connect 39 0 35 0;
#X connect 40 0 43 0;
#X connect 41 0 42 0;
#X connect 42 0 37 0;
#X connect 42 0 38 1;
#X connect 43 0 36 0;
#X connect 43 0 38 0;
#X connect 44 0 27 0;
#X connect 45 0 40 0;
#X connect 45 0 41 0;
#X connect 46 0 49 0;
#X connect 46 0 51 0;
#X connect 46 0 52 0;
#X connect 47 0 7 0;
#X connect 47 0 26 0;
#X connect 48 0 35 0;
#X connect 49 0 45 0;
#X connect 50 0 45 0;
#X connect 51 0 48 0;
#X connect 51 0 50 0;
#X connect 52 0 39 0;
