#N canvas 181 170 951 797 10;
#X obj 215 478 readsf~ 2 44100;
#X obj 234 160 inlet;
#X msg 301 268 0;
#X obj 214 661 outlet~;
#X obj 267 692 outlet~;
#X floatatom 442 423 5 0 0 0 - - -, f 5;
#X obj 234 184 select 0;
#X obj 65 332 list;
#X obj 65 353 route list;
#X obj 65 312 bng 15 250 50 0 empty empty empty 17 7 0 10 -262144 -1
-1;
#X text 86 132 velocite in from partition;
#X text 63 263 open sample;
#X obj 301 244 bng 15 250 50 0 empty empty empty 17 7 0 10 -262144
-1 -1;
#X obj 215 611 *~ 0.5;
#X obj 266 611 *~ 0.5;
#X obj 390 552 line~;
#X obj 390 509 dbtorms;
#X msg 390 488 0;
#X obj 216 570 *~;
#X obj 265 570 *~;
#X obj 442 445 * 100;
#X obj 424 489 f;
#X obj 341 627 dac~;
#X msg 390 108 1;
#X msg 425 108 0.25;
#X obj 390 185 f;
#X obj 367 32 tgl 15 0 empty empty empty 17 7 0 10 -262144 -1 -1 1
1;
#X text 427 185 a remplacer par la sortie de droite de select 0;
#X obj 65 285 receive link;
#X obj 755 102 send link;
#X obj 301 309 tgl 15 0 empty empty empty 17 7 0 10 -262144 -1 -1 1
1;
#X obj 186 259 delay 1;
#X obj 301 219 delay 5;
#X obj 186 282 bng 15 250 50 0 empty empty empty 17 7 0 10 -262144
-1 -1;
#X obj 186 349 delay 5;
#X obj 186 374 bng 15 250 50 0 empty empty empty 17 7 0 10 -262144
-1 -1;
#X msg 186 398 1;
#X msg 755 76 open samples/kick.wav;
#X obj 367 56 metro 500;
#X obj 425 149 spigot;
#X obj 464 110 tgl 15 0 empty empty empty 17 7 0 10 -262144 -1 -1 0
1;
#X obj 396 81 delay 125;
#X floatatom 473 484 5 0 0 0 - - -, f 5;
#X obj 641 393 line;
#X msg 627 330 0 1000;
#X msg 693 357 1 1000;
#X floatatom 632 457 5 0 0 0 - - -, f 5;
#X msg 390 530 \$1 10;
#X obj 498 564 print;
#X connect 0 0 18 0;
#X connect 0 1 19 0;
#X connect 0 2 9 0;
#X connect 1 0 6 0;
#X connect 2 0 30 0;
#X connect 5 0 20 0;
#X connect 7 0 8 0;
#X connect 8 0 0 0;
#X connect 9 0 7 0;
#X connect 12 0 2 0;
#X connect 12 0 31 0;
#X connect 13 0 3 0;
#X connect 13 0 22 0;
#X connect 14 0 4 0;
#X connect 14 0 22 1;
#X connect 15 0 19 1;
#X connect 15 0 18 1;
#X connect 16 0 47 0;
#X connect 16 0 48 0;
#X connect 17 0 16 0;
#X connect 18 0 13 0;
#X connect 19 0 14 0;
#X connect 20 0 21 1;
#X connect 20 0 42 0;
#X connect 21 0 16 0;
#X connect 23 0 25 0;
#X connect 24 0 39 0;
#X connect 25 0 17 0;
#X connect 25 0 32 0;
#X connect 25 0 5 0;
#X connect 26 0 38 0;
#X connect 28 0 7 1;
#X connect 28 0 9 0;
#X connect 30 0 0 0;
#X connect 31 0 9 0;
#X connect 31 0 33 0;
#X connect 32 0 12 0;
#X connect 33 0 21 0;
#X connect 33 0 34 0;
#X connect 34 0 35 0;
#X connect 35 0 36 0;
#X connect 36 0 30 0;
#X connect 37 0 29 0;
#X connect 38 0 23 0;
#X connect 38 0 41 0;
#X connect 39 0 25 0;
#X connect 40 0 39 1;
#X connect 41 0 24 0;
#X connect 43 0 46 0;
#X connect 44 0 43 0;
#X connect 45 0 43 0;
#X connect 47 0 15 0;
