#N canvas 2 73 450 300 10;
#X obj 129 114 audioplayer;
#X obj 130 209 dac~;
#X obj 129 167 *~ 1;
#X floatatom 226 153 5 0 0 0 - - -, f 5;
#X msg 203 83 open samples/sinoto-15_23_35.wav;
#X obj 129 57 inlet;
#X obj 203 34 loadbang;
#X msg 237 120 2.5;
#X connect 0 0 2 0;
#X connect 0 1 2 0;
#X connect 2 0 1 1;
#X connect 2 0 1 0;
#X connect 3 0 2 1;
#X connect 4 0 0 1;
#X connect 5 0 0 0;
#X connect 6 0 4 0;
#X connect 6 0 7 0;
#X connect 7 0 3 0;
