#N canvas 128 177 973 587 10;
#X obj 162 146 send to_osc;
#X obj 78 284 oscparse;
#X obj 78 251 netreceive -u -b;
#X msg 78 225 listen 12000;
#X obj 78 190 loadbang;
#X obj 156 191 bng 15 250 50 0 empty empty empty 17 7 0 10 -262144
-1 -1;
#X obj 78 395 send fileN;
#X obj 78 332 route list;
#X msg 162 119 set askFiles;
#X obj 402 147 send to_osc;
#X msg 402 120 set askFolders;
#X obj 402 55 loadbang;
#X obj 402 90 bng 15 250 50 0 empty empty empty 17 7 0 10 -262144 -1
-1;
#X obj 171 399 send folderL;
#X obj 162 76 receive idFolder;
#X obj 311 98 print;
#X msg 311 72 BTM start;
#X obj 265 402 send folderSaveL;
#X obj 358 424 send dateForRec;
#X obj 452 403 send recOff;
#X obj 545 403 send myload;
#X obj 781 383 print ask_python;
#X obj 34 421 print fileN;
#X obj 524 178 send to_osc;
#X obj 524 105 delay 1;
#X msg 524 151 set initFiles;
#X obj 78 366 route fileName folderLength folderSaveLength currentDate
recOff myload dspOn, f 94;
#X msg 639 432 \; pd dsp 1 \;;
#X obj 748 441 print DSP;
#X connect 1 0 7 0;
#X connect 2 0 1 0;
#X connect 3 0 2 0;
#X connect 4 0 3 0;
#X connect 5 0 3 0;
#X connect 7 0 26 0;
#X connect 8 0 0 0;
#X connect 10 0 9 0;
#X connect 11 0 16 0;
#X connect 11 0 12 0;
#X connect 12 0 10 0;
#X connect 12 0 9 0;
#X connect 12 0 24 0;
#X connect 14 0 8 0;
#X connect 14 0 0 0;
#X connect 16 0 15 0;
#X connect 24 0 25 0;
#X connect 24 0 23 0;
#X connect 25 0 23 0;
#X connect 26 0 6 0;
#X connect 26 1 13 0;
#X connect 26 2 17 0;
#X connect 26 3 18 0;
#X connect 26 4 19 0;
#X connect 26 5 20 0;
#X connect 26 6 27 0;
#X connect 26 6 28 0;
#X connect 26 7 21 0;
