#N canvas 599 316 394 462 10;
#X obj 162 146 send to_osc;
#X msg 162 119 set ask;
#X obj 162 47 loadbang;
#X obj 78 284 oscparse;
#X obj 78 251 netreceive -u -b;
#X msg 78 225 listen 12000;
#X obj 78 190 loadbang;
#X obj 156 191 bng 15 250 50 0 empty empty empty 17 7 0 10 -262144
-1 -1;
#X obj 78 366 route fileName;
#X obj 78 399 send fileN;
#X obj 78 332 route list;
#X msg 162 81 symbol kit_ToJu;
#X obj 236 48 bng 15 250 50 0 empty empty empty 17 7 0 10 -262144 -1
-1;
#X connect 1 0 0 0;
#X connect 2 0 11 0;
#X connect 3 0 10 0;
#X connect 4 0 3 0;
#X connect 5 0 4 0;
#X connect 6 0 5 0;
#X connect 7 0 5 0;
#X connect 8 0 9 0;
#X connect 10 0 8 0;
#X connect 11 0 1 0;
#X connect 11 0 0 0;
#X connect 12 0 11 0;
