#N canvas 45 123 688 498 10;
#X obj 235 136 send to_osc;
#X msg 235 108 set ask;
#X obj 84 344 netreceive 3000;
#X floatatom 201 432 0 0 0 0 - - -;
#X obj 84 432 print tcp;
#X msg 84 268 listen 0;
#X text 194 244 listen message to set or change port;
#X text 190 269 (0 or negative number to close);
#X msg 84 242 listen 3000;
#X msg 105 317 send foo \$1;
#X floatatom 105 294 0 0 0 0 - - -;
#X text 142 294 "send" (for TCP connections only) sends back to connected
netreceive objects, f 76;
#X obj 151 90 loadbang;
#X connect 1 0 0 0;
#X connect 2 0 4 0;
#X connect 2 1 3 0;
#X connect 5 0 2 0;
#X connect 8 0 2 0;
#X connect 9 0 2 0;
#X connect 10 0 9 0;
#X connect 12 0 1 0;
#X connect 12 0 0 0;
