#N canvas 135 529 1014 312 10;
#X obj 51 86 inlet;
#X text 109 44 vel from partition;
#X obj 50 247 outlet~;
#X obj 108 247 outlet~;
#X obj 109 86 inlet;
#X obj 165 86 inlet;
#X obj 223 86 inlet;
#X obj 166 247 outlet~;
#X obj 224 247 outlet~;
#X obj 283 87 inlet;
#X obj 282 247 outlet~;
#X obj 340 247 outlet~;
#X obj 341 86 inlet;
#X obj 397 86 inlet;
#X obj 455 86 inlet;
#X obj 398 247 outlet~;
#X obj 456 247 outlet~;
#X obj 515 86 inlet;
#X obj 514 247 outlet~;
#X obj 572 247 outlet~;
#X obj 573 86 inlet;
#X obj 629 86 inlet;
#X obj 687 86 inlet;
#X obj 630 247 outlet~;
#X obj 688 247 outlet~;
#X obj 799 105 track_names \$1, f 23;
#X obj 109 122 audioplayer \$1 2, f 6;
#X obj 51 122 audioplayer \$1 1, f 6;
#X obj 165 122 audioplayer \$1 3, f 6;
#X obj 223 122 audioplayer \$1 4, f 6;
#X obj 283 122 audioplayer \$1 5, f 6;
#X obj 341 122 audioplayer \$1 6, f 6;
#X obj 397 122 audioplayer \$1 7, f 6;
#X obj 455 122 audioplayer \$1 8, f 6;
#X obj 515 122 audioplayer \$1 9, f 6;
#X obj 573 122 audioplayer \$1 10, f 6;
#X obj 629 122 audioplayer \$1 11, f 6;
#X obj 687 122 audioplayer \$1 12, f 6;
#X connect 0 0 27 0;
#X connect 4 0 26 0;
#X connect 5 0 28 0;
#X connect 6 0 29 0;
#X connect 9 0 30 0;
#X connect 12 0 31 0;
#X connect 13 0 32 0;
#X connect 14 0 33 0;
#X connect 17 0 34 0;
#X connect 20 0 35 0;
#X connect 21 0 36 0;
#X connect 22 0 37 0;
#X connect 25 0 27 1;
#X connect 25 1 26 1;
#X connect 25 2 28 1;
#X connect 25 3 29 1;
#X connect 25 4 30 1;
#X connect 25 5 31 1;
#X connect 25 6 32 1;
#X connect 25 7 33 1;
#X connect 25 8 34 1;
#X connect 25 9 35 1;
#X connect 25 10 36 1;
#X connect 25 11 37 1;
#X connect 26 0 3 0;
#X connect 26 1 3 0;
#X connect 27 0 2 0;
#X connect 27 1 2 0;
#X connect 28 0 7 0;
#X connect 28 1 7 0;
#X connect 29 0 8 0;
#X connect 29 1 8 0;
#X connect 30 0 10 0;
#X connect 30 1 10 0;
#X connect 31 0 11 0;
#X connect 31 1 11 0;
#X connect 32 0 15 0;
#X connect 32 1 15 0;
#X connect 33 0 16 0;
#X connect 33 1 16 0;
#X connect 34 0 18 0;
#X connect 34 1 18 0;
#X connect 35 0 19 0;
#X connect 35 1 19 0;
#X connect 36 0 23 0;
#X connect 36 1 23 0;
#X connect 37 0 24 0;
#X connect 37 1 24 0;
