#N canvas 21 136 1247 359 10;
#X obj 1070 127 track_names, f 23;
#X obj 17 144 audioplayer;
#X obj 104 144 audioplayer;
#X obj 192 144 audioplayer;
#X obj 279 144 audioplayer;
#X obj 17 108 inlet;
#X text 15 84 vel from partition;
#X obj 16 269 outlet~;
#X obj 103 269 outlet~;
#X obj 104 108 inlet;
#X obj 192 108 inlet;
#X obj 279 108 inlet;
#X obj 193 269 outlet~;
#X obj 280 269 outlet~;
#X obj 367 144 audioplayer;
#X obj 454 144 audioplayer;
#X obj 542 144 audioplayer;
#X obj 629 144 audioplayer;
#X obj 367 108 inlet;
#X obj 366 269 outlet~;
#X obj 453 269 outlet~;
#X obj 454 108 inlet;
#X obj 542 108 inlet;
#X obj 629 108 inlet;
#X obj 543 269 outlet~;
#X obj 630 269 outlet~;
#X obj 718 144 audioplayer;
#X obj 805 144 audioplayer;
#X obj 893 144 audioplayer;
#X obj 980 144 audioplayer;
#X obj 718 108 inlet;
#X obj 717 269 outlet~;
#X obj 804 269 outlet~;
#X obj 805 108 inlet;
#X obj 893 108 inlet;
#X obj 980 108 inlet;
#X obj 894 269 outlet~;
#X obj 981 269 outlet~;
#X connect 0 0 1 1;
#X connect 0 1 2 1;
#X connect 0 2 3 1;
#X connect 0 3 4 1;
#X connect 0 4 14 1;
#X connect 0 5 15 1;
#X connect 0 6 16 1;
#X connect 0 7 17 1;
#X connect 0 8 26 1;
#X connect 0 9 27 1;
#X connect 0 10 28 1;
#X connect 0 11 29 1;
#X connect 1 0 7 0;
#X connect 1 1 7 0;
#X connect 2 0 8 0;
#X connect 2 1 8 0;
#X connect 3 0 12 0;
#X connect 3 1 12 0;
#X connect 4 0 13 0;
#X connect 4 1 13 0;
#X connect 5 0 1 0;
#X connect 9 0 2 0;
#X connect 10 0 3 0;
#X connect 11 0 4 0;
#X connect 14 0 19 0;
#X connect 14 1 19 0;
#X connect 15 0 20 0;
#X connect 15 1 20 0;
#X connect 16 0 24 0;
#X connect 16 1 24 0;
#X connect 17 0 25 0;
#X connect 17 1 25 0;
#X connect 18 0 14 0;
#X connect 21 0 15 0;
#X connect 22 0 16 0;
#X connect 23 0 17 0;
#X connect 26 0 31 0;
#X connect 26 1 31 0;
#X connect 27 0 32 0;
#X connect 27 1 32 0;
#X connect 28 0 36 0;
#X connect 28 1 36 0;
#X connect 29 0 37 0;
#X connect 29 1 37 0;
#X connect 30 0 26 0;
#X connect 33 0 27 0;
#X connect 34 0 28 0;
#X connect 35 0 29 0;
