#N canvas 362 76 705 835 10;
#X obj 132 330 soundfiler;
#X floatatom 132 367 5 0 0 0 - - -, f 5;
#X obj 132 386 bng 15 250 50 0 empty empty empty 17 7 0 10 -262144
-1 -1;
#X obj 179 595 line~;
#X floatatom 331 401 5 0 0 0 - - -, f 5;
#X obj 331 347 / 44.1;
#X obj 331 423 int;
#X obj 179 516 bng 15 250 50 0 empty empty empty 17 7 0 10 -262144
-1 -1;
#X obj 264 556 route 0;
#X obj 264 499 pack f f f;
#X obj 297 381 f;
#X obj 331 461 f;
#X obj 179 543 0;
#X text 360 462 time;
#X text 232 387 end, f 7;
#X text 132 544 begin;
#X obj 180 661 *~;
#X obj 132 114 inlet;
#X obj 180 748 outlet~;
#X obj 232 748 outlet~;
#X text 275 719 inser pan ici;
#X obj 501 601 receive trackVol;
#X obj 501 622 route \$1;
#X obj 501 644 route \$2;
#X obj 407 621 loadbang;
#X obj 407 644 0.5;
#X obj 181 693 *~;
#X obj 232 693 *~;
#X obj 181 720 *~ 1;
#X obj 231 720 *~ 1;
#X obj 40 652 inlet;
#X obj 40 676 select 0;
#X obj 93 484 bng 15 250 50 0 empty empty empty 17 7 0 10 -262144 -1
-1;
#X text 278 136 sample Name;
#X obj 435 86 \$1;
#X obj 435 62 loadbang;
#X obj 516 71 bng 15 250 50 0 empty empty empty 17 7 0 10 -262144 -1
-1;
#X obj 435 108 makefilename sample_%d;
#X obj 568 151 \$2;
#X obj 530 136 bng 15 250 50 0 empty empty empty 17 7 0 10 -262144
-1 -1;
#X msg 435 138 set \$1_%d;
#X obj 435 168 makefilename;
#X text 19 628 velocite;
#X msg 132 444 \; \$1 normalize \;;
#X obj 132 250 pack s s;
#X msg 132 302 read -resize \$1 \$2;
#X msg 185 225 symbol sample_1_1;
#X msg 435 208 set symbol \$1;
#X msg 435 396 set \$1;
#X msg 132 413 sample_1_1;
#X obj 132 81 table sample_\$1_\$2;
#X obj 179 619 tabread4~ sample_\$1_\$2;
#X obj 185 202 bng 15 250 50 0 empty empty empty 17 7 0 10 -262144
-1 -1;
#X obj 265 267 print \$1_\$2;
#X connect 0 0 1 0;
#X connect 0 0 5 0;
#X connect 1 0 2 0;
#X connect 1 0 10 0;
#X connect 2 0 49 0;
#X connect 3 0 51 0;
#X connect 4 0 6 0;
#X connect 5 0 4 0;
#X connect 6 0 11 0;
#X connect 7 0 12 0;
#X connect 8 0 3 0;
#X connect 9 0 7 0;
#X connect 9 0 8 0;
#X connect 10 0 9 1;
#X connect 11 0 9 2;
#X connect 12 0 3 0;
#X connect 16 0 26 0;
#X connect 16 0 27 0;
#X connect 17 0 44 0;
#X connect 21 0 22 0;
#X connect 22 0 23 0;
#X connect 23 0 16 1;
#X connect 24 0 25 0;
#X connect 25 0 16 1;
#X connect 26 0 28 0;
#X connect 27 0 29 0;
#X connect 28 0 18 0;
#X connect 29 0 19 0;
#X connect 30 0 31 0;
#X connect 31 1 27 1;
#X connect 31 1 26 1;
#X connect 31 1 32 0;
#X connect 32 0 9 0;
#X connect 34 0 37 0;
#X connect 35 0 34 0;
#X connect 36 0 34 0;
#X connect 37 0 40 0;
#X connect 37 0 39 0;
#X connect 38 0 41 0;
#X connect 39 0 38 0;
#X connect 40 0 41 0;
#X connect 41 0 47 0;
#X connect 41 0 48 0;
#X connect 44 0 45 0;
#X connect 44 0 53 0;
#X connect 45 0 0 0;
#X connect 46 0 44 1;
#X connect 47 0 46 0;
#X connect 47 0 52 0;
#X connect 48 0 49 0;
#X connect 51 0 16 0;
#X connect 52 0 46 0;
