#N canvas 2 71 1009 697 10;
#X obj 392 552 readsf~ 2 44100;
#X obj 391 735 outlet~;
#X obj 444 766 outlet~;
#X obj 443 685 *~ 0.1;
#X obj 392 685 *~ 0.1;
#X obj 237 105 inlet;
#X obj 237 129 select 0;
#X text 291 104 velocite in from partition;
#X floatatom 561 424 5 0 0 0 - - -, f 5;
#X floatatom 560 671 5 0 0 0 - - -, f 5;
#X obj 392 435 delay 1;
#X msg 392 474 1;
#X obj 689 171 0;
#X obj 689 199 + 1;
#X msg 763 245 0;
#X obj 689 146 bng 15 250 50 0 empty empty empty 17 7 0 10 -262144
-1 -1;
#X floatatom 738 188 5 0 0 0 - - -, f 5;
#X obj 689 228 moses 2;
#X obj 689 250 bng 15 250 50 0 empty empty empty 17 7 0 10 -262144
-1 -1;
#X obj 735 250 bng 15 250 50 0 empty empty empty 17 7 0 10 -262144
-1 -1;
#X msg 689 273 0;
#X msg 689 295 1;
#X msg 735 273 0;
#X msg 735 295 1;
#X obj 670 361 spigot;
#X obj 723 361 spigot;
#X floatatom 290 410 5 0 0 0 - - -, f 5;
#X obj 748 447 inlet;
#X obj 825 552 readsf~ 2 44100;
#X obj 876 685 *~ 0.1;
#X obj 825 685 *~ 0.1;
#X floatatom 994 424 5 0 0 0 - - -, f 5;
#X floatatom 994 671 5 0 0 0 - - -, f 5;
#X obj 825 435 delay 1;
#X msg 825 474 1;
#X floatatom 723 410 5 0 0 0 - - -, f 5;
#X obj 723 511 list;
#X obj 723 464 bng 15 250 50 0 empty empty empty 17 7 0 10 -262144
-1 -1;
#X obj 723 535 route list;
#X obj 290 511 list;
#X obj 290 464 bng 15 250 50 0 empty empty empty 17 7 0 10 -262144
-1 -1;
#X obj 290 535 route list;
#X obj 599 538 receive trackVol;
#X obj 599 559 route \$1;
#X obj 599 581 route \$2;
#X obj 599 604 pack f 50;
#X obj 599 626 line~;
#X obj 393 644 *~;
#X obj 442 644 *~;
#X obj 826 644 *~;
#X obj 875 644 *~;
#X obj 572 490 loadbang;
#X obj 572 513 0.5;
#X connect 0 0 47 0;
#X connect 0 1 48 0;
#X connect 3 0 2 0;
#X connect 4 0 1 0;
#X connect 5 0 6 0;
#X connect 6 1 15 0;
#X connect 6 1 25 0;
#X connect 6 1 24 0;
#X connect 8 0 9 0;
#X connect 9 0 3 1;
#X connect 9 0 4 1;
#X connect 10 0 11 0;
#X connect 11 0 0 0;
#X connect 12 0 13 0;
#X connect 12 0 16 0;
#X connect 13 0 17 0;
#X connect 14 0 12 1;
#X connect 15 0 12 0;
#X connect 17 0 12 1;
#X connect 17 0 18 0;
#X connect 17 1 14 0;
#X connect 17 1 19 0;
#X connect 18 0 20 0;
#X connect 19 0 22 0;
#X connect 20 0 21 0;
#X connect 20 0 24 1;
#X connect 21 0 25 1;
#X connect 22 0 23 0;
#X connect 22 0 25 1;
#X connect 23 0 24 1;
#X connect 24 0 26 0;
#X connect 25 0 35 0;
#X connect 26 0 8 0;
#X connect 26 0 10 0;
#X connect 26 0 40 0;
#X connect 27 0 28 0;
#X connect 27 0 36 1;
#X connect 27 0 37 0;
#X connect 27 0 39 1;
#X connect 27 0 40 0;
#X connect 28 0 49 0;
#X connect 28 1 50 0;
#X connect 29 0 2 0;
#X connect 30 0 1 0;
#X connect 31 0 32 0;
#X connect 32 0 29 1;
#X connect 32 0 30 1;
#X connect 33 0 34 0;
#X connect 34 0 28 0;
#X connect 35 0 31 0;
#X connect 35 0 33 0;
#X connect 35 0 37 0;
#X connect 36 0 38 0;
#X connect 37 0 36 0;
#X connect 38 0 28 0;
#X connect 39 0 41 0;
#X connect 40 0 39 0;
#X connect 41 0 0 0;
#X connect 42 0 43 0;
#X connect 43 0 44 0;
#X connect 44 0 45 0;
#X connect 45 0 46 0;
#X connect 46 0 48 1;
#X connect 46 0 47 1;
#X connect 46 0 49 1;
#X connect 46 0 50 1;
#X connect 47 0 4 0;
#X connect 48 0 3 0;
#X connect 49 0 30 0;
#X connect 50 0 29 0;
#X connect 51 0 52 0;
#X connect 52 0 45 0;
