#N canvas 15 84 625 359 10;
#X obj -67 108 inlet;
#X text -38 84 vel from partition;
#X obj -68 269 outlet~;
#X obj 30 269 outlet~;
#X obj 31 108 inlet;
#X obj 129 108 inlet;
#X obj 227 108 inlet;
#X obj 130 269 outlet~;
#X obj 228 269 outlet~;
#X obj 325 108 inlet;
#X obj 324 269 outlet~;
#X obj 422 269 outlet~;
#X obj 423 108 inlet;
#X obj 521 108 inlet;
#X obj 619 108 inlet;
#X obj 522 269 outlet~;
#X obj 620 269 outlet~;
#X obj 718 108 inlet;
#X obj 717 269 outlet~;
#X obj 816 269 outlet~;
#X obj 817 108 inlet;
#X obj 923 108 inlet;
#X obj 1030 108 inlet;
#X obj 924 269 outlet~;
#X obj 1031 269 outlet~;
#X obj 1142 127 track_names \$1, f 23;
#X obj 31 144 audioplayer \$1 2, f 10;
#X obj -67 144 audioplayer \$1 1, f 10;
#X obj 129 144 audioplayer \$1 3, f 10;
#X obj 227 144 audioplayer \$1 4, f 10;
#X obj 325 144 audioplayer \$1 5, f 10;
#X obj 423 144 audioplayer \$1 6, f 10;
#X obj 521 144 audioplayer \$1 7, f 10;
#X obj 619 144 audioplayer \$1 8, f 10;
#X obj 718 144 audioplayer \$1 9, f 10;
#X obj 817 144 audioplayer \$1 10, f 10;
#X obj 923 144 audioplayer \$1 11, f 10;
#X obj 1030 144 audioplayer \$1 12, f 10;
#X connect 0 0 27 0;
#X connect 4 0 26 0;
#X connect 5 0 28 0;
#X connect 6 0 29 0;
#X connect 9 0 30 0;
#X connect 12 0 31 0;
#X connect 13 0 32 0;
#X connect 14 0 33 0;
#X connect 17 0 34 0;
#X connect 20 0 35 0;
#X connect 21 0 36 0;
#X connect 22 0 37 0;
#X connect 25 0 27 1;
#X connect 25 1 26 1;
#X connect 25 2 28 1;
#X connect 25 3 29 1;
#X connect 25 4 30 1;
#X connect 25 5 31 1;
#X connect 25 6 32 1;
#X connect 25 7 33 1;
#X connect 25 8 34 1;
#X connect 25 9 35 1;
#X connect 25 10 36 1;
#X connect 25 11 37 1;
#X connect 26 0 3 0;
#X connect 26 1 3 0;
#X connect 27 0 2 0;
#X connect 27 1 2 0;
#X connect 28 0 7 0;
#X connect 28 1 7 0;
#X connect 29 0 8 0;
#X connect 29 1 8 0;
#X connect 30 0 10 0;
#X connect 30 1 10 0;
#X connect 31 0 11 0;
#X connect 31 1 11 0;
#X connect 32 0 15 0;
#X connect 32 1 15 0;
#X connect 33 0 16 0;
#X connect 33 1 16 0;
#X connect 34 0 18 0;
#X connect 34 1 18 0;
#X connect 35 0 19 0;
#X connect 35 1 19 0;
#X connect 36 0 23 0;
#X connect 36 1 23 0;
#X connect 37 0 24 0;
#X connect 37 1 24 0;
