#N canvas 377 114 643 705 10;
#X obj 300 335 inlet;
#X obj 262 352 list;
#X obj 262 373 route list;
#X obj 262 332 bng 15 250 50 0 empty empty empty 17 7 0 10 -262144
-1 -1;
#X obj 364 390 readsf~ 2 44100;
#X obj 363 573 outlet~;
#X obj 416 604 outlet~;
#X msg 364 342 1;
#X obj 365 482 *~ 1;
#X obj 414 482 *~ 1;
#X obj 415 523 *~ 0.1;
#X obj 364 523 *~ 0.1;
#X obj 190 465 line;
#X obj 190 210 bng 15 250 50 0 empty empty empty 17 7 0 10 -262144
-1 -1;
#X obj 262 418 bng 15 250 50 0 empty empty empty 17 7 0 10 -262144
-1 -1;
#X obj 237 105 inlet;
#X obj 237 129 select 0;
#X text 291 104 velocite in from partition;
#X obj 272 448 f;
#X msg 190 442 0 15;
#X obj 262 246 delay 15;
#X obj 364 225 delay 30;
#X connect 0 0 1 1;
#X connect 0 0 3 0;
#X connect 1 0 2 0;
#X connect 2 0 4 0;
#X connect 2 0 14 0;
#X connect 3 0 1 0;
#X connect 4 0 8 0;
#X connect 4 1 9 0;
#X connect 7 0 4 0;
#X connect 8 0 11 0;
#X connect 9 0 10 0;
#X connect 10 0 6 0;
#X connect 11 0 5 0;
#X connect 12 0 8 0;
#X connect 12 0 9 0;
#X connect 13 0 19 0;
#X connect 13 0 20 0;
#X connect 13 0 21 0;
#X connect 14 0 18 0;
#X connect 15 0 16 0;
#X connect 16 1 13 0;
#X connect 16 1 18 1;
#X connect 18 0 12 0;
#X connect 19 0 12 0;
#X connect 20 0 3 0;
#X connect 21 0 7 0;
