#N canvas -42 73 625 359 10;
#X obj 17 144 audioplayer;
#X obj 104 144 audioplayer;
#X obj 192 144 audioplayer;
#X obj 279 144 audioplayer;
#X obj 17 108 inlet;
#X text 15 84 vel from partition;
#X obj 16 269 outlet~;
#X obj 103 269 outlet~;
#X obj 104 108 inlet;
#X obj 192 108 inlet;
#X obj 279 108 inlet;
#X obj 193 269 outlet~;
#X obj 280 269 outlet~;
#X obj 367 144 audioplayer;
#X obj 454 144 audioplayer;
#X obj 542 144 audioplayer;
#X obj 629 144 audioplayer;
#X obj 367 108 inlet;
#X obj 366 269 outlet~;
#X obj 453 269 outlet~;
#X obj 454 108 inlet;
#X obj 542 108 inlet;
#X obj 629 108 inlet;
#X obj 543 269 outlet~;
#X obj 630 269 outlet~;
#X obj 718 144 audioplayer;
#X obj 805 144 audioplayer;
#X obj 893 144 audioplayer;
#X obj 980 144 audioplayer;
#X obj 718 108 inlet;
#X obj 717 269 outlet~;
#X obj 804 269 outlet~;
#X obj 805 108 inlet;
#X obj 893 108 inlet;
#X obj 980 108 inlet;
#X obj 894 269 outlet~;
#X obj 981 269 outlet~;
#X obj 1070 127 track_toju, f 23;
#X connect 0 0 6 0;
#X connect 0 1 6 0;
#X connect 1 0 7 0;
#X connect 1 1 7 0;
#X connect 2 0 11 0;
#X connect 2 1 11 0;
#X connect 3 0 12 0;
#X connect 3 1 12 0;
#X connect 4 0 0 0;
#X connect 8 0 1 0;
#X connect 9 0 2 0;
#X connect 10 0 3 0;
#X connect 13 0 18 0;
#X connect 13 1 18 0;
#X connect 14 0 19 0;
#X connect 14 1 19 0;
#X connect 15 0 23 0;
#X connect 15 1 23 0;
#X connect 16 0 24 0;
#X connect 16 1 24 0;
#X connect 17 0 13 0;
#X connect 20 0 14 0;
#X connect 21 0 15 0;
#X connect 22 0 16 0;
#X connect 25 0 30 0;
#X connect 25 1 30 0;
#X connect 26 0 31 0;
#X connect 26 1 31 0;
#X connect 27 0 35 0;
#X connect 27 1 35 0;
#X connect 28 0 36 0;
#X connect 28 1 36 0;
#X connect 29 0 25 0;
#X connect 32 0 26 0;
#X connect 33 0 27 0;
#X connect 34 0 28 0;
#X connect 37 0 0 1;
#X connect 37 1 1 1;
#X connect 37 2 2 1;
#X connect 37 3 3 1;
#X connect 37 4 13 1;
#X connect 37 5 14 1;
#X connect 37 6 15 1;
#X connect 37 7 16 1;
#X connect 37 8 25 1;
#X connect 37 9 26 1;
#X connect 37 10 27 1;
#X connect 37 11 28 1;
