#N canvas 32 109 916 610 10;
#X obj 368 35 inlet;
#X obj 414 35 inlet;
#X obj 153 128 receive idInstru;
#X obj 119 68 receive idRack;
#X obj 552 408 send to_osc;
#X obj 386 119 tabread;
#X obj 368 152 f;
#X obj 414 152 f;
#X obj 368 204 f;
#X obj 368 225 moses 0;
#X obj 368 282 f;
#X obj 288 326 bng 15 250 50 0 empty empty empty 17 7 0 10 -262144
-1 -1;
#X obj 387 408 tabwrite;
#X floatatom 512 136 5 0 0 0 - - -, f 5;
#X obj 85 401 route 0;
#X obj 288 358 delay 1;
#X floatatom 420 266 5 0 0 0 - - -, f 5;
#X floatatom 422 299 5 0 0 0 - - -, f 5;
#X floatatom 225 186 5 0 0 0 - - -, f 5;
#X obj 368 58 bng 15 250 50 0 empty empty empty 17 7 0 10 -262144 -1
-1;
#X obj 414 58 bng 15 250 50 0 empty empty empty 17 7 0 10 -262144 -1
-1;
#X floatatom 495 169 5 0 0 0 - - -, f 5;
#X obj 653 66 loadbang;
#X obj 653 98 delay 1;
#X floatatom 653 184 5 0 0 0 - - -, f 5;
#X msg 386 85 set \$1_begin_mesure;
#X obj 368 174 - 16;
#X obj 414 174 + 16;
#X msg 368 246 48;
#X msg 468 265 0;
#X obj 85 428 send changeBeginMesure;
#X obj 414 245 moses 64;
#X msg 551 386 set beginMesure;
#X obj 653 135 0;
#X obj 85 375 pack f f f f, f 15;
#X obj 173 241 - 1;
#X connect 0 0 19 0;
#X connect 1 0 20 0;
#X connect 2 0 34 2;
#X connect 2 0 35 0;
#X connect 3 0 25 0;
#X connect 3 0 34 1;
#X connect 5 0 7 1;
#X connect 5 0 6 1;
#X connect 5 0 13 0;
#X connect 6 0 26 0;
#X connect 7 0 21 0;
#X connect 7 0 27 0;
#X connect 8 0 9 0;
#X connect 9 0 28 0;
#X connect 9 1 31 0;
#X connect 10 0 6 1;
#X connect 10 0 7 1;
#X connect 10 0 17 0;
#X connect 10 0 12 0;
#X connect 10 0 11 0;
#X connect 10 0 32 0;
#X connect 10 0 4 0;
#X connect 10 0 34 3;
#X connect 11 0 15 0;
#X connect 14 0 30 0;
#X connect 15 0 34 0;
#X connect 15 0 35 0;
#X connect 18 0 5 0;
#X connect 18 0 12 1;
#X connect 19 0 6 0;
#X connect 20 0 7 0;
#X connect 22 0 23 0;
#X connect 23 0 33 0;
#X connect 25 0 5 0;
#X connect 25 0 12 0;
#X connect 26 0 8 0;
#X connect 27 0 8 0;
#X connect 28 0 10 0;
#X connect 29 0 10 0;
#X connect 31 0 10 0;
#X connect 31 0 16 0;
#X connect 31 1 29 0;
#X connect 32 0 4 0;
#X connect 33 0 7 1;
#X connect 33 0 6 1;
#X connect 33 0 24 0;
#X connect 34 0 14 0;
#X connect 35 0 18 0;
