#N canvas 444 370 662 300 10;
#X obj 85 37 inlet;
#X text 291 78 current bpm;
#X obj 168 77 receive from_bpm;
#X obj 85 63 route 0 1;
#X obj 85 94 f;
#X obj 85 124 - 1;
#X obj 115 94 f;
#X obj 115 124 + 1;
#X obj 131 232 send newBpm;
#X text 140 37 message + - (0 ou 1) from Menu_1;
#X obj 85 195 moses 0;
#X obj 115 162 moses 300;
#X connect 0 0 3 0;
#X connect 2 0 6 1;
#X connect 2 0 4 1;
#X connect 3 0 4 0;
#X connect 3 1 6 0;
#X connect 4 0 5 0;
#X connect 5 0 10 0;
#X connect 6 0 7 0;
#X connect 7 0 11 0;
#X connect 10 1 8 0;
#X connect 11 0 8 0;
