#N canvas 2 73 595 373 10;
#X obj 33 43 inlet;
#X obj 76 43 inlet;
#X obj 119 43 inlet;
#X obj 162 43 inlet;
#X obj 204 43 inlet;
#X obj 247 43 inlet;
#X obj 290 43 inlet;
#X obj 333 43 inlet;
#X obj 376 43 inlet;
#X obj 419 43 inlet;
#X obj 462 43 inlet;
#X obj 505 43 inlet;
#X obj 358 281 outlet;
#X text 413 281 id pas;
#X msg 376 68 0;
#X msg 419 68 1;
#X msg 462 68 2;
#X msg 505 68 3;
#X obj 358 225 +;
#X floatatom 358 254 5 0 0 0 - - -, f 5;
#X floatatom 33 220 5 0 0 0 - - -, f 5;
#X msg 33 68 0;
#X msg 76 68 16;
#X msg 119 68 32;
#X msg 162 68 48;
#X obj 33 191 0;
#X floatatom 186 238 5 0 0 0 - - -, f 5;
#X obj 186 208 +;
#X msg 333 68 12;
#X msg 290 68 8;
#X msg 247 68 4;
#X msg 204 68 0;
#X obj 186 158 bng 15 250 50 0 empty empty empty 17 7 0 10 -262144
-1 -1;
#X obj 358 179 bng 15 250 50 0 empty empty empty 17 7 0 10 -262144
-1 -1;
#X connect 0 0 21 0;
#X connect 1 0 22 0;
#X connect 2 0 23 0;
#X connect 3 0 24 0;
#X connect 4 0 31 0;
#X connect 5 0 30 0;
#X connect 6 0 29 0;
#X connect 7 0 28 0;
#X connect 8 0 14 0;
#X connect 9 0 15 0;
#X connect 10 0 16 0;
#X connect 11 0 17 0;
#X connect 14 0 18 1;
#X connect 14 0 33 0;
#X connect 15 0 18 1;
#X connect 15 0 33 0;
#X connect 16 0 18 1;
#X connect 16 0 33 0;
#X connect 17 0 18 1;
#X connect 17 0 33 0;
#X connect 18 0 19 0;
#X connect 19 0 12 0;
#X connect 21 0 25 0;
#X connect 22 0 25 0;
#X connect 23 0 25 0;
#X connect 24 0 25 0;
#X connect 25 0 20 0;
#X connect 25 0 27 0;
#X connect 27 0 18 0;
#X connect 27 0 26 0;
#X connect 28 0 27 1;
#X connect 28 0 32 0;
#X connect 29 0 27 1;
#X connect 29 0 32 0;
#X connect 30 0 27 1;
#X connect 30 0 32 0;
#X connect 31 0 27 1;
#X connect 31 0 32 0;
#X connect 32 0 27 0;
#X connect 33 0 18 0;
