#N canvas 525 375 650 517 10;
#X msg 57 259 \; vel_1 resize 0 \; vel_1 0 0 \; vel_1 resize 64 \;
;
#X msg 189 259 \; vel_2 resize 0 \; vel_2 0 0 \; vel_2 resize 64 \;
;
#X msg 319 259 \; vel_3 resize 0 \; vel_3 0 0 \; vel_3 resize 64 \;
;
#X msg 450 259 \; vel_4 resize 0 \; vel_4 0 0 \; vel_4 resize 64 \;
;
#X obj 57 105 f;
#X obj 75 45 receive idInstru;
#X obj 57 16 inlet;
#X obj 100 147 send to_osc;
#X msg 100 122 set clear;
#X obj 57 176 select 1 2 3 4 5 6 7 8 9 10 11 12;
#X msg 57 325 \; vel_5 resize 0 \; vel_5 0 0 \; vel_5 resize 64 \;
;
#X msg 191 325 \; vel_6 resize 0 \; vel_6 0 0 \; vel_6 resize 64 \;
;
#X msg 320 325 \; vel_7 resize 0 \; vel_7 0 0 \; vel_7 resize 64 \;
;
#X msg 450 325 \; vel_8 resize 0 \; vel_8 0 0 \; vel_8 resize 64 \;
;
#X msg 57 392 \; vel_9 resize 0 \; vel_9 0 0 \; vel_9 resize 64 \;
;
#X msg 189 392 \; vel_10 resize 0 \; vel_10 0 0 \; vel_10 resize 64
\;;
#X msg 319 392 \; vel_11 resize 0 \; vel_11 0 0 \; vel_11 resize 64
\;;
#X msg 450 392 \; vel_12 resize 0 \; vel_12 0 0 \; vel_12 resize 64
\;;
#X connect 4 0 8 0;
#X connect 4 0 7 0;
#X connect 4 0 9 0;
#X connect 5 0 4 1;
#X connect 6 0 4 0;
#X connect 8 0 7 0;
#X connect 9 0 0 0;
#X connect 9 1 1 0;
#X connect 9 2 2 0;
#X connect 9 3 3 0;
#X connect 9 4 10 0;
#X connect 9 5 11 0;
#X connect 9 6 12 0;
#X connect 9 7 13 0;
#X connect 9 8 14 0;
#X connect 9 9 15 0;
#X connect 9 10 16 0;
#X connect 9 11 17 0;
