#N canvas 527 375 650 517 10;
#X msg 57 259 \; vel_1 resize 0 \; vel_1 0 0 \; vel_1 resize 64 \;
;
#X msg 189 259 \; vel_2 resize 0 \; vel_2 0 0 \; vel_2 resize 64 \;
;
#X msg 319 259 \; vel_3 resize 0 \; vel_3 0 0 \; vel_3 resize 64 \;
;
#X msg 450 259 \; vel_4 resize 0 \; vel_4 0 0 \; vel_4 resize 64 \;
;
#X obj 57 176 select 1 2 3 4;
#X obj 57 105 f;
#X obj 75 45 receive idInstru;
#X obj 57 16 inlet;
#X obj 100 147 send to_osc;
#X msg 100 122 set clear;
#X connect 4 0 0 0;
#X connect 4 1 1 0;
#X connect 4 2 2 0;
#X connect 4 3 3 0;
#X connect 5 0 4 0;
#X connect 5 0 9 0;
#X connect 5 0 8 0;
#X connect 6 0 5 1;
#X connect 7 0 5 0;
#X connect 9 0 8 0;
