#N canvas 2 73 615 395 10;
#X obj 525 98 inlet;
#X obj 570 98 inlet;
#X obj 525 350 outlet;
#X text 580 350 id pas;
#X obj 525 120 bng 15 250 50 0 empty empty empty 17 7 0 10 -262144
-1 -1;
#X obj 570 120 bng 15 250 50 0 empty empty empty 17 7 0 10 -262144
-1 -1;
#X obj 615 166 - 4;
#X obj 660 166 + 4;
#X obj 705 166 - 1;
#X obj 750 166 + 1;
#X obj 615 98 inlet;
#X obj 660 98 inlet;
#X obj 615 120 bng 15 250 50 0 empty empty empty 17 7 0 10 -262144
-1 -1;
#X obj 660 120 bng 15 250 50 0 empty empty empty 17 7 0 10 -262144
-1 -1;
#X obj 705 98 inlet;
#X obj 750 98 inlet;
#X obj 705 120 bng 15 250 50 0 empty empty empty 17 7 0 10 -262144
-1 -1;
#X obj 750 120 bng 15 250 50 0 empty empty empty 17 7 0 10 -262144
-1 -1;
#X obj 525 143 0;
#X obj 525 166 - 16;
#X obj 570 166 + 16;
#X obj 570 143 0;
#X obj 615 143 0;
#X obj 660 143 0;
#X obj 705 143 0;
#X obj 750 143 0;
#X obj 525 250 moses 0;
#X floatatom 571 294 5 0 0 0 - - -, f 5;
#X obj 525 308 f;
#X floatatom 525 330 5 0 0 0 - - -, f 5;
#X obj 571 270 moses 64;
#X obj 624 291 - 64;
#X obj 525 270 + 64;
#X obj 525 226 0;
#X obj 362 175 receive resetPas;
#X msg 362 209 0;
#X connect 0 0 4 0;
#X connect 1 0 5 0;
#X connect 4 0 18 0;
#X connect 5 0 21 0;
#X connect 6 0 33 0;
#X connect 7 0 33 0;
#X connect 8 0 33 0;
#X connect 9 0 33 0;
#X connect 10 0 12 0;
#X connect 11 0 13 0;
#X connect 12 0 22 0;
#X connect 13 0 23 0;
#X connect 14 0 16 0;
#X connect 15 0 17 0;
#X connect 16 0 24 0;
#X connect 17 0 25 0;
#X connect 18 0 19 0;
#X connect 19 0 33 0;
#X connect 20 0 33 0;
#X connect 21 0 20 0;
#X connect 22 0 6 0;
#X connect 23 0 7 0;
#X connect 24 0 8 0;
#X connect 25 0 9 0;
#X connect 26 0 32 0;
#X connect 26 1 30 0;
#X connect 27 0 28 0;
#X connect 28 0 29 0;
#X connect 28 0 18 1;
#X connect 28 0 21 1;
#X connect 28 0 22 1;
#X connect 28 0 23 1;
#X connect 28 0 24 1;
#X connect 28 0 25 1;
#X connect 29 0 2 0;
#X connect 30 0 27 0;
#X connect 30 1 31 0;
#X connect 31 0 28 0;
#X connect 32 0 28 0;
#X connect 33 0 26 0;
#X connect 34 0 35 0;
#X connect 35 0 33 0;
