#N canvas 2 71 1809 913 10;
#X obj 525 98 inlet;
#X obj 564 118 inlet;
#X obj 850 483 outlet;
#X text 905 483 id pas;
#X obj 850 427 +;
#X floatatom 850 456 5 0 0 0 - - -, f 5;
#X floatatom 525 422 5 0 0 0 - - -, f 5;
#X obj 525 393 0;
#X floatatom 678 440 5 0 0 0 - - -, f 5;
#X obj 678 386 bng 15 250 50 0 empty empty empty 17 7 0 10 -262144
-1 -1;
#X obj 525 269 moses 0;
#X floatatom 525 354 5 0 0 0 - - -, f 5;
#X obj 525 190 bng 15 250 50 0 empty empty empty 17 7 0 10 -262144
-1 -1;
#X obj 564 189 bng 15 250 50 0 empty empty empty 17 7 0 10 -262144
-1 -1;
#X obj 525 215 0;
#X obj 564 215 0;
#X obj 696 69 inlet;
#X obj 735 89 inlet;
#X obj 696 240 moses 0;
#X floatatom 696 325 5 0 0 0 - - -, f 5;
#X obj 696 161 bng 15 250 50 0 empty empty empty 17 7 0 10 -262144
-1 -1;
#X obj 735 160 bng 15 250 50 0 empty empty empty 17 7 0 10 -262144
-1 -1;
#X obj 696 186 0;
#X obj 735 186 0;
#X obj 678 355 delay 1;
#X obj 678 410 +;
#X obj 850 390 bng 15 250 50 0 empty empty empty 17 7 0 10 -262144
-1 -1;
#X obj 868 73 inlet;
#X obj 907 93 inlet;
#X obj 868 244 moses 0;
#X floatatom 868 329 5 0 0 0 - - -, f 5;
#X obj 868 165 bng 15 250 50 0 empty empty empty 17 7 0 10 -262144
-1 -1;
#X obj 907 164 bng 15 250 50 0 empty empty empty 17 7 0 10 -262144
-1 -1;
#X obj 868 190 0;
#X obj 907 190 0;
#X obj 850 359 delay 1;
#X obj 525 242 - 16;
#X obj 564 242 + 16;
#X obj 696 213 - 4;
#X obj 735 213 + 4;
#X obj 868 217 - 1;
#X obj 907 217 + 1;
#X msg 525 299 48;
#X msg 624 327 0;
#X obj 571 299 moses 64;
#X obj 742 270 moses 16;
#X obj 914 274 moses 4;
#X msg 795 298 0;
#X msg 696 270 12;
#X msg 960 302 0;
#X msg 868 274 3;
#X connect 0 0 12 0;
#X connect 1 0 13 0;
#X connect 4 0 5 0;
#X connect 5 0 2 0;
#X connect 7 0 6 0;
#X connect 7 0 25 0;
#X connect 9 0 25 0;
#X connect 10 0 42 0;
#X connect 10 1 44 0;
#X connect 11 0 15 1;
#X connect 11 0 14 1;
#X connect 11 0 7 0;
#X connect 12 0 14 0;
#X connect 13 0 15 0;
#X connect 14 0 36 0;
#X connect 15 0 37 0;
#X connect 16 0 20 0;
#X connect 17 0 21 0;
#X connect 18 0 48 0;
#X connect 18 1 45 0;
#X connect 19 0 23 1;
#X connect 19 0 22 1;
#X connect 19 0 24 0;
#X connect 19 0 25 1;
#X connect 20 0 22 0;
#X connect 21 0 23 0;
#X connect 22 0 38 0;
#X connect 23 0 39 0;
#X connect 24 0 9 0;
#X connect 25 0 4 0;
#X connect 25 0 8 0;
#X connect 26 0 4 0;
#X connect 27 0 31 0;
#X connect 28 0 32 0;
#X connect 29 0 50 0;
#X connect 29 1 46 0;
#X connect 30 0 34 1;
#X connect 30 0 33 1;
#X connect 30 0 35 0;
#X connect 30 0 4 1;
#X connect 31 0 33 0;
#X connect 32 0 34 0;
#X connect 33 0 40 0;
#X connect 34 0 41 0;
#X connect 35 0 26 0;
#X connect 36 0 10 0;
#X connect 37 0 10 0;
#X connect 38 0 18 0;
#X connect 39 0 18 0;
#X connect 40 0 29 0;
#X connect 41 0 29 0;
#X connect 42 0 11 0;
#X connect 43 0 11 0;
#X connect 44 0 11 0;
#X connect 44 1 43 0;
#X connect 45 0 19 0;
#X connect 45 1 47 0;
#X connect 46 0 30 0;
#X connect 46 1 49 0;
#X connect 47 0 19 0;
#X connect 48 0 19 0;
#X connect 49 0 30 0;
#X connect 50 0 30 0;
