#N canvas 604 383 490 461 10;
#X obj 81 49 inlet;
#X obj 81 75 route 0 1;
#X obj 81 106 f;
#X obj 81 136 - 1;
#X obj 111 106 f;
#X obj 111 136 + 1;
#X text 136 49 message + - (0 ou 1) from Menu_1;
#X text 247 82 nombre de mesure actuel;
#X floatatom 127 261 5 0 0 0 - - -, f 5;
#X obj 81 168 moses 0;
#X msg 81 194 0;
#X obj 127 194 moses;
#X obj 159 118 receive folderL;
#X obj 194 244 f;
#X obj 159 220 bng 15 250 50 0 empty empty empty 17 7 0 10 -262144
-1 -1;
#X obj 159 161 - 1;
#X obj 127 354 send idFolder;
#X obj 265 216 loadbang;
#X obj 265 244 delay 1;
#X connect 0 0 1 0;
#X connect 1 0 2 0;
#X connect 1 1 4 0;
#X connect 2 0 3 0;
#X connect 3 0 9 0;
#X connect 4 0 5 0;
#X connect 5 0 9 0;
#X connect 8 0 4 1;
#X connect 8 0 2 1;
#X connect 8 0 16 0;
#X connect 9 0 10 0;
#X connect 9 1 11 0;
#X connect 10 0 8 0;
#X connect 11 0 8 0;
#X connect 11 1 14 0;
#X connect 12 0 15 0;
#X connect 13 0 8 0;
#X connect 14 0 13 0;
#X connect 15 0 11 1;
#X connect 15 0 13 1;
#X connect 17 0 18 0;
#X connect 18 0 8 0;
