#N canvas 354 307 517 385 10;
#X obj 60 34 inlet;
#X obj 60 151 + 1;
#X obj 60 329 tabwrite;
#X obj 123 268 f;
#X obj 82 268 f;
#X obj 60 80 unpack f f f;
#X msg 60 183 set \$1_tracks_volume;
#X obj 60 253 bng 15 250 50 0 empty empty empty 17 7 0 10 -262144 -1
-1;
#X obj 296 208 send trackVol;
#X obj 114 125 + 1;
#X obj 296 168 pack f f f;
#X connect 0 0 5 0;
#X connect 1 0 6 0;
#X connect 1 0 10 0;
#X connect 3 0 2 0;
#X connect 4 0 2 1;
#X connect 5 0 1 0;
#X connect 5 1 4 1;
#X connect 5 1 9 0;
#X connect 5 2 3 1;
#X connect 5 2 10 2;
#X connect 6 0 2 0;
#X connect 6 0 7 0;
#X connect 7 0 4 0;
#X connect 7 0 3 0;
#X connect 9 0 10 1;
#X connect 10 0 8 0;
