#N canvas 559 88 674 462 10;
#X obj 73 48 receive myload;
#X obj 73 80 route list_rack_mute list_mute lastBpm lastPas master_rack
lastIdPas list_velos recIsOn mode lastKit lastMasterVol lastIdMenu
lastIdInstru lastIdRack lastLoadId isPlaying;
#X obj 73 136 send loadRackMute;
#X obj 98 158 send loadMute;
#X obj 123 180 send loadBpm;
#X obj 224 337 print listVelo;
#X obj 252 294 send loadVelo;
#X connect 0 0 1 0;
#X connect 1 0 2 0;
#X connect 1 1 3 0;
#X connect 1 2 4 0;
#X connect 1 6 5 0;
#X connect 1 6 6 0;
