#N canvas 97 53 505 571 10;
#X obj 205 256 tgl 15 0 empty empty empty 17 7 0 10 -262144 -1 -1 0
1;
#X floatatom 205 305 5 0 0 0 - - -, f 5;
#X floatatom 272 256 5 0 0 0 - - -, f 5;
#X obj 279 343 nav, f 12;
#X obj 205 174 loadbang;
#X msg 271 174 \; pd dsp 1;
#X obj 204 525 dac~;
#X obj 205 115 osc_to_python;
#X obj 205 86 receive to_osc;
#X obj 279 380 road_to_part;
#X msg 272 228 120;
#X obj 344 239 receive newBpm;
#X obj 68 239 receive playPause;
#X msg 69 271 set playPause;
#X obj 69 299 send to_osc;
#X obj 205 279 sequenceur;
#X obj 204 488 *~ 1;
#X obj 285 447 receive MasterVol;
#X floatatom 285 474 5 0 0 0 - - -, f 5;
#X obj 323 115 ask_python;
#X obj 205 410 partitions, f 11;
#X obj 271 148 receive debugPush;
#X connect 0 0 13 0;
#X connect 0 0 14 0;
#X connect 0 0 15 0;
#X connect 1 0 20 0;
#X connect 2 0 15 1;
#X connect 3 0 9 0;
#X connect 3 1 9 1;
#X connect 3 2 9 2;
#X connect 3 3 9 3;
#X connect 4 0 5 0;
#X connect 4 0 10 0;
#X connect 8 0 7 0;
#X connect 9 0 20 1;
#X connect 10 0 2 0;
#X connect 11 0 2 0;
#X connect 12 0 0 0;
#X connect 13 0 14 0;
#X connect 15 0 1 0;
#X connect 16 0 6 0;
#X connect 16 0 6 1;
#X connect 17 0 18 0;
#X connect 18 0 16 1;
#X connect 20 0 16 0;
#X connect 21 0 5 0;
