#N canvas 14 359 497 359 10;
#X obj 205 256 tgl 15 0 empty empty empty 17 7 0 10 -262144 -1 -1 0
1;
#X floatatom 205 305 5 0 0 0 - - -, f 5;
#X floatatom 272 256 5 0 0 0 - - -, f 5;
#X obj 296 364 nav;
#X obj 205 174 loadbang;
#X msg 271 174 \; pd dsp 1;
#X obj 205 641 dac~;
#X obj 205 115 osc_to_python;
#X obj 205 86 receive to_osc;
#X obj 288 319 seq_to_osc;
#X obj 233 403 road_to_part;
#X obj 205 453 partition, f 16;
#X obj 205 501 audioplayers, f 16;
#X obj 205 530 mute_box, f 16;
#X msg 272 228 120;
#X obj 344 239 receive newBpm;
#X obj 68 239 receive playPause;
#X msg 69 271 set playPause;
#X obj 69 299 send to_osc;
#X obj 205 279 sequenceur;
#X obj 205 604 *~ 1;
#X obj 286 563 receive MasterVol;
#X floatatom 286 590 5 0 0 0 - - -, f 5;
#X obj 323 115 ask_python;
#X connect 0 0 17 0;
#X connect 0 0 18 0;
#X connect 0 0 19 0;
#X connect 1 0 9 0;
#X connect 1 0 11 0;
#X connect 2 0 19 1;
#X connect 3 0 10 0;
#X connect 3 1 10 1;
#X connect 3 2 10 2;
#X connect 4 0 5 0;
#X connect 4 0 14 0;
#X connect 8 0 7 0;
#X connect 10 0 11 1;
#X connect 10 1 11 2;
#X connect 11 0 12 0;
#X connect 11 1 12 1;
#X connect 11 2 12 2;
#X connect 11 3 12 3;
#X connect 11 4 12 4;
#X connect 11 5 12 5;
#X connect 11 6 12 6;
#X connect 11 7 12 7;
#X connect 11 8 12 8;
#X connect 11 9 12 9;
#X connect 11 10 12 10;
#X connect 11 11 12 11;
#X connect 12 0 13 0;
#X connect 12 1 13 1;
#X connect 12 2 13 2;
#X connect 12 3 13 3;
#X connect 12 4 13 4;
#X connect 12 5 13 5;
#X connect 12 6 13 6;
#X connect 12 7 13 7;
#X connect 12 8 13 8;
#X connect 12 9 13 9;
#X connect 12 10 13 10;
#X connect 12 11 13 11;
#X connect 13 0 20 0;
#X connect 14 0 2 0;
#X connect 15 0 2 0;
#X connect 16 0 0 0;
#X connect 17 0 18 0;
#X connect 19 0 1 0;
#X connect 20 0 6 0;
#X connect 20 0 6 1;
#X connect 21 0 22 0;
#X connect 22 0 20 1;
