#N canvas 441 201 563 712 10;
#X obj 203 107 tgl 15 0 empty empty empty 17 7 0 10 -262144 -1 -1 0
1;
#X floatatom 203 156 5 0 0 0 - - -, f 5;
#X floatatom 270 107 5 0 0 0 - - -, f 5;
#X obj 277 179 nav, f 12;
#X obj 270 50 loadbang;
#X obj 201 391 dac~;
#X obj 66 217 osc_to_python;
#X obj 66 188 receive to_osc;
#X obj 277 216 road_to_part;
#X msg 270 79 120;
#X obj 342 90 receive newBpm;
#X obj 66 90 receive playPause;
#X msg 67 122 set playPause;
#X obj 67 150 send to_osc;
#X obj 203 130 sequenceur;
#X obj 312 283 receive MasterVol;
#X floatatom 312 310 5 0 0 0 - - -, f 5;
#X obj 66 240 ask_python;
#X obj 203 246 partitions, f 11;
#X obj 67 374 myrecord;
#X obj 66 262 loadbox;
#X obj 202 324 *~ 0.5;
#X obj 201 358 *~ 2;
#X text 37 465 les RackVol ne sont pas pris en compte lors du reload
;
#X text 37 486 les volumes ne sont pas pris en compte lors du reload
;
#X text 36 510 les begin & end mesures ne sont pas pris en compte lors
du reload, f 66;
#X connect 0 0 12 0;
#X connect 0 0 13 0;
#X connect 0 0 14 0;
#X connect 1 0 18 0;
#X connect 2 0 14 1;
#X connect 3 0 8 0;
#X connect 3 1 8 1;
#X connect 3 2 8 2;
#X connect 3 3 8 3;
#X connect 4 0 9 0;
#X connect 7 0 6 0;
#X connect 8 0 18 1;
#X connect 9 0 2 0;
#X connect 10 0 2 0;
#X connect 11 0 0 0;
#X connect 12 0 13 0;
#X connect 14 0 1 0;
#X connect 15 0 16 0;
#X connect 16 0 21 1;
#X connect 18 0 21 0;
#X connect 21 0 22 0;
#X connect 22 0 19 0;
#X connect 22 0 5 1;
#X connect 22 0 5 0;
