#N canvas 572 169 416 694 10;
#X obj 145 205 tgl 15 0 empty empty empty 17 7 0 10 -262144 -1 -1 1
1;
#X obj 145 228 seq64;
#X floatatom 145 254 5 0 0 0 - - -, f 5;
#X floatatom 177 205 5 0 0 0 - - -, f 5;
#X obj 238 313 nav;
#X obj 145 153 loadbang;
#X msg 211 153 \; pd dsp 1;
#X obj 145 522 dac~;
#X obj 145 94 osc_to_python;
#X obj 145 65 receive to_osc;
#X obj 228 268 seq_to_osc;
#X obj 175 352 road_to_part;
#X obj 145 402 partition;
#X obj 145 450 audioplayers;
#X obj 145 479 mute_box;
#X obj 91 129 tgl 15 0 empty empty empty 17 7 0 10 -262144 -1 -1 0
1;
#X obj 91 149 f;
#X msg 91 172;
#X floatatom 91 195 5 0 0 0 - - -, f 5;
#X connect 0 0 1 0;
#X connect 1 0 2 0;
#X connect 2 0 10 0;
#X connect 2 0 12 0;
#X connect 3 0 1 1;
#X connect 4 0 11 0;
#X connect 4 1 11 1;
#X connect 4 2 11 2;
#X connect 5 0 0 0;
#X connect 5 0 6 0;
#X connect 9 0 8 0;
#X connect 11 0 12 1;
#X connect 11 1 12 2;
#X connect 12 0 13 0;
#X connect 12 1 13 1;
#X connect 12 2 13 2;
#X connect 12 3 13 3;
#X connect 13 0 14 0;
#X connect 13 1 14 1;
#X connect 13 2 14 2;
#X connect 13 3 14 3;
#X connect 14 0 7 0;
#X connect 14 0 7 1;
#X connect 15 0 16 0;
#X connect 16 0 17 0;
#X connect 17 0 18 0;
