#N canvas 348 194 773 443 10;
#X obj 79 21 inlet;
#X obj 359 196 send MasterVol;
#X obj 194 115 loadbang;
#X obj 194 179 0.5;
#X obj 79 58 select 0 1;
#X obj 79 107 f;
#X obj 112 107 f;
#X floatatom 89 197 5 0 0 0 - - -, f 5;
#X floatatom 149 295 5 0 0 0 - - -, f 5;
#X msg 179 25 1;
#X msg 129 19 0;
#X obj 53 149 - 0.1;
#X obj 100 148 + 0.1;
#X msg 89 278 0;
#X obj 49 272 bng 15 250 50 0 empty empty empty 17 7 0 10 -262144 -1
-1;
#X obj 89 233 moses 0.1;
#X msg 395 269 set masterVol;
#X obj 395 302 send to_osc;
#X obj 194 145 delay 2;
#X obj 149 264 moses 2;
#X msg 195 301 2;
#X connect 0 0 4 0;
#X connect 2 0 18 0;
#X connect 3 0 1 0;
#X connect 3 0 6 1;
#X connect 3 0 5 1;
#X connect 3 0 16 0;
#X connect 3 0 17 0;
#X connect 4 0 5 0;
#X connect 4 1 6 0;
#X connect 5 0 11 0;
#X connect 6 0 12 0;
#X connect 7 0 15 0;
#X connect 8 0 3 0;
#X connect 9 0 4 0;
#X connect 10 0 4 0;
#X connect 11 0 7 0;
#X connect 12 0 7 0;
#X connect 13 0 8 0;
#X connect 15 0 13 0;
#X connect 15 0 14 0;
#X connect 15 1 19 0;
#X connect 16 0 17 0;
#X connect 18 0 3 0;
#X connect 19 0 8 0;
#X connect 19 1 20 0;
#X connect 20 0 8 0;
