#N canvas 123 146 466 567 10;
#X obj 53 64 inlet;
#X obj 53 101 select 0 1;
#X msg 152 17 1;
#X msg 102 11 0;
#X obj 199 148 tabread rack_master;
#X obj 199 66 receive idRack;
#X obj 199 92 f;
#X obj 53 165 f;
#X obj 86 165 f;
#X obj 53 196 - 0.1;
#X obj 86 226 + 0.1;
#X obj 53 263 f;
#X obj 53 301 moses 0;
#X msg 53 328 0;
#X obj 99 328 moses 1;
#X msg 145 352 1;
#X obj 53 381 f;
#X obj 198 398 tabwrite rack_master;
#X floatatom 53 402 5 0 0 0 - - -, f 5;
#X obj 53 421 bng 15 250 50 0 empty empty empty 17 7 0 10 -262144 -1
-1;
#X obj 143 465 send to_osc;
#X msg 143 441 set masterRack;
#X obj 53 503 send changeRackMaster;
#X obj 199 119 - 1;
#X connect 0 0 1 0;
#X connect 1 0 7 0;
#X connect 1 1 8 0;
#X connect 2 0 1 0;
#X connect 3 0 1 0;
#X connect 4 0 8 1;
#X connect 4 0 7 1;
#X connect 5 0 6 0;
#X connect 6 0 23 0;
#X connect 7 0 9 0;
#X connect 8 0 10 0;
#X connect 9 0 11 0;
#X connect 10 0 11 0;
#X connect 11 0 12 0;
#X connect 12 0 13 0;
#X connect 12 1 14 0;
#X connect 13 0 16 0;
#X connect 14 0 16 0;
#X connect 14 1 15 0;
#X connect 15 0 16 0;
#X connect 16 0 17 0;
#X connect 16 0 18 0;
#X connect 18 0 19 0;
#X connect 18 0 21 0;
#X connect 18 0 20 0;
#X connect 19 0 6 0;
#X connect 19 0 22 0;
#X connect 21 0 20 0;
#X connect 23 0 4 0;
#X connect 23 0 17 1;
