#N canvas 293 105 807 687 10;
#X obj 88 211 send to_osc;
#X msg 109 180 set validLoad;
#X obj 58 57 inlet;
#X msg 58 385 0;
#X obj 58 418 send idM;
#X obj 58 94 route 0 4 13 14, f 18;
#X obj 151 402 0;
#X msg 151 451 0;
#X floatatom 151 486 5 0 0 0 - - -, f 5;
#X msg 213 618 set idLoad;
#X obj 213 652 send to_osc;
#X text 182 404 idLoad;
#X obj 119 336 0;
#X obj 151 336 0;
#X obj 235 454 receive folderSaveL;
#X obj 151 426 moses 0;
#X obj 151 534 moses 0;
#X msg 235 529 set $;
#X floatatom 151 604 5 0 0 0 - - -, f 5;
#X obj 119 309 bng 15 250 50 0 empty empty empty 17 7 0 10 -262144
-1 -1;
#X obj 151 309 bng 15 250 50 0 empty empty empty 17 7 0 10 -262144
-1 -1;
#X obj 119 360 - 1;
#X obj 151 360 + 1;
#X obj 235 491 - 1;
#X msg 197 572 0;
#X floatatom 324 494 5 0 0 0 - - -, f 5;
#X msg 293 111 \; pd dsp 0 \;;
#X connect 1 0 0 0;
#X connect 2 0 5 0;
#X connect 3 0 4 0;
#X connect 3 0 6 0;
#X connect 5 0 3 0;
#X connect 5 1 1 0;
#X connect 5 1 0 0;
#X connect 5 1 26 0;
#X connect 5 2 19 0;
#X connect 5 3 20 0;
#X connect 6 0 15 0;
#X connect 7 0 8 0;
#X connect 8 0 16 0;
#X connect 9 0 10 0;
#X connect 12 0 21 0;
#X connect 13 0 22 0;
#X connect 14 0 23 0;
#X connect 14 0 16 1;
#X connect 14 0 25 0;
#X connect 15 0 7 0;
#X connect 15 1 8 0;
#X connect 16 0 18 0;
#X connect 16 1 24 0;
#X connect 18 0 13 1;
#X connect 18 0 12 1;
#X connect 18 0 9 0;
#X connect 18 0 10 0;
#X connect 19 0 12 0;
#X connect 20 0 13 0;
#X connect 21 0 6 0;
#X connect 22 0 6 0;
#X connect 23 0 17 0;
#X connect 24 0 18 0;
