#N canvas 410 131 788 443 10;
#X obj 259 252 bpm_set;
#X msg 259 160 1;
#X msg 298 207 0;
#X obj 337 167 bng 15 250 50 0 empty empty empty 17 7 0 10 -262144
-1 -1;
#X obj 337 275 send playPause;
#X msg 376 192 0;
#X obj 366 245 send Stoped;
#X msg 415 165 1;
#X msg 454 191 0;
#X obj 415 220 master_set;
#X obj 59 66 inlet;
#X msg 109 129 -1;
#X obj 59 158 send idM;
#X msg 159 129 -2;
#X msg 59 129 1;
#X obj 59 92 route 4 5 6, f 29;
#X msg 192 25 set askSaves;
#X obj 192 50 send to_osc;
#X obj 493 180 bng 15 250 50 0 empty empty empty 17 7 0 10 -262144
-1 -1;
#X msg 493 330 \; pd dsp 1;
#X msg 493 272 \; pd dsp 0;
#X obj 493 307 delay 1;
#X obj 67 264 loadbang;
#X obj 532 175 bng 15 250 50 0 empty empty empty 17 7 0 10 -262144
-1 -1;
#X obj 532 238 send to_osc;
#X msg 532 213 set askRec;
#X obj 67 313 delay 2000;
#X obj 259 129 route 14 13 1 2 16 15 8 7, f 45;
#X connect 1 0 0 0;
#X connect 2 0 0 0;
#X connect 3 0 4 0;
#X connect 5 0 4 0;
#X connect 5 0 6 0;
#X connect 7 0 9 0;
#X connect 8 0 9 0;
#X connect 10 0 15 0;
#X connect 11 0 12 0;
#X connect 13 0 12 0;
#X connect 14 0 12 0;
#X connect 15 0 14 0;
#X connect 15 1 11 0;
#X connect 15 2 13 0;
#X connect 15 2 16 0;
#X connect 15 2 17 0;
#X connect 15 3 27 0;
#X connect 16 0 17 0;
#X connect 18 0 21 0;
#X connect 18 0 20 0;
#X connect 21 0 19 0;
#X connect 22 0 26 0;
#X connect 23 0 25 0;
#X connect 23 0 24 0;
#X connect 25 0 24 0;
#X connect 26 0 19 0;
#X connect 27 0 1 0;
#X connect 27 1 2 0;
#X connect 27 2 3 0;
#X connect 27 3 5 0;
#X connect 27 4 7 0;
#X connect 27 5 8 0;
#X connect 27 6 18 0;
#X connect 27 7 23 0;
