#N canvas 351 73 892 693 10;
#X obj 216 246 bng 15 250 50 0 empty empty empty 17 7 0 10 -262144
-1 -1;
#X obj 216 326 +;
#X msg 261 252 1;
#X msg 249 229 -1;
#X floatatom 216 449 5 0 0 0 - - -, f 5;
#X msg 246 395 1;
#X floatatom 382 300 5 0 0 0 - - -, f 5;
#X msg 344 389 1;
#X msg 363 389 0;
#X floatatom 168 342 5 0 0 0 - - -, f 5;
#X obj 216 270 1;
#X obj 433 338 send to_osc;
#X msg 433 314 set idPas;
#X obj 262 48 inlet;
#X obj 216 367 route 0 13;
#X msg 216 395 12;
#X obj 382 268 key_to_pas, f 14;
#X obj 497 230 track_vol, f 3;
#X obj 535 283 begin_mesure, f 3;
#X obj 573 253 lenght_mesure, f 3;
#X msg 330 463 0;
#X obj 308 190 route 1 2 3 4 15 16 11 12 7 8 5 6 13 14 9 10;
#X obj 330 588 send resetPas;
#X obj 216 506 send idInstru;
#X obj 382 522 send idPas;
#X obj 616 406 send velo;
#X obj 262 140 send idM;
#X obj 262 90 route 0;
#X msg 262 115 2;
#X obj 29 469 receive idInstruFrom;
#X obj 106 407 loadbang;
#X obj 144 559 send to_osc;
#X msg 144 535 set idInstru;
#X msg 106 432 1;
#X obj 396 371 bng 15 250 50 0 empty empty empty 17 7 0 10 -262144
-1 -1;
#X obj 396 371 bng 15 250 50 0 empty empty empty 17 7 0 10 -262144
-1 -1;
#X obj 330 553 delay 1;
#X floatatom 216 486 5 0 0 0 - - -, f 5;
#X connect 0 0 10 0;
#X connect 1 0 9 0;
#X connect 1 0 14 0;
#X connect 2 0 1 1;
#X connect 2 0 0 0;
#X connect 3 0 1 1;
#X connect 3 0 0 0;
#X connect 4 0 10 1;
#X connect 4 0 20 0;
#X connect 4 0 37 0;
#X connect 5 0 4 0;
#X connect 6 0 12 0;
#X connect 6 0 11 0;
#X connect 6 0 24 0;
#X connect 6 0 35 0;
#X connect 7 0 25 0;
#X connect 8 0 25 0;
#X connect 10 0 1 0;
#X connect 12 0 11 0;
#X connect 13 0 27 0;
#X connect 14 0 15 0;
#X connect 14 1 5 0;
#X connect 14 2 4 0;
#X connect 15 0 4 0;
#X connect 16 0 6 0;
#X connect 20 0 36 0;
#X connect 21 0 3 0;
#X connect 21 1 2 0;
#X connect 21 2 7 0;
#X connect 21 3 8 0;
#X connect 21 4 16 0;
#X connect 21 5 16 1;
#X connect 21 6 16 2;
#X connect 21 7 16 3;
#X connect 21 8 16 4;
#X connect 21 9 16 5;
#X connect 21 10 17 0;
#X connect 21 11 17 1;
#X connect 21 12 18 0;
#X connect 21 13 18 1;
#X connect 21 14 19 0;
#X connect 21 15 19 1;
#X connect 27 0 28 0;
#X connect 27 1 21 0;
#X connect 28 0 26 0;
#X connect 29 0 37 0;
#X connect 30 0 33 0;
#X connect 32 0 31 0;
#X connect 33 0 4 0;
#X connect 36 0 22 0;
#X connect 37 0 23 0;
#X connect 37 0 32 0;
#X connect 37 0 31 0;
