#N canvas 10 126 1809 928 10;
#X obj 245 83 inlet;
#X obj 386 639 outlet;
#X obj 620 533 outlet;
#X msg 353 109 0;
#X msg 354 144 4;
#X obj 245 254 f;
#X obj 245 230 bng 15 250 50 0 empty empty empty 17 7 0 10 -262144
-1 -1;
#X obj 245 277 - 1;
#X obj 245 200 route 0;
#X obj 413 271 f;
#X obj 413 247 bng 15 250 50 0 empty empty empty 17 7 0 10 -262144
-1 -1;
#X obj 413 217 route 4;
#X floatatom 291 344 5 0 0 0 - - -, f 5;
#X obj 245 329 bng 15 250 50 0 empty empty empty 17 7 0 10 -262144
-1 -1;
#X obj 413 456 spigot;
#X obj 413 294 + 1;
#X msg 303 439 1;
#X msg 349 439 0;
#X msg 497 388 0;
#X msg 522 420 1;
#X obj 459 499 spigot;
#X floatatom 497 452 5 0 0 0 - - -, f 5;
#X obj 459 656 bng 15 250 50 0 empty empty empty 17 7 0 10 -262144
-1 -1;
#X obj 459 678 send muteBang;
#X obj 483 630 bng 15 250 50 0 empty empty empty 17 7 0 10 -262144
-1 -1;
#X obj 483 652 clear_part;
#X floatatom 386 540 5 0 0 0 - - -, f 5;
#X obj 340 516 moses 5;
#X obj 386 572 - 4;
#X msg 596 430 1;
#X msg 565 437 0;
#X obj 620 499 spigot;
#X floatatom 620 217 5 0 0 0 - - -, f 5;
#X obj 315 283 loadbang;
#X msg 116 358 set idMenu;
#X obj 116 383 send to_osc;
#X floatatom 565 485 5 0 0 0 - - -, f 5;
#X msg 297 77 3;
#X msg 361 59 6;
#X obj 685 516 bng 15 250 50 0 empty empty empty 17 7 0 10 -262144
-1 -1;
#X obj 596 405 delay 1;
#X obj 814 447 spigot;
#X msg 853 405 1;
#X msg 913 375 0;
#X obj 853 375 delay 1;
#X obj 814 623 bpm_set;
#X msg 814 531 1;
#X msg 853 578 0;
#X obj 892 551 bng 15 250 50 0 empty empty empty 17 7 0 10 -262144
-1 -1;
#X obj 892 659 send playPause;
#X msg 931 558 0;
#X obj 931 611 send Stoped;
#X msg 970 524 1;
#X msg 1009 550 0;
#X obj 970 579 master_set;
#X obj 303 408 moses 3;
#X obj 563 390 bng 15 250 50 0 empty empty empty 17 7 0 10 -262144
-1 -1;
#X obj 1116 444 spigot;
#X text 866 447 Main menu;
#X text 673 537 road to part;
#X text 365 489 Menu Tracks;
#X msg 1155 405 1;
#X msg 1215 375 0;
#X obj 1155 375 delay 1;
#X text 1171 444 RackMenu menu;
#X floatatom 1162 639 5 0 0 0 - - -, f 5;
#X obj 1158 488 bng 15 250 50 0 empty empty empty 17 7 0 10 -262144
-1 -1;
#X obj 1116 532 moses 5;
#X obj 1162 614 - 4;
#X obj 1162 665 send idRack;
#X obj 1274 678 send to_osc;
#X msg 1274 653 set idRack;
#X obj 1275 597 loadbang;
#X msg 1275 622 1;
#X obj 1162 559 moses 9;
#X obj 1328 511 kit_set;
#X msg 1328 484 1;
#X msg 1361 484 0;
#X obj 459 546 route 1 3 2;
#X obj 508 568 bng 15 250 50 0 empty empty empty 17 7 0 10 -262144
-1 -1;
#X obj 508 588 tgl 15 0 empty empty empty 17 7 0 10 -262144 -1 -1 0
1;
#X obj 483 609 spigot;
#X msg 604 603 set switchMode;
#X obj 604 627 send to_osc;
#X obj 1379 560 bng 15 250 50 0 empty empty empty 17 7 0 10 -262144
-1 -1;
#X obj 1379 583 send muteRackBang;
#X obj 1404 486 bng 15 250 50 0 empty empty empty 17 7 0 10 -262144
-1 -1;
#X obj 1404 506 tgl 15 0 empty empty empty 17 7 0 10 -262144 -1 -1
0 1;
#X msg 1404 531 set switchMode;
#X obj 1404 555 send to_osc;
#X obj 1429 486 bng 15 250 50 0 empty empty empty 17 7 0 10 -262144
-1 -1;
#X obj 1429 507 clear_rack;
#X obj 6 358 send idMenu;
#X obj 1330 461 route 14 13 1 2 3 10 9, f 25;
#X msg 1452 607 1;
#X msg 1477 633 0;
#X obj 1452 662 master_rack_set;
#X obj 497 358 route 0 1 2 3 -1;
#X obj 1623 413 spigot;
#X msg 1644 375 0;
#X msg 1682 375 1;
#X obj 814 500 route 14 13 1 2 10 9 5, f 39;
#X msg 1045 525 -1;
#X obj 245 303 moses 0;
#X obj 130 327 receive idM;
#X obj 1045 554 send idM;
#X obj 257 380 moses 0;
#X obj 132 486 route -1;
#X msg 132 515 1;
#X msg 185 515 0;
#X obj 93 549 spigot;
#X msg 93 573 0;
#X obj 93 600 send idM;
#X obj 93 245 delay 1;
#X obj 1623 443 route 4;
#X obj 1623 517 send to_osc;
#X msg 1644 486 set validSave;
#X connect 0 0 8 0;
#X connect 3 0 8 0;
#X connect 4 0 8 0;
#X connect 5 0 7 0;
#X connect 6 0 5 0;
#X connect 6 0 113 0;
#X connect 7 0 103 0;
#X connect 8 0 6 0;
#X connect 8 1 11 0;
#X connect 8 1 32 0;
#X connect 9 0 15 0;
#X connect 10 0 9 0;
#X connect 11 0 10 0;
#X connect 11 1 20 0;
#X connect 12 0 5 1;
#X connect 12 0 9 1;
#X connect 12 0 34 0;
#X connect 12 0 35 0;
#X connect 12 0 92 0;
#X connect 12 0 97 0;
#X connect 12 0 106 0;
#X connect 12 0 107 0;
#X connect 13 0 12 0;
#X connect 14 0 12 0;
#X connect 15 0 14 0;
#X connect 16 0 14 1;
#X connect 17 0 14 1;
#X connect 18 0 21 0;
#X connect 19 0 21 0;
#X connect 19 0 30 0;
#X connect 20 0 27 0;
#X connect 20 0 78 0;
#X connect 21 0 20 1;
#X connect 22 0 23 0;
#X connect 24 0 25 0;
#X connect 26 0 28 0;
#X connect 27 1 26 0;
#X connect 28 0 1 0;
#X connect 29 0 36 0;
#X connect 30 0 36 0;
#X connect 31 0 2 0;
#X connect 31 0 39 0;
#X connect 32 0 31 0;
#X connect 32 0 41 0;
#X connect 32 0 57 0;
#X connect 32 0 98 0;
#X connect 33 0 12 0;
#X connect 34 0 35 0;
#X connect 36 0 31 1;
#X connect 37 0 8 0;
#X connect 38 0 8 0;
#X connect 40 0 29 0;
#X connect 41 0 101 0;
#X connect 42 0 41 1;
#X connect 43 0 41 1;
#X connect 44 0 42 0;
#X connect 46 0 45 0;
#X connect 47 0 45 0;
#X connect 48 0 49 0;
#X connect 50 0 49 0;
#X connect 50 0 51 0;
#X connect 52 0 54 0;
#X connect 53 0 54 0;
#X connect 55 0 16 0;
#X connect 55 1 17 0;
#X connect 56 0 40 0;
#X connect 57 0 66 0;
#X connect 57 0 67 0;
#X connect 57 0 93 0;
#X connect 61 0 57 1;
#X connect 62 0 57 1;
#X connect 63 0 61 0;
#X connect 65 0 69 0;
#X connect 65 0 71 0;
#X connect 65 0 70 0;
#X connect 67 1 74 0;
#X connect 68 0 65 0;
#X connect 71 0 70 0;
#X connect 72 0 73 0;
#X connect 73 0 65 0;
#X connect 74 0 68 0;
#X connect 76 0 75 0;
#X connect 77 0 75 0;
#X connect 78 0 22 0;
#X connect 78 1 81 0;
#X connect 78 2 79 0;
#X connect 79 0 80 0;
#X connect 80 0 81 1;
#X connect 80 0 82 0;
#X connect 80 0 83 0;
#X connect 81 0 24 0;
#X connect 82 0 83 0;
#X connect 84 0 85 0;
#X connect 86 0 87 0;
#X connect 87 0 88 0;
#X connect 87 0 89 0;
#X connect 88 0 89 0;
#X connect 90 0 91 0;
#X connect 93 0 76 0;
#X connect 93 1 77 0;
#X connect 93 2 84 0;
#X connect 93 3 86 0;
#X connect 93 4 90 0;
#X connect 93 5 94 0;
#X connect 93 6 95 0;
#X connect 94 0 96 0;
#X connect 95 0 96 0;
#X connect 97 0 18 0;
#X connect 97 0 44 0;
#X connect 97 0 62 0;
#X connect 97 0 99 0;
#X connect 97 1 43 0;
#X connect 97 1 18 0;
#X connect 97 1 63 0;
#X connect 97 2 19 0;
#X connect 97 2 62 0;
#X connect 97 3 56 0;
#X connect 97 3 18 0;
#X connect 97 4 100 0;
#X connect 97 4 43 0;
#X connect 98 0 114 0;
#X connect 99 0 98 1;
#X connect 100 0 98 1;
#X connect 101 0 46 0;
#X connect 101 1 47 0;
#X connect 101 2 48 0;
#X connect 101 3 50 0;
#X connect 101 4 52 0;
#X connect 101 5 53 0;
#X connect 101 6 102 0;
#X connect 102 0 105 0;
#X connect 103 0 13 0;
#X connect 103 1 12 0;
#X connect 104 0 12 0;
#X connect 106 0 17 0;
#X connect 106 1 55 0;
#X connect 107 0 108 0;
#X connect 107 1 109 0;
#X connect 108 0 110 1;
#X connect 109 0 110 1;
#X connect 110 0 111 0;
#X connect 111 0 112 0;
#X connect 113 0 110 0;
#X connect 114 0 116 0;
#X connect 114 0 115 0;
#X connect 116 0 115 0;
