#N canvas 475 388 793 524 10;
#X obj 210 121 bng 15 250 50 0 empty empty empty 17 7 0 10 -262144
-1 -1;
#X obj 210 201 +;
#X msg 255 127 1;
#X msg 243 104 -1;
#X floatatom 210 324 5 0 0 0 - - -, f 5;
#X obj 210 242 route 0 5;
#X msg 210 270 4;
#X msg 240 270 1;
#X obj 210 367 outlet;
#X obj 384 142 centrale_de_tri_key_to_pas;
#X floatatom 384 174 5 0 0 0 - - -, f 5;
#X msg 310 264 1;
#X msg 347 264 0;
#X obj 384 396 outlet;
#X obj 586 281 outlet;
#X text 189 394 id_instru;
#X text 637 280 velocite;
#X text 435 396 id_pas;
#X floatatom 162 217 5 0 0 0 - - -, f 5;
#X obj 210 145 1;
#X obj 278 65 route 1 2 3 4 5 6 7 8 9 10 11 12 13 14 15 16;
#X floatatom 60 310 5 0 0 0 - - -, f 5;
#X obj 422 212 send to_osc;
#X msg 422 188 set idPas;
#X obj 278 28 inlet;
#X obj 60 153 inlet;
#X connect 0 0 19 0;
#X connect 1 0 5 0;
#X connect 1 0 18 0;
#X connect 2 0 1 1;
#X connect 2 0 0 0;
#X connect 3 0 1 1;
#X connect 3 0 0 0;
#X connect 4 0 8 0;
#X connect 4 0 19 1;
#X connect 5 0 6 0;
#X connect 5 1 7 0;
#X connect 5 2 4 0;
#X connect 6 0 4 0;
#X connect 7 0 4 0;
#X connect 9 0 10 0;
#X connect 10 0 13 0;
#X connect 10 0 23 0;
#X connect 10 0 22 0;
#X connect 11 0 14 0;
#X connect 12 0 14 0;
#X connect 19 0 1 0;
#X connect 20 0 3 0;
#X connect 20 1 2 0;
#X connect 20 2 11 0;
#X connect 20 3 12 0;
#X connect 20 4 9 0;
#X connect 20 5 9 1;
#X connect 20 6 9 2;
#X connect 20 7 9 3;
#X connect 20 8 9 4;
#X connect 20 9 9 5;
#X connect 20 10 9 6;
#X connect 20 11 9 7;
#X connect 20 12 9 8;
#X connect 20 13 9 9;
#X connect 20 14 9 10;
#X connect 20 15 9 11;
#X connect 21 0 4 0;
#X connect 23 0 22 0;
#X connect 24 0 20 0;
#X connect 25 0 21 0;
