#N canvas 2 127 256 300 10;
#X obj 88 164 send to_osc;
#X msg 109 133 set validLoad;
#X obj 58 57 inlet;
#X obj 58 90 route 0 4;
#X msg 58 198 0;
#X obj 58 231 send idM;
#X connect 1 0 0 0;
#X connect 2 0 3 0;
#X connect 3 0 4 0;
#X connect 3 1 1 0;
#X connect 3 1 0 0;
#X connect 4 0 5 0;
