#N canvas 2 71 1265 953 10;
#X obj 245 83 inlet;
#X obj 386 639 outlet;
#X obj 620 533 outlet;
#X msg 353 109 0;
#X msg 354 144 4;
#X obj 245 254 f;
#X obj 245 230 bng 15 250 50 0 empty empty empty 17 7 0 10 -262144
-1 -1;
#X obj 245 277 - 1;
#X obj 245 200 route 0;
#X obj 413 271 f;
#X obj 413 247 bng 15 250 50 0 empty empty empty 17 7 0 10 -262144
-1 -1;
#X obj 413 217 route 4;
#X obj 245 303 moses 0;
#X floatatom 291 344 5 0 0 0 - - -, f 5;
#X obj 245 329 bng 15 250 50 0 empty empty empty 17 7 0 10 -262144
-1 -1;
#X obj 413 414 spigot;
#X obj 413 294 + 1;
#X msg 291 397 1;
#X msg 337 397 0;
#X obj 291 366 moses 2;
#X obj 498 358 route 0 1 2;
#X msg 498 388 0;
#X msg 547 388 0;
#X msg 522 420 1;
#X obj 459 499 spigot;
#X floatatom 498 452 5 0 0 0 - - -, f 5;
#X obj 459 546 route 1 3;
#X obj 459 594 bng 15 250 50 0 empty empty empty 17 7 0 10 -262144
-1 -1;
#X obj 459 616 send muteBang;
#X obj 489 568 bng 15 250 50 0 empty empty empty 17 7 0 10 -262144
-1 -1;
#X obj 489 590 clear_part;
#X floatatom 386 540 5 0 0 0 - - -, f 5;
#X obj 340 516 moses 5;
#X obj 386 572 - 4;
#X msg 596 430 1;
#X msg 565 437 0;
#X obj 620 499 spigot;
#X floatatom 620 217 5 0 0 0 - - -, f 5;
#X obj 315 283 loadbang;
#X msg 116 381 set idMenu;
#X obj 116 406 send to_osc;
#X floatatom 565 485 5 0 0 0 - - -, f 5;
#X msg 297 77 3;
#X msg 361 59 6;
#X obj 685 516 bng 15 250 50 0 empty empty empty 17 7 0 10 -262144
-1 -1;
#X obj 596 405 delay 1;
#X obj 818 529 spigot;
#X msg 857 405 1;
#X msg 917 375 0;
#X obj 857 375 delay 1;
#X obj 818 705 bpm_set;
#X msg 818 613 1;
#X msg 846 660 0;
#X obj 875 633 bng 15 250 50 0 empty empty empty 17 7 0 10 -262144
-1 -1;
#X obj 875 741 send playPause;
#X msg 904 637 0;
#X obj 904 690 send Stoped;
#X obj 818 582 route 12 16 1 2 11 15, f 25;
#X msg 932 607 1;
#X msg 961 633 0;
#X obj 932 662 mesures_set;
#X connect 0 0 8 0;
#X connect 3 0 8 0;
#X connect 4 0 8 0;
#X connect 5 0 7 0;
#X connect 6 0 5 0;
#X connect 7 0 12 0;
#X connect 8 0 6 0;
#X connect 8 1 11 0;
#X connect 8 1 37 0;
#X connect 9 0 16 0;
#X connect 10 0 9 0;
#X connect 11 0 10 0;
#X connect 11 1 24 0;
#X connect 12 0 14 0;
#X connect 12 1 13 0;
#X connect 13 0 5 1;
#X connect 13 0 9 1;
#X connect 13 0 19 0;
#X connect 13 0 20 0;
#X connect 13 0 39 0;
#X connect 13 0 40 0;
#X connect 14 0 13 0;
#X connect 15 0 13 0;
#X connect 16 0 15 0;
#X connect 17 0 15 1;
#X connect 18 0 15 1;
#X connect 19 0 17 0;
#X connect 19 1 18 0;
#X connect 20 0 21 0;
#X connect 20 0 49 0;
#X connect 20 1 23 0;
#X connect 20 1 48 0;
#X connect 20 2 22 0;
#X connect 21 0 25 0;
#X connect 22 0 25 0;
#X connect 22 0 45 0;
#X connect 23 0 25 0;
#X connect 23 0 35 0;
#X connect 24 0 26 0;
#X connect 24 0 32 0;
#X connect 25 0 24 1;
#X connect 26 0 27 0;
#X connect 26 1 29 0;
#X connect 27 0 28 0;
#X connect 29 0 30 0;
#X connect 31 0 33 0;
#X connect 32 1 31 0;
#X connect 33 0 1 0;
#X connect 34 0 41 0;
#X connect 35 0 41 0;
#X connect 36 0 2 0;
#X connect 36 0 44 0;
#X connect 37 0 36 0;
#X connect 37 0 46 0;
#X connect 38 0 13 0;
#X connect 39 0 40 0;
#X connect 41 0 36 1;
#X connect 42 0 8 0;
#X connect 43 0 8 0;
#X connect 45 0 34 0;
#X connect 46 0 57 0;
#X connect 47 0 46 1;
#X connect 48 0 46 1;
#X connect 49 0 47 0;
#X connect 51 0 50 0;
#X connect 52 0 50 0;
#X connect 53 0 54 0;
#X connect 55 0 54 0;
#X connect 55 0 56 0;
#X connect 57 0 51 0;
#X connect 57 1 52 0;
#X connect 57 2 53 0;
#X connect 57 3 55 0;
#X connect 57 4 58 0;
#X connect 57 5 59 0;
#X connect 58 0 60 0;
#X connect 59 0 60 0;
