#N canvas 92 236 793 524 10;
#X obj 210 121 bng 15 250 50 0 empty empty empty 17 7 0 10 -262144
-1 -1;
#X obj 210 201 +;
#X msg 255 127 1;
#X msg 243 104 -1;
#X floatatom 210 324 5 0 0 0 - - -, f 5;
#X msg 240 270 1;
#X obj 210 367 outlet;
#X floatatom 352 175 5 0 0 0 - - -, f 5;
#X msg 314 264 1;
#X msg 333 264 0;
#X obj 352 397 outlet;
#X obj 586 281 outlet;
#X text 189 394 id_instru;
#X text 637 280 velocite;
#X text 403 397 id_pas;
#X floatatom 162 217 5 0 0 0 - - -, f 5;
#X obj 210 145 1;
#X floatatom 60 310 5 0 0 0 - - -, f 5;
#X obj 390 213 send to_osc;
#X msg 390 189 set idPas;
#X obj 278 28 inlet;
#X obj 60 153 inlet;
#X obj 210 242 route 0 13;
#X msg 210 270 12;
#X obj 352 143 key_to_pas, f 14;
#X obj 464 105 track_vol;
#X obj 505 158 begin_mesure;
#X obj 543 128 lenght_mesure;
#X msg 300 338 0;
#X obj 388 321 receive idRack;
#X obj 277 65 route 1 2 3 4 15 16 11 12 7 8 5 6 13 14 9 10;
#X obj 388 300 receive idMenu;
#X obj 300 463 send resetPas;
#X connect 0 0 16 0;
#X connect 1 0 15 0;
#X connect 1 0 22 0;
#X connect 2 0 1 1;
#X connect 2 0 0 0;
#X connect 3 0 1 1;
#X connect 3 0 0 0;
#X connect 4 0 6 0;
#X connect 4 0 16 1;
#X connect 4 0 28 0;
#X connect 5 0 4 0;
#X connect 7 0 10 0;
#X connect 7 0 19 0;
#X connect 7 0 18 0;
#X connect 8 0 11 0;
#X connect 9 0 11 0;
#X connect 16 0 1 0;
#X connect 17 0 4 0;
#X connect 19 0 18 0;
#X connect 20 0 30 0;
#X connect 21 0 17 0;
#X connect 22 0 23 0;
#X connect 22 1 5 0;
#X connect 22 2 4 0;
#X connect 23 0 4 0;
#X connect 24 0 7 0;
#X connect 28 0 32 0;
#X connect 29 0 28 0;
#X connect 30 0 3 0;
#X connect 30 1 2 0;
#X connect 30 2 8 0;
#X connect 30 3 9 0;
#X connect 30 4 24 0;
#X connect 30 5 24 1;
#X connect 30 6 24 2;
#X connect 30 7 24 3;
#X connect 30 8 24 4;
#X connect 30 9 24 5;
#X connect 30 10 25 0;
#X connect 30 11 25 1;
#X connect 30 12 26 0;
#X connect 30 13 26 1;
#X connect 30 14 27 0;
#X connect 30 15 27 1;
#X connect 31 0 28 0;
