#N canvas 2 73 625 367 10;
#X obj 259 252 bpm_set;
#X msg 259 160 1;
#X msg 297 207 0;
#X obj 336 167 bng 15 250 50 0 empty empty empty 17 7 0 10 -262144
-1 -1;
#X obj 336 275 send playPause;
#X msg 374 192 0;
#X obj 366 245 send Stoped;
#X msg 413 165 1;
#X msg 451 191 0;
#X obj 413 220 master_set;
#X obj 490 218 send debugPush;
#X obj 59 66 inlet;
#X msg 109 129 -1;
#X obj 59 158 send idM;
#X msg 159 129 -2;
#X obj 259 129 route 14 13 1 2 10 9 16, f 39;
#X msg 59 129 1;
#X obj 59 92 route 4 5 6, f 29;
#X connect 1 0 0 0;
#X connect 2 0 0 0;
#X connect 3 0 4 0;
#X connect 5 0 4 0;
#X connect 5 0 6 0;
#X connect 7 0 9 0;
#X connect 8 0 9 0;
#X connect 11 0 17 0;
#X connect 12 0 13 0;
#X connect 14 0 13 0;
#X connect 15 0 1 0;
#X connect 15 1 2 0;
#X connect 15 2 3 0;
#X connect 15 3 5 0;
#X connect 15 4 7 0;
#X connect 15 5 8 0;
#X connect 15 6 10 0;
#X connect 16 0 13 0;
#X connect 17 0 16 0;
#X connect 17 1 12 0;
#X connect 17 2 14 0;
#X connect 17 3 15 0;
