#N canvas 595 143 640 369 10;
#X msg 202 227 1;
#X msg 469 268 set idMenu;
#X obj 469 293 send to_osc;
#X floatatom 469 244 5 0 0 0 - - -, f 5;
#X obj 156 58 route 0;
#X obj 469 178 loadbang;
#X obj 202 164 spigot 1;
#X msg 202 260 0;
#X msg 156 147 1;
#X obj 334 163 spigot 0;
#X obj 273 121 f;
#X msg 387 75 0;
#X floatatom 116 239 5 0 0 0 - - -, f 5;
#X obj 70 215 moses 5;
#X obj 116 271 - 4;
#X obj 226 291 bng 15 250 50 0 empty empty empty 17 7 0 10 -262144
-1 -1;
#X obj 226 322 send muteBang;
#X obj 202 193 route 4 1 3;
#X obj 251 253 bng 15 250 50 0 empty empty empty 17 7 0 10 -262144
-1 -1;
#X obj 251 284 clear_part;
#X obj 156 25 inlet;
#X obj 116 322 outlet;
#X obj 334 322 outlet;
#X connect 0 0 3 0;
#X connect 0 0 9 1;
#X connect 1 0 2 0;
#X connect 3 0 1 0;
#X connect 3 0 2 0;
#X connect 4 0 8 0;
#X connect 4 0 11 0;
#X connect 4 1 10 0;
#X connect 5 0 3 0;
#X connect 6 0 13 0;
#X connect 6 0 17 0;
#X connect 7 0 6 1;
#X connect 8 0 6 1;
#X connect 9 0 22 0;
#X connect 10 0 9 0;
#X connect 10 0 6 0;
#X connect 11 0 9 1;
#X connect 11 0 3 0;
#X connect 12 0 14 0;
#X connect 13 1 12 0;
#X connect 14 0 21 0;
#X connect 15 0 16 0;
#X connect 17 0 0 0;
#X connect 17 0 7 0;
#X connect 17 1 15 0;
#X connect 17 2 18 0;
#X connect 18 0 19 0;
#X connect 20 0 4 0;
