#N canvas 156 97 1461 555 10;
#X obj 49 355 inlet;
#X obj 526 395 menu_tracks;
#X obj 170 394 menu_main;
#X obj 348 394 menu_rack;
#X obj 882 394 menu_save;
#X obj 1060 394 menu_load;
#X msg 298 149 set idMenu;
#X obj 298 174 send to_osc;
#X obj 190 132 f;
#X text 221 133 idMenu;
#X obj 208 32 receive idM;
#X msg 223 248 1;
#X msg 190 248 0;
#X msg 401 248 1;
#X msg 368 248 0;
#X msg 579 248 1;
#X msg 546 248 0;
#X msg 757 248 1;
#X msg 724 248 0;
#X msg 935 248 1;
#X msg 902 248 0;
#X msg 1113 248 1;
#X msg 1080 248 0;
#X obj 190 200 route 0 1 2 3 -1 -2, f 153;
#X obj 190 79 delay 1;
#X obj 190 107 bng 15 250 50 0 empty empty empty 17 7 0 10 -262144
-1 -1;
#X obj 704 396 menu_sequencer;
#X obj 170 372 spigot 1;
#X obj 348 372 spigot 0;
#X obj 526 372 spigot 0;
#X obj 704 372 spigot 0;
#X obj 882 372 spigot 0;
#X obj 1060 372 spigot 0;
#X floatatom 200 182 5 0 0 0 - - -, f 5;
#X obj 263 72 bng 15 250 50 0 empty empty empty 17 7 0 10 -262144 -1
-1;
#X obj 181 300 bng 15 250 50 0 empty empty empty 17 7 0 10 -262144
-1 -1;
#X obj 757 421 send resetPas;
#X obj 1113 453 send to_osc;
#X msg 1113 418 set askSaves;
#X connect 0 0 27 0;
#X connect 0 0 28 0;
#X connect 0 0 29 0;
#X connect 0 0 30 0;
#X connect 0 0 31 0;
#X connect 0 0 32 0;
#X connect 6 0 7 0;
#X connect 8 0 23 0;
#X connect 8 0 6 0;
#X connect 8 0 7 0;
#X connect 8 0 33 0;
#X connect 10 0 8 1;
#X connect 10 0 24 0;
#X connect 10 0 34 0;
#X connect 11 0 27 1;
#X connect 11 0 35 0;
#X connect 12 0 28 1;
#X connect 12 0 31 1;
#X connect 12 0 32 1;
#X connect 13 0 28 1;
#X connect 14 0 27 1;
#X connect 14 0 29 1;
#X connect 15 0 29 1;
#X connect 16 0 28 1;
#X connect 16 0 30 1;
#X connect 17 0 30 1;
#X connect 17 0 36 0;
#X connect 18 0 29 1;
#X connect 19 0 31 1;
#X connect 20 0 27 1;
#X connect 21 0 32 1;
#X connect 21 0 38 0;
#X connect 21 0 37 0;
#X connect 22 0 27 1;
#X connect 23 0 12 0;
#X connect 23 0 11 0;
#X connect 23 1 14 0;
#X connect 23 1 13 0;
#X connect 23 2 16 0;
#X connect 23 2 15 0;
#X connect 23 3 18 0;
#X connect 23 3 17 0;
#X connect 23 4 20 0;
#X connect 23 4 19 0;
#X connect 23 5 22 0;
#X connect 23 5 21 0;
#X connect 24 0 25 0;
#X connect 25 0 8 0;
#X connect 27 0 2 0;
#X connect 28 0 3 0;
#X connect 29 0 1 0;
#X connect 30 0 26 0;
#X connect 31 0 4 0;
#X connect 32 0 5 0;
#X connect 38 0 37 0;
