#N canvas 2 73 767 621 10;
#X floatatom 206 305 5 0 0 0 - - -, f 5;
#X obj 160 198 moses 5;
#X obj 206 280 - 4;
#X obj 206 331 send idRack;
#X obj 318 344 send to_osc;
#X msg 318 319 set idRack;
#X obj 319 263 loadbang;
#X msg 319 288 1;
#X obj 206 225 moses 9;
#X obj 276 131 kit_set;
#X msg 276 104 1;
#X msg 309 104 0;
#X obj 327 180 bng 15 250 50 0 empty empty empty 17 7 0 10 -262144
-1 -1;
#X obj 327 203 send muteRackBang;
#X obj 352 106 bng 15 250 50 0 empty empty empty 17 7 0 10 -262144
-1 -1;
#X obj 352 126 tgl 15 0 empty empty empty 17 7 0 10 -262144 -1 -1 0
1;
#X msg 352 151 set switchMode;
#X obj 352 175 send to_osc;
#X obj 377 106 bng 15 250 50 0 empty empty empty 17 7 0 10 -262144
-1 -1;
#X obj 377 127 clear_rack;
#X obj 278 81 route 14 13 1 2 3 10 9, f 25;
#X msg 400 227 1;
#X msg 425 253 0;
#X obj 400 282 master_rack_set;
#X obj 58 27 inlet;
#X obj 58 130 send idM;
#X msg 58 101 0;
#X msg 109 101 2;
#X obj 58 64 route 0 4, f 15;
#X msg 109 336 1;
#X obj 109 375 send idInstruFrom;
#X connect 0 0 3 0;
#X connect 0 0 5 0;
#X connect 0 0 4 0;
#X connect 1 1 8 0;
#X connect 2 0 0 0;
#X connect 5 0 4 0;
#X connect 6 0 7 0;
#X connect 7 0 0 0;
#X connect 8 0 2 0;
#X connect 10 0 9 0;
#X connect 11 0 9 0;
#X connect 12 0 13 0;
#X connect 14 0 15 0;
#X connect 15 0 16 0;
#X connect 15 0 17 0;
#X connect 16 0 17 0;
#X connect 18 0 19 0;
#X connect 20 0 10 0;
#X connect 20 1 11 0;
#X connect 20 2 12 0;
#X connect 20 3 14 0;
#X connect 20 4 18 0;
#X connect 20 5 21 0;
#X connect 20 6 22 0;
#X connect 21 0 23 0;
#X connect 22 0 23 0;
#X connect 24 0 28 0;
#X connect 26 0 25 0;
#X connect 27 0 25 0;
#X connect 27 0 29 0;
#X connect 28 0 26 0;
#X connect 28 1 27 0;
#X connect 28 2 20 0;
#X connect 28 2 1 0;
#X connect 29 0 30 0;
