#N canvas 14 127 1685 953 10;
#X obj 245 83 inlet;
#X obj 386 639 outlet;
#X obj 620 533 outlet;
#X msg 353 109 0;
#X msg 354 144 4;
#X obj 245 254 f;
#X obj 245 230 bng 15 250 50 0 empty empty empty 17 7 0 10 -262144
-1 -1;
#X obj 245 277 - 1;
#X obj 245 200 route 0;
#X obj 413 271 f;
#X obj 413 247 bng 15 250 50 0 empty empty empty 17 7 0 10 -262144
-1 -1;
#X obj 413 217 route 4;
#X obj 245 303 moses 0;
#X floatatom 291 344 5 0 0 0 - - -, f 5;
#X obj 245 329 bng 15 250 50 0 empty empty empty 17 7 0 10 -262144
-1 -1;
#X obj 413 414 spigot;
#X obj 413 294 + 1;
#X msg 291 397 1;
#X msg 337 397 0;
#X msg 497 388 0;
#X msg 522 420 1;
#X obj 459 499 spigot;
#X floatatom 497 452 5 0 0 0 - - -, f 5;
#X obj 459 546 route 1 3;
#X obj 459 594 bng 15 250 50 0 empty empty empty 17 7 0 10 -262144
-1 -1;
#X obj 459 616 send muteBang;
#X obj 489 568 bng 15 250 50 0 empty empty empty 17 7 0 10 -262144
-1 -1;
#X obj 489 590 clear_part;
#X floatatom 386 540 5 0 0 0 - - -, f 5;
#X obj 340 516 moses 5;
#X obj 386 572 - 4;
#X msg 596 430 1;
#X msg 565 437 0;
#X obj 620 499 spigot;
#X floatatom 620 217 5 0 0 0 - - -, f 5;
#X obj 315 283 loadbang;
#X msg 116 381 set idMenu;
#X obj 116 406 send to_osc;
#X floatatom 565 485 5 0 0 0 - - -, f 5;
#X msg 297 77 3;
#X msg 361 59 6;
#X obj 685 516 bng 15 250 50 0 empty empty empty 17 7 0 10 -262144
-1 -1;
#X obj 596 405 delay 1;
#X obj 814 447 spigot;
#X msg 853 405 1;
#X msg 913 375 0;
#X obj 853 375 delay 1;
#X obj 814 623 bpm_set;
#X msg 814 531 1;
#X msg 842 578 0;
#X obj 872 551 bng 15 250 50 0 empty empty empty 17 7 0 10 -262144
-1 -1;
#X obj 872 659 send playPause;
#X msg 901 555 0;
#X obj 901 608 send Stoped;
#X msg 931 525 1;
#X msg 960 551 0;
#X obj 931 581 mesures_set;
#X msg 989 621 1;
#X msg 1018 647 0;
#X obj 989 676 master_set;
#X obj 291 366 moses 3;
#X obj 497 358 route 0 1 2 3;
#X obj 563 390 bng 15 250 50 0 empty empty empty 17 7 0 10 -262144
-1 -1;
#X obj 1260 444 spigot;
#X text 866 447 Main menu;
#X text 673 537 road to part;
#X text 365 489 Menu Tracks;
#X msg 1299 405 1;
#X msg 1359 375 0;
#X obj 1299 375 delay 1;
#X text 1315 444 RackMenu menu;
#X floatatom 1306 639 5 0 0 0 - - -, f 5;
#X obj 1302 488 bng 15 250 50 0 empty empty empty 17 7 0 10 -262144
-1 -1;
#X obj 1260 532 moses 5;
#X obj 1306 614 - 4;
#X obj 1306 665 send idRack;
#X obj 1418 678 send to_osc;
#X msg 1418 653 set idRack;
#X obj 1419 576 loadbang;
#X msg 1419 601 1;
#X obj 1306 559 moses 9;
#X obj 1472 511 kit_set;
#X msg 1472 484 1;
#X msg 1505 484 0;
#X obj 814 500 route 12 16 1 2 11 15 10 14, f 34;
#X msg 1525 541 1;
#X msg 1554 567 0;
#X obj 1525 597 mesures_rack_set;
#X obj 1472 461 route 9 13 11 15 2, f 20;
#X obj 1581 502 send sync;
#X connect 0 0 8 0;
#X connect 3 0 8 0;
#X connect 4 0 8 0;
#X connect 5 0 7 0;
#X connect 6 0 5 0;
#X connect 7 0 12 0;
#X connect 8 0 6 0;
#X connect 8 1 11 0;
#X connect 8 1 34 0;
#X connect 9 0 16 0;
#X connect 10 0 9 0;
#X connect 11 0 10 0;
#X connect 11 1 21 0;
#X connect 12 0 14 0;
#X connect 12 1 13 0;
#X connect 13 0 5 1;
#X connect 13 0 9 1;
#X connect 13 0 36 0;
#X connect 13 0 37 0;
#X connect 13 0 60 0;
#X connect 13 0 61 0;
#X connect 14 0 13 0;
#X connect 15 0 13 0;
#X connect 16 0 15 0;
#X connect 17 0 15 1;
#X connect 18 0 15 1;
#X connect 19 0 22 0;
#X connect 20 0 22 0;
#X connect 20 0 32 0;
#X connect 21 0 23 0;
#X connect 21 0 29 0;
#X connect 22 0 21 1;
#X connect 23 0 24 0;
#X connect 23 1 26 0;
#X connect 24 0 25 0;
#X connect 26 0 27 0;
#X connect 28 0 30 0;
#X connect 29 1 28 0;
#X connect 30 0 1 0;
#X connect 31 0 38 0;
#X connect 32 0 38 0;
#X connect 33 0 2 0;
#X connect 33 0 41 0;
#X connect 34 0 33 0;
#X connect 34 0 43 0;
#X connect 34 0 63 0;
#X connect 35 0 13 0;
#X connect 36 0 37 0;
#X connect 38 0 33 1;
#X connect 39 0 8 0;
#X connect 40 0 8 0;
#X connect 42 0 31 0;
#X connect 43 0 84 0;
#X connect 44 0 43 1;
#X connect 45 0 43 1;
#X connect 46 0 44 0;
#X connect 48 0 47 0;
#X connect 49 0 47 0;
#X connect 50 0 51 0;
#X connect 52 0 51 0;
#X connect 52 0 53 0;
#X connect 54 0 56 0;
#X connect 55 0 56 0;
#X connect 57 0 59 0;
#X connect 58 0 59 0;
#X connect 60 0 17 0;
#X connect 60 1 18 0;
#X connect 61 0 19 0;
#X connect 61 0 46 0;
#X connect 61 0 68 0;
#X connect 61 1 45 0;
#X connect 61 1 19 0;
#X connect 61 1 69 0;
#X connect 61 2 20 0;
#X connect 61 2 68 0;
#X connect 61 3 62 0;
#X connect 61 3 19 0;
#X connect 62 0 42 0;
#X connect 63 0 72 0;
#X connect 63 0 73 0;
#X connect 63 0 88 0;
#X connect 67 0 63 1;
#X connect 68 0 63 1;
#X connect 69 0 67 0;
#X connect 71 0 75 0;
#X connect 71 0 77 0;
#X connect 71 0 76 0;
#X connect 73 1 80 0;
#X connect 74 0 71 0;
#X connect 77 0 76 0;
#X connect 78 0 79 0;
#X connect 79 0 71 0;
#X connect 80 0 74 0;
#X connect 82 0 81 0;
#X connect 83 0 81 0;
#X connect 84 0 48 0;
#X connect 84 1 49 0;
#X connect 84 2 50 0;
#X connect 84 3 52 0;
#X connect 84 4 54 0;
#X connect 84 5 55 0;
#X connect 84 6 57 0;
#X connect 84 7 58 0;
#X connect 85 0 87 0;
#X connect 86 0 87 0;
#X connect 88 0 82 0;
#X connect 88 1 83 0;
#X connect 88 2 85 0;
#X connect 88 3 86 0;
#X connect 88 4 89 0;
