#N canvas 405 229 718 467 10;
#X obj 88 39 inlet;
#X obj 88 129 + 1;
#X obj 88 391 tabwrite;
#X obj 88 100 unpack f f f f;
#X obj 202 149 route 0 1;
#X obj 165 339 f;
#X obj 101 339 f;
#X obj 101 308 bng 15 250 50 0 empty empty empty 17 7 0 10 -262144
-1 -1;
#X msg 202 179 set %d_begin_mesure;
#X msg 232 204 set %d_end_mesure;
#X obj 88 246 makefilename;
#X msg 88 269 set \$1;
#X obj 388 392 send changeBeginMesure;
#X obj 388 359 send changeEndMesure;
#X obj 252 336 delay 1;
#X obj 388 332 pack f f f;
#X connect 0 0 3 0;
#X connect 1 0 10 0;
#X connect 3 0 1 0;
#X connect 3 1 6 1;
#X connect 3 2 4 0;
#X connect 3 3 5 1;
#X connect 4 0 8 0;
#X connect 4 1 9 0;
#X connect 5 0 2 0;
#X connect 6 0 2 1;
#X connect 7 0 6 0;
#X connect 7 0 5 0;
#X connect 7 0 14 0;
#X connect 8 0 10 0;
#X connect 9 0 10 0;
#X connect 10 0 11 0;
#X connect 11 0 2 0;
#X connect 11 0 7 0;
#X connect 15 0 13 0;
