#N canvas 613 383 452 337 10;
#X obj 81 49 inlet;
#X obj 81 75 route 0 1;
#X obj 81 106 f;
#X obj 81 136 - 1;
#X obj 111 106 f;
#X obj 111 136 + 1;
#X text 136 49 message + - (0 ou 1) from Menu_1;
#X text 247 136 nombre de mesure actuel;
#X obj 81 168 moses 1;
#X msg 81 194 1;
#X floatatom 127 261 5 0 0 0 - - -, f 5;
#X obj 127 194 moses 16;
#X msg 180 223 16;
#X obj 218 89 receive nbRackMesures;
#X obj 127 287 send newRackMesures;
#X msg 285 245 set nbRackesures;
#X obj 285 275 send to_osc;
#X connect 0 0 1 0;
#X connect 1 0 2 0;
#X connect 1 1 4 0;
#X connect 2 0 3 0;
#X connect 3 0 8 0;
#X connect 4 0 5 0;
#X connect 5 0 8 0;
#X connect 8 0 9 0;
#X connect 8 1 11 0;
#X connect 9 0 10 0;
#X connect 10 0 14 0;
#X connect 10 0 15 0;
#X connect 10 0 16 0;
#X connect 11 0 10 0;
#X connect 11 1 12 0;
#X connect 12 0 10 0;
#X connect 13 0 4 1;
#X connect 13 0 2 1;
#X connect 15 0 16 0;
