#N canvas 2 73 1281 666 10;
#X obj 50 310 inlet~;
#X obj 100 310 inlet~;
#X obj 149 310 inlet~;
#X obj 198 310 inlet~;
#X obj 50 350 *~ 1;
#X obj 49 545 outlet~;
#X obj 99 365 *~ 1;
#X obj 148 382 *~ 1;
#X obj 197 398 *~ 1;
#X obj 789 159 f;
#X obj 789 99 receive muteBang;
#X obj 763 116 bng 15 250 50 0 empty empty empty 17 7 0 10 -262144
-1 -1;
#X floatatom 818 144 5 0 0 0 - - -, f 5;
#X obj 789 335 tgl 15 0 empty empty empty 17 7 0 10 -262144 -1 -1 0
1;
#X obj 812 351 tgl 15 0 empty empty empty 17 7 0 10 -262144 -1 -1 1
1;
#X obj 836 367 tgl 15 0 empty empty empty 17 7 0 10 -262144 -1 -1 1
1;
#X obj 860 383 tgl 15 0 empty empty empty 17 7 0 10 -262144 -1 -1 1
1;
#X obj 897 200 send to_osc;
#X msg 897 176 set muteId;
#X obj 1100 318 loadbang;
#X obj 807 122 receive idInstru;
#X obj 247 310 inlet~;
#X obj 297 310 inlet~;
#X obj 346 310 inlet~;
#X obj 395 310 inlet~;
#X obj 247 415 *~ 1;
#X obj 296 430 *~ 1;
#X obj 345 447 *~ 1;
#X obj 394 463 *~ 1;
#X obj 445 310 inlet~;
#X obj 495 310 inlet~;
#X obj 544 310 inlet~;
#X obj 593 310 inlet~;
#X obj 445 480 *~ 1;
#X obj 494 495 *~ 1;
#X obj 543 512 *~ 1;
#X obj 592 528 *~ 1;
#X obj 789 239 select 1 2 3 4 5 6 7 8 9 10 11 12, f 41;
#X obj 883 400 tgl 15 0 empty empty empty 17 7 0 10 -262144 -1 -1 1
1;
#X obj 906 415 tgl 15 0 empty empty empty 17 7 0 10 -262144 -1 -1 1
1;
#X obj 930 432 tgl 15 0 empty empty empty 17 7 0 10 -262144 -1 -1 1
1;
#X obj 954 448 tgl 15 0 empty empty empty 17 7 0 10 -262144 -1 -1 1
1;
#X obj 978 465 tgl 15 0 empty empty empty 17 7 0 10 -262144 -1 -1 1
1;
#X obj 1001 480 tgl 15 0 empty empty empty 17 7 0 10 -262144 -1 -1
1 1;
#X obj 1025 497 tgl 15 0 empty empty empty 17 7 0 10 -262144 -1 -1
1 1;
#X obj 1049 513 tgl 15 0 empty empty empty 17 7 0 10 -262144 -1 -1
1 1;
#X msg 647 185 1;
#X msg 700 185 0;
#X obj 789 202 spigot;
#X floatatom 511 164 5 0 0 0 - - -, f 5;
#X obj 511 138 receive idRack;
#X obj 647 155 route \$1;
#X connect 0 0 4 0;
#X connect 1 0 6 0;
#X connect 2 0 7 0;
#X connect 3 0 8 0;
#X connect 4 0 5 0;
#X connect 6 0 5 0;
#X connect 7 0 5 0;
#X connect 8 0 5 0;
#X connect 9 0 48 0;
#X connect 10 0 9 0;
#X connect 10 0 11 0;
#X connect 13 0 4 1;
#X connect 14 0 6 1;
#X connect 15 0 7 1;
#X connect 16 0 8 1;
#X connect 18 0 17 0;
#X connect 19 0 13 0;
#X connect 19 0 14 0;
#X connect 19 0 15 0;
#X connect 19 0 16 0;
#X connect 19 0 38 0;
#X connect 19 0 39 0;
#X connect 19 0 40 0;
#X connect 19 0 41 0;
#X connect 19 0 42 0;
#X connect 19 0 43 0;
#X connect 19 0 44 0;
#X connect 19 0 45 0;
#X connect 20 0 9 1;
#X connect 20 0 12 0;
#X connect 21 0 25 0;
#X connect 22 0 26 0;
#X connect 23 0 27 0;
#X connect 24 0 28 0;
#X connect 25 0 5 0;
#X connect 26 0 5 0;
#X connect 27 0 5 0;
#X connect 28 0 5 0;
#X connect 29 0 33 0;
#X connect 30 0 34 0;
#X connect 31 0 35 0;
#X connect 32 0 36 0;
#X connect 33 0 5 0;
#X connect 34 0 5 0;
#X connect 35 0 5 0;
#X connect 36 0 5 0;
#X connect 37 0 13 0;
#X connect 37 1 14 0;
#X connect 37 2 15 0;
#X connect 37 3 16 0;
#X connect 37 4 38 0;
#X connect 37 5 39 0;
#X connect 37 6 40 0;
#X connect 37 7 41 0;
#X connect 37 8 42 0;
#X connect 37 9 43 0;
#X connect 37 10 44 0;
#X connect 37 11 45 0;
#X connect 38 0 25 1;
#X connect 39 0 26 1;
#X connect 40 0 27 1;
#X connect 41 0 28 1;
#X connect 42 0 33 1;
#X connect 43 0 34 1;
#X connect 44 0 35 1;
#X connect 45 0 36 1;
#X connect 46 0 48 1;
#X connect 47 0 48 1;
#X connect 48 0 37 0;
#X connect 48 0 18 0;
#X connect 48 0 17 0;
#X connect 50 0 49 0;
#X connect 50 0 51 0;
#X connect 51 0 46 0;
#X connect 51 1 47 0;
