#N canvas 2 71 1009 697 10;
#X obj 50 310 inlet~;
#X obj 100 310 inlet~;
#X obj 149 310 inlet~;
#X obj 198 310 inlet~;
#X obj 50 350 *~ 1;
#X obj 49 545 outlet~;
#X obj 99 365 *~ 1;
#X obj 148 382 *~ 1;
#X obj 197 398 *~ 1;
#X obj 337 159 f;
#X obj 311 116 bng 15 250 50 0 empty empty empty 17 7 0 10 -262144
-1 -1;
#X floatatom 366 144 5 0 0 0 - - -, f 5;
#X obj 337 335 tgl 15 0 empty empty empty 17 7 0 10 -262144 -1 -1 1
1;
#X obj 360 351 tgl 15 0 empty empty empty 17 7 0 10 -262144 -1 -1 1
1;
#X obj 384 367 tgl 15 0 empty empty empty 17 7 0 10 -262144 -1 -1 1
1;
#X obj 408 383 tgl 15 0 empty empty empty 17 7 0 10 -262144 -1 -1 1
1;
#X obj 444 200 send to_osc;
#X obj 648 318 loadbang;
#X obj 337 238 select 1 2 3 4;
#X obj 337 99 receive muteRackBang;
#X obj 355 122 receive idRack;
#X msg 444 176 set muteRackId;
#X connect 0 0 4 0;
#X connect 1 0 6 0;
#X connect 2 0 7 0;
#X connect 3 0 8 0;
#X connect 4 0 5 0;
#X connect 6 0 5 0;
#X connect 7 0 5 0;
#X connect 8 0 5 0;
#X connect 9 0 21 0;
#X connect 9 0 16 0;
#X connect 9 0 18 0;
#X connect 12 0 4 1;
#X connect 13 0 6 1;
#X connect 14 0 7 1;
#X connect 15 0 8 1;
#X connect 17 0 12 0;
#X connect 17 0 13 0;
#X connect 17 0 14 0;
#X connect 17 0 15 0;
#X connect 18 0 12 0;
#X connect 18 1 13 0;
#X connect 18 2 14 0;
#X connect 18 3 15 0;
#X connect 19 0 9 0;
#X connect 19 0 10 0;
#X connect 20 0 9 1;
#X connect 20 0 11 0;
#X connect 21 0 16 0;
