#N canvas 23 102 994 766 10;
#X obj 172 32 this_is_a_masta_key_selector;
#X obj 282 426 bng 15 250 50 0 empty empty empty 17 7 0 10 -262144
-1 -1;
#X obj 282 506 +;
#X msg 327 432 1;
#X msg 315 409 -1;
#X floatatom 282 629 5 0 0 0 - - -, f 5;
#X obj 282 547 route 0 5;
#X msg 282 575 4;
#X msg 312 575 1;
#X obj 282 672 outlet;
#X obj 456 447 centrale_de_tri_key_to_pas;
#X floatatom 456 479 5 0 0 0 - - -, f 5;
#X msg 382 569 1;
#X msg 419 569 0;
#X obj 456 701 outlet;
#X obj 658 586 outlet;
#X text 261 699 id_instru;
#X text 709 585 velocite;
#X text 507 701 id_pas;
#X floatatom 234 522 5 0 0 0 - - -, f 5;
#X obj 282 450 1;
#X obj 350 370 route 1 2 3 4 5 6 7 8 9 10 11 12 13 14 15 16;
#X msg 218 241 1;
#X msg 485 282 set idMenu;
#X obj 485 307 send to_osc;
#X floatatom 485 258 5 0 0 0 - - -, f 5;
#X obj 172 72 route 0;
#X obj 485 192 loadbang;
#X obj 218 178 spigot 1;
#X msg 218 274 0;
#X msg 172 161 1;
#X obj 350 177 spigot 0;
#X obj 289 135 f;
#X msg 403 89 0;
#X floatatom 132 253 5 0 0 0 - - -, f 5;
#X floatatom 132 615 5 0 0 0 - - -, f 5;
#X obj 86 229 moses 5;
#X obj 132 285 - 4;
#X obj 242 305 bng 15 250 50 0 empty empty empty 17 7 0 10 -262144
-1 -1;
#X obj 494 517 send to_osc;
#X msg 494 493 set idPas;
#X obj 242 336 send muteBang;
#X obj 218 207 route 4 1 3;
#X obj 267 267 bng 15 250 50 0 empty empty empty 17 7 0 10 -262144
-1 -1;
#X obj 267 298 clear_part;
#X connect 0 0 26 0;
#X connect 1 0 20 0;
#X connect 2 0 6 0;
#X connect 2 0 19 0;
#X connect 3 0 2 1;
#X connect 3 0 1 0;
#X connect 4 0 2 1;
#X connect 4 0 1 0;
#X connect 5 0 9 0;
#X connect 5 0 20 1;
#X connect 6 0 7 0;
#X connect 6 1 8 0;
#X connect 6 2 5 0;
#X connect 7 0 5 0;
#X connect 8 0 5 0;
#X connect 10 0 11 0;
#X connect 11 0 14 0;
#X connect 11 0 40 0;
#X connect 11 0 39 0;
#X connect 12 0 15 0;
#X connect 13 0 15 0;
#X connect 20 0 2 0;
#X connect 21 0 4 0;
#X connect 21 1 3 0;
#X connect 21 2 12 0;
#X connect 21 3 13 0;
#X connect 21 4 10 0;
#X connect 21 5 10 1;
#X connect 21 6 10 2;
#X connect 21 7 10 3;
#X connect 21 8 10 4;
#X connect 21 9 10 5;
#X connect 21 10 10 6;
#X connect 21 11 10 7;
#X connect 21 12 10 8;
#X connect 21 13 10 9;
#X connect 21 14 10 10;
#X connect 21 15 10 11;
#X connect 22 0 25 0;
#X connect 22 0 31 1;
#X connect 23 0 24 0;
#X connect 25 0 23 0;
#X connect 25 0 24 0;
#X connect 26 0 30 0;
#X connect 26 0 33 0;
#X connect 26 1 32 0;
#X connect 27 0 25 0;
#X connect 28 0 36 0;
#X connect 28 0 42 0;
#X connect 29 0 28 1;
#X connect 30 0 28 1;
#X connect 31 0 21 0;
#X connect 32 0 31 0;
#X connect 32 0 28 0;
#X connect 33 0 31 1;
#X connect 33 0 25 0;
#X connect 34 0 37 0;
#X connect 35 0 5 0;
#X connect 36 1 34 0;
#X connect 37 0 35 0;
#X connect 38 0 41 0;
#X connect 40 0 39 0;
#X connect 42 0 22 0;
#X connect 42 0 29 0;
#X connect 42 1 38 0;
#X connect 42 2 43 0;
#X connect 43 0 44 0;
