#N canvas 17 133 769 459 10;
#X obj 171 391 outlet~;
#X obj 205 174 unpack f f f;
#X obj 172 295 mute_box 1, f 16;
#X obj 172 218 partition 1, f 16;
#X obj 172 267 audioplayers 1, f 16;
#X obj 59 201 inlet;
#X obj 330 174 unpack f f f;
#X obj 456 174 unpack f f f;
#X obj 583 174 unpack f f f;
#X obj 297 267 audioplayers 2, f 16;
#X obj 423 267 audioplayers 3, f 16;
#X obj 550 267 audioplayers 4, f 16;
#X obj 297 295 mute_box 2, f 16;
#X obj 423 295 mute_box 3, f 16;
#X obj 550 295 mute_box 4, f 16;
#X obj 205 35 inlet;
#X obj 205 103 route 1 2 3 4;
#X obj 48 52 print partition;
#X obj 297 218 partition 2, f 16;
#X obj 423 218 partition 3, f 16;
#X obj 550 218 partition 4, f 16;
#X connect 1 0 3 1;
#X connect 1 1 3 2;
#X connect 1 2 3 3;
#X connect 2 0 0 0;
#X connect 3 0 4 0;
#X connect 3 1 4 1;
#X connect 3 2 4 2;
#X connect 3 3 4 3;
#X connect 3 4 4 4;
#X connect 3 5 4 5;
#X connect 3 6 4 6;
#X connect 3 7 4 7;
#X connect 3 8 4 8;
#X connect 3 9 4 9;
#X connect 3 10 4 10;
#X connect 3 11 4 11;
#X connect 4 0 2 0;
#X connect 4 1 2 1;
#X connect 4 2 2 2;
#X connect 4 3 2 3;
#X connect 4 4 2 4;
#X connect 4 5 2 5;
#X connect 4 6 2 6;
#X connect 4 7 2 7;
#X connect 4 8 2 8;
#X connect 4 9 2 9;
#X connect 4 10 2 10;
#X connect 4 11 2 11;
#X connect 5 0 18 0;
#X connect 5 0 19 0;
#X connect 5 0 20 0;
#X connect 5 0 3 0;
#X connect 6 0 18 1;
#X connect 6 1 18 2;
#X connect 6 2 18 3;
#X connect 7 0 19 1;
#X connect 7 1 19 2;
#X connect 7 2 19 3;
#X connect 8 0 20 1;
#X connect 8 1 20 2;
#X connect 8 2 20 3;
#X connect 9 0 12 0;
#X connect 9 1 12 1;
#X connect 9 2 12 2;
#X connect 9 3 12 3;
#X connect 9 4 12 4;
#X connect 9 5 12 5;
#X connect 9 6 12 6;
#X connect 9 7 12 7;
#X connect 9 8 12 8;
#X connect 9 9 12 9;
#X connect 9 10 12 10;
#X connect 9 11 12 11;
#X connect 10 0 13 0;
#X connect 10 1 13 1;
#X connect 10 2 13 2;
#X connect 10 3 13 3;
#X connect 10 4 13 4;
#X connect 10 5 13 5;
#X connect 10 6 13 6;
#X connect 10 7 13 7;
#X connect 10 8 13 8;
#X connect 10 9 13 9;
#X connect 10 10 13 10;
#X connect 10 11 13 11;
#X connect 11 0 14 0;
#X connect 11 1 14 1;
#X connect 11 2 14 2;
#X connect 11 3 14 3;
#X connect 11 4 14 4;
#X connect 11 5 14 5;
#X connect 11 6 14 6;
#X connect 11 7 14 7;
#X connect 11 8 14 8;
#X connect 11 9 14 9;
#X connect 11 10 14 10;
#X connect 11 11 14 11;
#X connect 12 0 0 0;
#X connect 13 0 0 0;
#X connect 14 0 0 0;
#X connect 15 0 16 0;
#X connect 15 0 17 0;
#X connect 16 0 1 0;
#X connect 16 1 6 0;
#X connect 16 2 7 0;
#X connect 16 3 8 0;
#X connect 18 0 9 0;
#X connect 18 1 9 1;
#X connect 18 2 9 2;
#X connect 18 3 9 3;
#X connect 18 4 9 4;
#X connect 18 5 9 5;
#X connect 18 6 9 6;
#X connect 18 7 9 7;
#X connect 18 8 9 8;
#X connect 18 9 9 9;
#X connect 18 10 9 10;
#X connect 18 11 9 11;
#X connect 19 0 10 0;
#X connect 19 1 10 1;
#X connect 19 2 10 2;
#X connect 19 3 10 3;
#X connect 19 4 10 4;
#X connect 19 5 10 5;
#X connect 19 6 10 6;
#X connect 19 7 10 7;
#X connect 19 8 10 8;
#X connect 19 9 10 9;
#X connect 19 10 10 10;
#X connect 19 11 10 11;
#X connect 20 0 11 0;
#X connect 20 1 11 1;
#X connect 20 2 11 2;
#X connect 20 3 11 3;
#X connect 20 4 11 4;
#X connect 20 5 11 5;
#X connect 20 6 11 6;
#X connect 20 7 11 7;
#X connect 20 8 11 8;
#X connect 20 9 11 9;
#X connect 20 10 11 10;
#X connect 20 11 11 11;
