#N canvas 13 133 769 459 10;
#X obj 171 396 outlet~;
#X obj 205 174 unpack f f f;
#X obj 172 295 mute_box 1, f 16;
#X obj 172 218 partition 1, f 16;
#X obj 172 267 audioplayers 1, f 16;
#X obj 59 201 inlet;
#X obj 330 174 unpack f f f;
#X obj 456 174 unpack f f f;
#X obj 583 174 unpack f f f;
#X obj 297 295 mute_box 2, f 16;
#X obj 423 295 mute_box 3, f 16;
#X obj 550 295 mute_box 4, f 16;
#X obj 205 35 inlet;
#X obj 205 103 route 1 2 3 4;
#X obj 48 52 print partition;
#X obj 171 362 mute_rack, f 55;
#X obj 297 218 partition 2, f 16;
#X obj 423 218 partition 3, f 16;
#X obj 550 218 partition 4, f 16;
#N canvas 0 50 450 250 (subpatch) 0;
#X array rack_master 4 float 3;
#A 0 0.5 0.5 0.5 0.5;
#X coords 0 0 4 1 20 10 1 0 0;
#X restore 55 286 graph;
#X msg 30 343 \; rack_master 0 0.5 0.5 0.5 0.5, f 11;
#X obj 30 312 loadbang;
#X obj 297 267 audioplayers 2, f 16;
#X obj 423 267 audioplayers 3, f 16;
#X obj 550 267 audioplayers 4, f 16;
#X obj 172 329 rack_master 1;
#X obj 297 329 rack_master 2;
#X obj 424 329 rack_master 3;
#X obj 549 329 rack_master 4;
#X connect 1 0 3 1;
#X connect 1 1 3 2;
#X connect 1 2 3 3;
#X connect 2 0 25 0;
#X connect 3 0 4 0;
#X connect 3 1 4 1;
#X connect 3 2 4 2;
#X connect 3 3 4 3;
#X connect 3 4 4 4;
#X connect 3 5 4 5;
#X connect 3 6 4 6;
#X connect 3 7 4 7;
#X connect 3 8 4 8;
#X connect 3 9 4 9;
#X connect 3 10 4 10;
#X connect 3 11 4 11;
#X connect 4 0 2 0;
#X connect 4 1 2 1;
#X connect 4 2 2 2;
#X connect 4 3 2 3;
#X connect 4 4 2 4;
#X connect 4 5 2 5;
#X connect 4 6 2 6;
#X connect 4 7 2 7;
#X connect 4 8 2 8;
#X connect 4 9 2 9;
#X connect 4 10 2 10;
#X connect 4 11 2 11;
#X connect 5 0 3 0;
#X connect 5 0 16 0;
#X connect 5 0 17 0;
#X connect 5 0 18 0;
#X connect 6 0 16 1;
#X connect 6 1 16 2;
#X connect 6 2 16 3;
#X connect 7 0 17 1;
#X connect 7 1 17 2;
#X connect 7 2 17 3;
#X connect 8 0 18 1;
#X connect 8 1 18 2;
#X connect 8 2 18 3;
#X connect 9 0 26 0;
#X connect 10 0 27 0;
#X connect 11 0 28 0;
#X connect 12 0 13 0;
#X connect 12 0 14 0;
#X connect 13 0 1 0;
#X connect 13 1 6 0;
#X connect 13 2 7 0;
#X connect 13 3 8 0;
#X connect 15 0 0 0;
#X connect 16 0 22 0;
#X connect 16 1 22 1;
#X connect 16 2 22 2;
#X connect 16 3 22 3;
#X connect 16 4 22 4;
#X connect 16 5 22 5;
#X connect 16 6 22 6;
#X connect 16 7 22 7;
#X connect 16 8 22 8;
#X connect 16 9 22 9;
#X connect 16 10 22 10;
#X connect 16 11 22 11;
#X connect 17 0 23 0;
#X connect 17 1 23 1;
#X connect 17 2 23 2;
#X connect 17 3 23 3;
#X connect 17 4 23 4;
#X connect 17 5 23 5;
#X connect 17 6 23 6;
#X connect 17 7 23 7;
#X connect 17 8 23 8;
#X connect 17 9 23 9;
#X connect 17 10 23 10;
#X connect 17 11 23 11;
#X connect 18 0 24 0;
#X connect 18 1 24 1;
#X connect 18 2 24 2;
#X connect 18 3 24 3;
#X connect 18 4 24 4;
#X connect 18 5 24 5;
#X connect 18 6 24 6;
#X connect 18 7 24 7;
#X connect 18 8 24 8;
#X connect 18 9 24 9;
#X connect 18 10 24 10;
#X connect 18 11 24 11;
#X connect 21 0 20 0;
#X connect 22 0 9 0;
#X connect 22 1 9 1;
#X connect 22 2 9 2;
#X connect 22 3 9 3;
#X connect 22 4 9 4;
#X connect 22 5 9 5;
#X connect 22 6 9 6;
#X connect 22 7 9 7;
#X connect 22 8 9 8;
#X connect 22 9 9 9;
#X connect 22 10 9 10;
#X connect 22 11 9 11;
#X connect 23 0 10 0;
#X connect 23 1 10 1;
#X connect 23 2 10 2;
#X connect 23 3 10 3;
#X connect 23 4 10 4;
#X connect 23 5 10 5;
#X connect 23 6 10 6;
#X connect 23 7 10 7;
#X connect 23 8 10 8;
#X connect 23 9 10 9;
#X connect 23 10 10 10;
#X connect 23 11 10 11;
#X connect 24 0 11 0;
#X connect 24 1 11 1;
#X connect 24 2 11 2;
#X connect 24 3 11 3;
#X connect 24 4 11 4;
#X connect 24 5 11 5;
#X connect 24 6 11 6;
#X connect 24 7 11 7;
#X connect 24 8 11 8;
#X connect 24 9 11 9;
#X connect 24 10 11 10;
#X connect 24 11 11 11;
#X connect 25 0 15 0;
#X connect 26 0 15 1;
#X connect 27 0 15 2;
#X connect 28 0 15 3;
