#N canvas 0 56 1280 703 10;
#X obj 171 391 outlet~;
#X obj 57 200 inlet;
#X obj 208 72 inlet;
#X obj 208 187 unpack f f f;
#X obj 172 295 mute_box 1, f 16;
#X obj 172 218 partition 1, f 16;
#X obj 335 187 unpack f f f;
#X obj 462 187 unpack f f f;
#X obj 589 187 unpack f f f;
#X obj 715 187 unpack f f f;
#X obj 842 187 unpack f f f;
#X obj 299 218 partition 2, f 16;
#X obj 426 218 partition 3, f 16;
#X obj 553 218 partition 4, f 16;
#X obj 679 218 partition 5, f 16;
#X obj 806 218 partition 6, f 16;
#X obj 299 295 mute_box 2, f 16;
#X obj 426 295 mute_box 3, f 16;
#X obj 553 295 mute_box 4, f 16;
#X obj 679 294 mute_box 5, f 16;
#X obj 806 295 mute_box 6, f 16;
#X obj 172 266 audioplayers 1, f 16;
#X obj 299 266 audioplayers 2, f 16;
#X obj 426 266 audioplayers 3, f 16;
#X obj 553 266 audioplayers 4, f 16;
#X obj 679 266 audioplayers 5, f 16;
#X obj 806 266 audioplayers 6, f 16;
#X obj 969 187 unpack f f f;
#X obj 1096 187 unpack f f f;
#X obj 933 218 partition 7, f 16;
#X obj 1060 218 partition 8, f 16;
#X obj 933 295 mute_box 7, f 16;
#X obj 1060 295 mute_box 8, f 16;
#X obj 933 266 audioplayers 7, f 16;
#X obj 1060 266 audioplayers 8, f 16;
#X obj 208 103 route 1 2 3 4 5 6 7 8;
#X connect 1 0 5 0;
#X connect 1 0 11 0;
#X connect 1 0 12 0;
#X connect 1 0 13 0;
#X connect 1 0 14 0;
#X connect 1 0 15 0;
#X connect 1 0 29 0;
#X connect 1 0 30 0;
#X connect 2 0 35 0;
#X connect 3 0 5 1;
#X connect 3 1 5 2;
#X connect 3 2 5 3;
#X connect 4 0 0 0;
#X connect 5 0 21 0;
#X connect 5 1 21 1;
#X connect 5 2 21 2;
#X connect 5 3 21 3;
#X connect 5 4 21 4;
#X connect 5 5 21 5;
#X connect 5 6 21 6;
#X connect 5 7 21 7;
#X connect 5 8 21 8;
#X connect 5 9 21 9;
#X connect 5 10 21 10;
#X connect 5 11 21 11;
#X connect 6 0 11 1;
#X connect 6 1 11 2;
#X connect 6 2 11 3;
#X connect 7 0 12 1;
#X connect 7 1 12 2;
#X connect 7 2 12 3;
#X connect 8 0 13 1;
#X connect 8 1 13 2;
#X connect 8 2 13 3;
#X connect 9 0 14 1;
#X connect 9 1 14 2;
#X connect 9 2 14 3;
#X connect 10 0 15 1;
#X connect 10 1 15 2;
#X connect 10 2 15 3;
#X connect 11 0 22 0;
#X connect 11 1 22 1;
#X connect 11 2 22 2;
#X connect 11 3 22 3;
#X connect 11 4 22 4;
#X connect 11 5 22 5;
#X connect 11 6 22 6;
#X connect 11 7 22 7;
#X connect 11 8 22 8;
#X connect 11 9 22 9;
#X connect 11 10 22 10;
#X connect 11 11 22 11;
#X connect 12 0 23 0;
#X connect 12 1 23 1;
#X connect 12 2 23 2;
#X connect 12 3 23 3;
#X connect 12 4 23 4;
#X connect 12 5 23 5;
#X connect 12 6 23 6;
#X connect 12 7 23 7;
#X connect 12 8 23 8;
#X connect 12 9 23 9;
#X connect 12 10 23 10;
#X connect 12 11 23 11;
#X connect 13 0 24 0;
#X connect 13 1 24 1;
#X connect 13 2 24 2;
#X connect 13 3 24 3;
#X connect 13 4 24 4;
#X connect 13 5 24 5;
#X connect 13 6 24 6;
#X connect 13 7 24 7;
#X connect 13 8 24 8;
#X connect 13 9 24 9;
#X connect 13 10 24 10;
#X connect 13 11 24 11;
#X connect 14 0 25 0;
#X connect 14 1 25 1;
#X connect 14 2 25 2;
#X connect 14 3 25 3;
#X connect 14 4 25 4;
#X connect 14 5 25 5;
#X connect 14 6 25 6;
#X connect 14 7 25 7;
#X connect 14 8 25 8;
#X connect 14 9 25 9;
#X connect 14 10 25 10;
#X connect 14 11 25 11;
#X connect 15 0 26 0;
#X connect 15 1 26 1;
#X connect 15 2 26 2;
#X connect 15 3 26 3;
#X connect 15 4 26 4;
#X connect 15 5 26 5;
#X connect 15 6 26 6;
#X connect 15 7 26 7;
#X connect 15 8 26 8;
#X connect 15 9 26 9;
#X connect 15 10 26 10;
#X connect 15 11 26 11;
#X connect 21 0 4 0;
#X connect 21 1 4 1;
#X connect 21 2 4 2;
#X connect 21 3 4 3;
#X connect 21 4 4 4;
#X connect 21 5 4 5;
#X connect 21 6 4 6;
#X connect 21 7 4 7;
#X connect 21 8 4 8;
#X connect 21 9 4 9;
#X connect 21 10 4 10;
#X connect 21 11 4 11;
#X connect 22 0 16 0;
#X connect 22 1 16 1;
#X connect 22 2 16 2;
#X connect 22 3 16 3;
#X connect 22 4 16 4;
#X connect 22 5 16 5;
#X connect 22 6 16 6;
#X connect 22 7 16 7;
#X connect 22 8 16 8;
#X connect 22 9 16 9;
#X connect 22 10 16 10;
#X connect 22 11 16 11;
#X connect 23 0 17 0;
#X connect 23 1 17 1;
#X connect 23 2 17 2;
#X connect 23 3 17 3;
#X connect 23 4 17 4;
#X connect 23 5 17 5;
#X connect 23 6 17 6;
#X connect 23 7 17 7;
#X connect 23 8 17 8;
#X connect 23 9 17 9;
#X connect 23 10 17 10;
#X connect 23 11 17 11;
#X connect 24 0 18 0;
#X connect 24 1 18 1;
#X connect 24 2 18 2;
#X connect 24 3 18 3;
#X connect 24 4 18 4;
#X connect 24 5 18 5;
#X connect 24 6 18 6;
#X connect 24 7 18 7;
#X connect 24 8 18 8;
#X connect 24 9 18 9;
#X connect 24 10 18 10;
#X connect 24 11 18 11;
#X connect 25 0 19 0;
#X connect 25 1 19 1;
#X connect 25 2 19 2;
#X connect 25 3 19 3;
#X connect 25 4 19 4;
#X connect 25 5 19 5;
#X connect 25 6 19 6;
#X connect 25 7 19 7;
#X connect 25 8 19 8;
#X connect 25 9 19 9;
#X connect 25 10 19 10;
#X connect 25 11 19 11;
#X connect 26 0 20 0;
#X connect 26 1 20 1;
#X connect 26 2 20 2;
#X connect 26 3 20 3;
#X connect 26 4 20 4;
#X connect 26 5 20 5;
#X connect 26 6 20 6;
#X connect 26 7 20 7;
#X connect 26 8 20 8;
#X connect 26 9 20 9;
#X connect 26 10 20 10;
#X connect 26 11 20 11;
#X connect 27 0 29 1;
#X connect 27 1 29 2;
#X connect 27 2 29 3;
#X connect 28 0 30 1;
#X connect 28 1 30 2;
#X connect 28 2 30 3;
#X connect 29 0 33 0;
#X connect 29 1 33 1;
#X connect 29 2 33 2;
#X connect 29 3 33 3;
#X connect 29 4 33 4;
#X connect 29 5 33 5;
#X connect 29 6 33 6;
#X connect 29 7 33 7;
#X connect 29 8 33 8;
#X connect 29 9 33 9;
#X connect 29 10 33 10;
#X connect 29 11 33 11;
#X connect 30 0 34 0;
#X connect 30 1 34 1;
#X connect 30 2 34 2;
#X connect 30 3 34 3;
#X connect 30 4 34 4;
#X connect 30 5 34 5;
#X connect 30 6 34 6;
#X connect 30 7 34 7;
#X connect 30 8 34 8;
#X connect 30 9 34 9;
#X connect 30 10 34 10;
#X connect 30 11 34 11;
#X connect 33 0 31 0;
#X connect 33 1 31 1;
#X connect 33 2 31 2;
#X connect 33 3 31 3;
#X connect 33 4 31 4;
#X connect 33 5 31 5;
#X connect 33 6 31 6;
#X connect 33 7 31 7;
#X connect 33 8 31 8;
#X connect 33 9 31 9;
#X connect 33 10 31 10;
#X connect 33 11 31 11;
#X connect 34 0 32 0;
#X connect 34 1 32 1;
#X connect 34 2 32 2;
#X connect 34 3 32 3;
#X connect 34 4 32 4;
#X connect 34 5 32 5;
#X connect 34 6 32 6;
#X connect 34 7 32 7;
#X connect 34 8 32 8;
#X connect 34 9 32 9;
#X connect 34 10 32 10;
#X connect 34 11 32 11;
#X connect 35 0 3 0;
#X connect 35 1 6 0;
#X connect 35 2 7 0;
#X connect 35 3 8 0;
#X connect 35 4 9 0;
#X connect 35 5 10 0;
#X connect 35 6 27 0;
#X connect 35 7 28 0;
