#N canvas 2 71 1809 913 10;
#X obj 171 391 outlet~;
#X obj 36 201 inlet;
#X obj 208 72 inlet;
#X obj 208 187 unpack f f f;
#X obj 172 295 mute_box 1, f 16;
#X obj 172 218 partition 1, f 16;
#X obj 335 187 unpack f f f;
#X obj 462 187 unpack f f f;
#X obj 589 187 unpack f f f;
#X obj 715 187 unpack f f f;
#X obj 842 187 unpack f f f;
#X obj 969 187 unpack f f f;
#X obj 1096 187 unpack f f f;
#X obj 1224 187 unpack f f f;
#X obj 1351 187 unpack f f f;
#X obj 1605 187 unpack f f f;
#X obj 208 103 route 1 2 3 4 5 6 7 8 9 10 11 12;
#X obj 299 218 partition 2, f 16;
#X obj 426 218 partition 3, f 16;
#X obj 553 218 partition 4, f 16;
#X obj 679 218 partition 5, f 16;
#X obj 806 218 partition 6, f 16;
#X obj 933 218 partition 7, f 16;
#X obj 1060 218 partition 8, f 16;
#X obj 1188 218 partition 9, f 16;
#X obj 1315 218 partition 10, f 16;
#X obj 1569 218 partition 12, f 16;
#X obj 299 295 mute_box 2, f 16;
#X obj 426 295 mute_box 3, f 16;
#X obj 553 295 mute_box 4, f 16;
#X obj 679 294 mute_box 5, f 16;
#X obj 806 295 mute_box 6, f 16;
#X obj 933 295 mute_box 7, f 16;
#X obj 1060 295 mute_box 8, f 16;
#X obj 1188 295 mute_box 9, f 16;
#X obj 1315 295 mute_box 10, f 16;
#X obj 1569 295 mute_box 12, f 16;
#X obj 172 266 audioplayers 1, f 16;
#X obj 299 266 audioplayers 2, f 16;
#X obj 426 266 audioplayers 3, f 16;
#X obj 553 266 audioplayers 4, f 16;
#X obj 679 266 audioplayers 5, f 16;
#X obj 806 266 audioplayers 6, f 16;
#X obj 933 266 audioplayers 7, f 16;
#X obj 1060 266 audioplayers 8, f 16;
#X obj 1188 266 audioplayers 9, f 16;
#X obj 1315 266 audioplayers 10, f 16;
#X obj 1569 266 audioplayers 12, f 16;
#X obj 1475 187 unpack f f f;
#X obj 1439 266 audioplayers 10, f 16;
#X obj 1439 218 partition 11, f 16;
#X obj 1439 295 mute_box 11, f 16;
#X connect 1 0 5 0;
#X connect 1 0 17 0;
#X connect 1 0 18 0;
#X connect 1 0 19 0;
#X connect 1 0 20 0;
#X connect 1 0 21 0;
#X connect 1 0 22 0;
#X connect 1 0 23 0;
#X connect 1 0 24 0;
#X connect 1 0 25 0;
#X connect 1 0 26 0;
#X connect 1 0 50 0;
#X connect 2 0 16 0;
#X connect 3 0 5 1;
#X connect 3 1 5 2;
#X connect 3 2 5 3;
#X connect 4 0 0 0;
#X connect 5 0 37 0;
#X connect 5 1 37 1;
#X connect 5 2 37 2;
#X connect 5 3 37 3;
#X connect 5 4 37 4;
#X connect 5 5 37 5;
#X connect 5 6 37 6;
#X connect 5 7 37 7;
#X connect 5 8 37 8;
#X connect 5 9 37 9;
#X connect 5 10 37 10;
#X connect 5 11 37 11;
#X connect 6 0 17 1;
#X connect 6 1 17 2;
#X connect 6 2 17 3;
#X connect 7 0 18 1;
#X connect 7 1 18 2;
#X connect 7 2 18 3;
#X connect 8 0 19 1;
#X connect 8 1 19 2;
#X connect 8 2 19 3;
#X connect 9 0 20 1;
#X connect 9 1 20 2;
#X connect 9 2 20 3;
#X connect 10 0 21 1;
#X connect 10 1 21 2;
#X connect 10 2 21 3;
#X connect 11 0 22 1;
#X connect 11 1 22 2;
#X connect 11 2 22 3;
#X connect 12 0 23 1;
#X connect 12 1 23 2;
#X connect 12 2 23 3;
#X connect 13 0 24 1;
#X connect 13 1 24 2;
#X connect 13 2 24 3;
#X connect 14 0 25 1;
#X connect 14 1 25 2;
#X connect 14 2 25 3;
#X connect 15 0 26 1;
#X connect 15 1 26 2;
#X connect 15 2 26 3;
#X connect 16 0 3 0;
#X connect 16 1 6 0;
#X connect 16 2 7 0;
#X connect 16 3 8 0;
#X connect 16 4 9 0;
#X connect 16 5 10 0;
#X connect 16 6 11 0;
#X connect 16 7 12 0;
#X connect 16 8 13 0;
#X connect 16 9 14 0;
#X connect 16 10 48 0;
#X connect 16 11 15 0;
#X connect 17 0 38 0;
#X connect 17 1 38 1;
#X connect 17 2 38 2;
#X connect 17 3 38 3;
#X connect 17 4 38 4;
#X connect 17 5 38 5;
#X connect 17 6 38 6;
#X connect 17 7 38 7;
#X connect 17 8 38 8;
#X connect 17 9 38 9;
#X connect 17 10 38 10;
#X connect 17 11 38 11;
#X connect 18 0 39 0;
#X connect 18 1 39 1;
#X connect 18 2 39 2;
#X connect 18 3 39 3;
#X connect 18 4 39 4;
#X connect 18 5 39 5;
#X connect 18 6 39 6;
#X connect 18 7 39 7;
#X connect 18 8 39 8;
#X connect 18 9 39 9;
#X connect 18 10 39 10;
#X connect 18 11 39 11;
#X connect 19 0 40 0;
#X connect 19 1 40 1;
#X connect 19 2 40 2;
#X connect 19 3 40 3;
#X connect 19 4 40 4;
#X connect 19 5 40 5;
#X connect 19 6 40 6;
#X connect 19 7 40 7;
#X connect 19 8 40 8;
#X connect 19 9 40 9;
#X connect 19 10 40 10;
#X connect 19 11 40 11;
#X connect 20 0 41 0;
#X connect 20 1 41 1;
#X connect 20 2 41 2;
#X connect 20 3 41 3;
#X connect 20 4 41 4;
#X connect 20 5 41 5;
#X connect 20 6 41 6;
#X connect 20 7 41 7;
#X connect 20 8 41 8;
#X connect 20 9 41 9;
#X connect 20 10 41 10;
#X connect 20 11 41 11;
#X connect 21 0 42 0;
#X connect 21 1 42 1;
#X connect 21 2 42 2;
#X connect 21 3 42 3;
#X connect 21 4 42 4;
#X connect 21 5 42 5;
#X connect 21 6 42 6;
#X connect 21 7 42 7;
#X connect 21 8 42 8;
#X connect 21 9 42 9;
#X connect 21 10 42 10;
#X connect 21 11 42 11;
#X connect 22 0 43 0;
#X connect 22 1 43 1;
#X connect 22 2 43 2;
#X connect 22 3 43 3;
#X connect 22 4 43 4;
#X connect 22 5 43 5;
#X connect 22 6 43 6;
#X connect 22 7 43 7;
#X connect 22 8 43 8;
#X connect 22 9 43 9;
#X connect 22 10 43 10;
#X connect 22 11 43 11;
#X connect 23 0 44 0;
#X connect 23 1 44 1;
#X connect 23 2 44 2;
#X connect 23 3 44 3;
#X connect 23 4 44 4;
#X connect 23 5 44 5;
#X connect 23 6 44 6;
#X connect 23 7 44 7;
#X connect 23 8 44 8;
#X connect 23 9 44 9;
#X connect 23 10 44 10;
#X connect 23 11 44 11;
#X connect 24 0 45 0;
#X connect 24 1 45 1;
#X connect 24 2 45 2;
#X connect 24 3 45 3;
#X connect 24 4 45 4;
#X connect 24 5 45 5;
#X connect 24 6 45 6;
#X connect 24 7 45 7;
#X connect 24 8 45 8;
#X connect 24 9 45 9;
#X connect 24 10 45 10;
#X connect 24 11 45 11;
#X connect 25 0 46 0;
#X connect 25 1 46 1;
#X connect 25 2 46 2;
#X connect 25 3 46 3;
#X connect 25 4 46 4;
#X connect 25 5 46 5;
#X connect 25 6 46 6;
#X connect 25 7 46 7;
#X connect 25 8 46 8;
#X connect 25 9 46 9;
#X connect 25 10 46 10;
#X connect 25 11 46 11;
#X connect 26 0 47 0;
#X connect 26 1 47 1;
#X connect 26 2 47 2;
#X connect 26 3 47 3;
#X connect 26 4 47 4;
#X connect 26 5 47 5;
#X connect 26 6 47 6;
#X connect 26 7 47 7;
#X connect 26 8 47 8;
#X connect 26 9 47 9;
#X connect 26 10 47 10;
#X connect 26 11 47 11;
#X connect 37 0 4 0;
#X connect 37 1 4 1;
#X connect 37 2 4 2;
#X connect 37 3 4 3;
#X connect 37 4 4 4;
#X connect 37 5 4 5;
#X connect 37 6 4 6;
#X connect 37 7 4 7;
#X connect 37 8 4 8;
#X connect 37 9 4 9;
#X connect 37 10 4 10;
#X connect 37 11 4 11;
#X connect 38 0 27 0;
#X connect 38 1 27 1;
#X connect 38 2 27 2;
#X connect 38 3 27 3;
#X connect 38 4 27 4;
#X connect 38 5 27 5;
#X connect 38 6 27 6;
#X connect 38 7 27 7;
#X connect 38 8 27 8;
#X connect 38 9 27 9;
#X connect 38 10 27 10;
#X connect 38 11 27 11;
#X connect 39 0 28 0;
#X connect 39 1 28 1;
#X connect 39 2 28 2;
#X connect 39 3 28 3;
#X connect 39 4 28 4;
#X connect 39 5 28 5;
#X connect 39 6 28 6;
#X connect 39 7 28 7;
#X connect 39 8 28 8;
#X connect 39 9 28 9;
#X connect 39 10 28 10;
#X connect 39 11 28 11;
#X connect 40 0 29 0;
#X connect 40 1 29 1;
#X connect 40 2 29 2;
#X connect 40 3 29 3;
#X connect 40 4 29 4;
#X connect 40 5 29 5;
#X connect 40 6 29 6;
#X connect 40 7 29 7;
#X connect 40 8 29 8;
#X connect 40 9 29 9;
#X connect 40 10 29 10;
#X connect 40 11 29 11;
#X connect 41 0 30 0;
#X connect 41 1 30 1;
#X connect 41 2 30 2;
#X connect 41 3 30 3;
#X connect 41 4 30 4;
#X connect 41 5 30 5;
#X connect 41 6 30 6;
#X connect 41 7 30 7;
#X connect 41 8 30 8;
#X connect 41 9 30 9;
#X connect 41 10 30 10;
#X connect 41 11 30 11;
#X connect 42 0 31 0;
#X connect 42 1 31 1;
#X connect 42 2 31 2;
#X connect 42 3 31 3;
#X connect 42 4 31 4;
#X connect 42 5 31 5;
#X connect 42 6 31 6;
#X connect 42 7 31 7;
#X connect 42 8 31 8;
#X connect 42 9 31 9;
#X connect 42 10 31 10;
#X connect 42 11 31 11;
#X connect 43 0 32 0;
#X connect 43 1 32 1;
#X connect 43 2 32 2;
#X connect 43 3 32 3;
#X connect 43 4 32 4;
#X connect 43 5 32 5;
#X connect 43 6 32 6;
#X connect 43 7 32 7;
#X connect 43 8 32 8;
#X connect 43 9 32 9;
#X connect 43 10 32 10;
#X connect 43 11 32 11;
#X connect 44 0 33 0;
#X connect 44 1 33 1;
#X connect 44 2 33 2;
#X connect 44 3 33 3;
#X connect 44 4 33 4;
#X connect 44 5 33 5;
#X connect 44 6 33 6;
#X connect 44 7 33 7;
#X connect 44 8 33 8;
#X connect 44 9 33 9;
#X connect 44 10 33 10;
#X connect 44 11 33 11;
#X connect 45 0 34 0;
#X connect 45 1 34 1;
#X connect 45 2 34 2;
#X connect 45 3 34 3;
#X connect 45 4 34 4;
#X connect 45 5 34 5;
#X connect 45 6 34 6;
#X connect 45 7 34 7;
#X connect 45 8 34 8;
#X connect 45 9 34 9;
#X connect 45 10 34 10;
#X connect 45 11 34 11;
#X connect 46 0 35 0;
#X connect 46 1 35 1;
#X connect 46 2 35 2;
#X connect 46 3 35 3;
#X connect 46 4 35 4;
#X connect 46 5 35 5;
#X connect 46 6 35 6;
#X connect 46 7 35 7;
#X connect 46 8 35 8;
#X connect 46 9 35 9;
#X connect 46 10 35 10;
#X connect 46 11 35 11;
#X connect 47 0 36 0;
#X connect 47 1 36 1;
#X connect 47 2 36 2;
#X connect 47 3 36 3;
#X connect 47 4 36 4;
#X connect 47 5 36 5;
#X connect 47 6 36 6;
#X connect 47 7 36 7;
#X connect 47 8 36 8;
#X connect 47 9 36 9;
#X connect 47 10 36 10;
#X connect 47 11 36 11;
#X connect 48 0 50 1;
#X connect 48 1 50 2;
#X connect 48 2 50 3;
#X connect 49 0 51 0;
#X connect 49 1 51 1;
#X connect 49 2 51 2;
#X connect 49 3 51 3;
#X connect 49 4 51 4;
#X connect 49 5 51 5;
#X connect 49 6 51 6;
#X connect 49 7 51 7;
#X connect 49 8 51 8;
#X connect 49 9 51 9;
#X connect 49 10 51 10;
#X connect 49 11 51 11;
#X connect 50 0 49 0;
#X connect 50 1 49 1;
#X connect 50 2 49 2;
#X connect 50 3 49 3;
#X connect 50 4 49 4;
#X connect 50 5 49 5;
#X connect 50 6 49 6;
#X connect 50 7 49 7;
#X connect 50 8 49 8;
#X connect 50 9 49 9;
#X connect 50 10 49 10;
#X connect 50 11 49 11;
