#N canvas 281 152 1265 953 10;
#X floatatom 821 296 5 0 0 0 - - -, f 5;
#X floatatom 821 338 5 0 0 0 - - -, f 5;
#X obj 927 310 select 0;
#X obj 888 407 spigot;
#X obj 941 407 spigot;
#X msg 927 332 0;
#X msg 927 354 1;
#X msg 980 332 0;
#X msg 980 354 1;
#X floatatom 888 467 5 0 0 0 - - -, f 5;
#X obj 888 489 moses 0;
#X msg 888 515 0;
#X obj 934 515 moses 1;
#X msg 980 540 1;
#X floatatom 934 543 5 0 0 0 - - -, f 5;
#X obj 888 430 + 0.25;
#X obj 941 430 - 0.25;
#X obj 44 67 inlet;
#X obj 45 228 outlet;
#X obj 821 191 inlet;
#X text 42 38 pas from sequencer;
#X obj 837 622 delay 1;
#X floatatom 888 587 5 0 0 0 - - -, f 5;
#X obj 917 639 f;
#X obj 1020 656 send to_osc;
#X msg 1020 632 set velo;
#X obj 204 233 inlet;
#X obj 821 315 tabread;
#X obj 888 671 tabwrite;
#N canvas 0 50 450 250 (subpatch) 0;
#X array rack_1 58 float 2;
#X coords 0 1 58 -1 200 20 1 0 0;
#X restore 59 554 graph;
#X obj 45 204 tabread vel_1;
#X obj 138 279 print;
#X obj 204 420 list;
#X obj 720 437 route list;
#X obj 927 219 inlet;
#X text 866 191 pas from nav;
#X text 974 219 vel from nav;
#X text 249 233 idInstru from nav;
#X obj 927 260 delay 1, f 8;
#X obj 927 285 f;
#X floatatom 230 591 5 0 0 0 - - -, f 5;
#X obj 230 685 print vel;
#X msg 230 631 \; rack_1 resize \$1;
#X msg 204 281 set vel_\$1;
#X obj 89 111 +;
#X obj 158 93 64;
#X obj 158 126 *;
#X floatatom 223 112 5 0 0 0 - - -, f 5;
#X floatatom 159 165 5 0 0 0 - - -, f 5;
#X obj 133 70 bng 15 250 50 0 empty empty empty 17 7 0 10 -262144 -1
-1;
#X obj 516 560 tabread toto10;
#X msg 499 514 10;
#X obj 530 601 print arraytest;
#X msg 338 515 \; rack_1 define toto;
#X connect 0 0 27 0;
#X connect 0 0 28 1;
#X connect 1 0 3 0;
#X connect 1 0 4 0;
#X connect 2 0 5 0;
#X connect 2 1 7 0;
#X connect 3 0 15 0;
#X connect 4 0 16 0;
#X connect 5 0 6 0;
#X connect 5 0 3 1;
#X connect 6 0 4 1;
#X connect 7 0 8 0;
#X connect 7 0 4 1;
#X connect 8 0 3 1;
#X connect 9 0 10 0;
#X connect 10 0 11 0;
#X connect 10 1 12 0;
#X connect 11 0 22 0;
#X connect 12 0 14 0;
#X connect 12 1 13 0;
#X connect 13 0 22 0;
#X connect 14 0 22 0;
#X connect 15 0 9 0;
#X connect 16 0 9 0;
#X connect 17 0 30 0;
#X connect 17 0 44 0;
#X connect 19 0 0 0;
#X connect 21 0 23 0;
#X connect 22 0 21 0;
#X connect 22 0 23 1;
#X connect 23 0 25 0;
#X connect 23 0 24 0;
#X connect 23 0 28 0;
#X connect 25 0 24 0;
#X connect 26 0 31 0;
#X connect 26 0 43 0;
#X connect 27 0 1 0;
#X connect 30 0 18 0;
#X connect 32 0 33 0;
#X connect 33 0 27 0;
#X connect 33 0 28 0;
#X connect 34 0 39 1;
#X connect 34 0 38 0;
#X connect 38 0 39 0;
#X connect 39 0 2 0;
#X connect 40 0 42 0;
#X connect 42 0 41 0;
#X connect 43 0 32 0;
#X connect 45 0 46 0;
#X connect 46 0 48 0;
#X connect 47 0 46 1;
#X connect 49 0 45 0;
#X connect 50 0 52 0;
#X connect 51 0 50 0;
