#N canvas 342 139 846 752 10;
#N canvas 0 50 450 250 (subpatch) 0;
#X array vel_2 64 float 3;
#A 0 0 0 0 0 0 0 0 0 0 0 0 0 0 0 0 0 0 0 0 0 0 0 0 0 0 0 0 0 0 0 0
0 0 0 0 0 0 0 0 0 0 0 0 0 0 0 0 0 0 0 0 0 0 0 0 0 0 0 0 0 0 0 0 0;
#X coords 0 1 64 -1 200 20 1 0 0;
#X restore 202 573 graph;
#X floatatom 496 299 5 0 0 0 - - -, f 5;
#X floatatom 602 294 5 0 0 0 - - -, f 5;
#X floatatom 496 341 5 0 0 0 - - -, f 5;
#X obj 602 313 select 0;
#X obj 563 410 spigot;
#X obj 616 410 spigot;
#X msg 602 335 0;
#X msg 602 357 1;
#X msg 655 335 0;
#X msg 655 357 1;
#X floatatom 563 470 5 0 0 0 - - -, f 5;
#X obj 563 492 moses 0;
#X msg 563 518 0;
#X obj 609 518 moses 1;
#X msg 655 543 1;
#X floatatom 609 546 5 0 0 0 - - -, f 5;
#X obj 563 433 + 0.25;
#X obj 616 433 - 0.25;
#X obj 116 70 inlet;
#X obj 116 158 outlet;
#X obj 535 231 inlet;
#X text 24 50 pas from sequencer;
#X obj 512 625 delay 1;
#X floatatom 563 590 5 0 0 0 - - -, f 5;
#X obj 592 642 f;
#X obj 695 659 send to_osc;
#X msg 695 635 set velo;
#X obj 535 258 unpack f f;
#X text 580 231 pas et vel from nav;
#X obj 204 233 inlet;
#X msg 204 282 set vel_1;
#X obj 204 257 route 1 2 3 4;
#X msg 226 306 set vel_2;
#X text 249 233 idInstru;
#X msg 248 330 set vel_3;
#X msg 270 354 set vel_4;
#X obj 204 389 send tab_name;
#X obj 496 318 tabread;
#X obj 563 674 tabwrite;
#X obj 631 258 receive tab_name;
#X obj 442 657 receive tab_name;
#N canvas 0 50 450 250 (subpatch) 0;
#X array vel_1 64 float 3;
#A 0 0 0 0 0 0 0 0 0 0 0 0 0 0 0 0 0 0 0 0 0 0 0 0 0 0 0 0 0 0 0 0
0 0 0 0 0 0 0 0 0 0 0 0 0 0 0 0 0 0 0 0 0 0 0 0 0 0 0 0 0 0 0 0 0;
#X coords 0 1 64 -1 200 20 1 0 0;
#X restore 202 531 graph;
#N canvas 0 50 450 250 (subpatch) 0;
#X array vel_4 64 float 3;
#A 0 0 0 0 0 0 0 0 0 0 0 0 0 0 0 0 0 0 0 0 0 0 0 0 0 0 0 0 0 0 0 0
0 0 0 0 0 0 0 0 0 0 0 0 0 0 0 0 0 0 0 0 0 0 0 0 0 0 0 0 0 0 0 0 0;
#X coords 0 1 64 -1 200 20 1 0 0;
#X restore 202 655 graph;
#N canvas 0 50 450 250 (subpatch) 0;
#X array vel_3 64 float 3;
#A 0 0 0 0 0 0 0 0 0 0 0 0 0 0 0 0 0 0 0 0 0 0 0 0 0 0 0 0 0 0 0 0
0 0 0 0 0 0 0 0 0 0 0 0 0 0 0 0 0 0 0 0 0 0 0 0 0 0 0 0 0 0 0 0 0;
#X coords 0 1 64 -1 200 20 1 0 0;
#X restore 202 614 graph;
#X obj 116 134 tabread vel_1;
#X obj 216 158 outlet;
#X obj 216 134 tabread vel_2;
#X obj 316 158 outlet;
#X obj 416 158 outlet;
#X obj 316 134 tabread vel_3;
#X obj 416 134 tabread vel_4;
#X connect 1 0 38 0;
#X connect 1 0 39 1;
#X connect 2 0 4 0;
#X connect 3 0 5 0;
#X connect 3 0 6 0;
#X connect 4 0 7 0;
#X connect 4 1 9 0;
#X connect 5 0 17 0;
#X connect 6 0 18 0;
#X connect 7 0 8 0;
#X connect 7 0 5 1;
#X connect 8 0 6 1;
#X connect 9 0 10 0;
#X connect 9 0 6 1;
#X connect 10 0 5 1;
#X connect 11 0 12 0;
#X connect 12 0 13 0;
#X connect 12 1 14 0;
#X connect 13 0 24 0;
#X connect 14 0 16 0;
#X connect 14 1 15 0;
#X connect 15 0 24 0;
#X connect 16 0 24 0;
#X connect 17 0 11 0;
#X connect 18 0 11 0;
#X connect 19 0 45 0;
#X connect 19 0 47 0;
#X connect 19 0 50 0;
#X connect 19 0 51 0;
#X connect 21 0 28 0;
#X connect 23 0 25 0;
#X connect 24 0 23 0;
#X connect 24 0 25 1;
#X connect 25 0 27 0;
#X connect 25 0 26 0;
#X connect 25 0 39 0;
#X connect 27 0 26 0;
#X connect 28 0 1 0;
#X connect 28 1 2 0;
#X connect 30 0 32 0;
#X connect 31 0 37 0;
#X connect 32 0 31 0;
#X connect 32 1 33 0;
#X connect 32 2 35 0;
#X connect 32 3 36 0;
#X connect 33 0 37 0;
#X connect 35 0 37 0;
#X connect 36 0 37 0;
#X connect 38 0 3 0;
#X connect 40 0 38 0;
#X connect 41 0 39 0;
#X connect 45 0 20 0;
#X connect 47 0 46 0;
#X connect 50 0 48 0;
#X connect 51 0 49 0;
