#N canvas 2 103 1515 795 10;
#X floatatom 1101 269 5 0 0 0 - - -, f 5;
#X obj 1207 241 select 0;
#X obj 1168 338 spigot;
#X obj 1221 338 spigot;
#X msg 1207 263 0;
#X msg 1207 285 1;
#X msg 1260 263 0;
#X msg 1260 285 1;
#X floatatom 1168 398 5 0 0 0 - - -, f 5;
#X obj 1168 420 moses 0;
#X msg 1168 446 0;
#X obj 1214 446 moses 1;
#X msg 1260 471 1;
#X floatatom 1214 474 5 0 0 0 - - -, f 5;
#X obj 1168 361 + 0.25;
#X obj 1221 361 - 0.25;
#X obj 82 535 outlet;
#X obj 1097 57 inlet;
#X text 198 125 pas from sequencer;
#X obj 1117 553 delay 1;
#X floatatom 1168 518 5 0 0 0 - - -, f 5;
#X obj 1197 570 f;
#X obj 1300 587 send to_osc;
#X msg 1300 563 set velo;
#X obj 849 56 inlet;
#X obj 1101 246 tabread;
#X obj 1168 602 tabwrite;
#N canvas 178 177 450 250 (subpatch) 0;
#X array \$1_vel_1 64 float 2;
#X coords 0 1 64 -1 200 20 1 0 0;
#X restore 85 643 graph;
#X obj 849 351 list;
#X obj 1000 368 route list;
#X obj 1275 59 inlet;
#X text 1142 57 pas from nav;
#X text 1322 59 vel from nav;
#X text 894 56 idInstru from nav;
#X obj 1207 216 f;
#N canvas 0 50 450 250 (subpatch) 0;
#X array \$1_vel_2 64 float 2;
#X coords 0 1 64 -1 200 20 1 0 0;
#X restore 85 680 graph;
#N canvas 0 50 450 250 (subpatch) 0;
#X array \$1_vel_3 64 float 2;
#X coords 0 1 64 -1 200 20 1 0 0;
#X restore 85 717 graph;
#N canvas 0 50 450 250 (subpatch) 0;
#X array \$1_vel_4 64 float 2;
#X coords 0 1 64 -1 200 20 1 0 0;
#X restore 85 754 graph;
#N canvas 0 50 450 250 (subpatch) 0;
#X array \$1_vel_5 64 float 2;
#X coords 0 1 64 -1 200 20 1 0 0;
#X restore 295 643 graph;
#N canvas 0 50 450 250 (subpatch) 0;
#X array \$1_vel_6 64 float 2;
#X coords 0 1 64 -1 200 20 1 0 0;
#X restore 295 680 graph;
#N canvas 0 50 450 250 (subpatch) 0;
#X array \$1_vel_7 64 float 2;
#X coords 0 1 64 -1 200 20 1 0 0;
#X restore 295 717 graph;
#N canvas 0 50 450 250 (subpatch) 0;
#X array \$1_vel_8 64 float 2;
#X coords 0 1 64 -1 200 20 1 0 0;
#X restore 295 754 graph;
#N canvas 0 50 450 250 (subpatch) 0;
#X array \$1_vel_9 64 float 2;
#X coords 0 1 64 -1 200 20 1 0 0;
#X restore 506 643 graph;
#N canvas 0 50 450 250 (subpatch) 0;
#X array \$1_vel_10 64 float 2;
#X coords 0 1 64 -1 200 20 1 0 0;
#X restore 506 680 graph;
#N canvas 0 50 450 250 (subpatch) 0;
#X array \$1_vel_11 64 float 2;
#X coords 0 1 64 -1 200 20 1 0 0;
#X restore 506 717 graph;
#N canvas 0 50 450 250 (subpatch) 0;
#X array \$1_vel_12 64 float 2;
#X coords 0 1 64 -1 200 20 1 0 0;
#X restore 506 754 graph;
#X obj 849 298 pack \$1 float;
#X obj 849 271 bng 15 250 50 0 empty empty empty 17 7 0 10 -262144
-1 -1;
#X obj 82 482 tabread \$1_vel_1, f 7;
#X obj 140 535 outlet;
#X obj 199 535 outlet;
#X obj 257 535 outlet;
#X obj 315 535 outlet;
#X obj 373 535 outlet;
#X obj 432 535 outlet;
#X obj 490 535 outlet;
#X obj 548 535 outlet;
#X obj 606 535 outlet;
#X obj 665 535 outlet;
#X obj 723 535 outlet;
#X obj 140 482 tabread \$1_vel_2, f 7;
#X obj 199 482 tabread \$1_vel_3, f 7;
#X obj 257 482 tabread \$1_vel_4, f 7;
#X obj 315 482 tabread \$1_vel_5, f 7;
#X obj 373 482 tabread \$1_vel_6, f 7;
#X obj 432 482 tabread \$1_vel_7, f 7;
#X obj 490 482 tabread \$1_vel_8, f 7;
#X obj 548 482 tabread \$1_vel_9, f 7;
#X obj 606 482 tabread \$1_vel_10, f 7;
#X obj 665 482 tabread \$1_vel_11, f 7;
#X obj 723 482 tabread \$1_vel_12, f 7;
#X msg 849 322 set \$1_vel_\$2;
#X obj 1117 211 f;
#X floatatom 898 88 5 0 0 0 - - -, f 5;
#X floatatom 1135 85 5 0 0 0 - - -, f 5;
#X floatatom 1296 87 5 0 0 0 - - -, f 5;
#X obj 1207 192 delay 1, f 8;
#X obj 1097 171 delay 2;
#X obj 369 45 receive idRack;
#X obj 369 103 route \$1;
#X obj 369 157 bng 15 250 50 0 empty empty empty 17 7 0 10 -262144
-1 -1;
#X obj 369 237 send nbRackMesures;
#X msg 380 129 1;
#X msg 430 128 0;
#X obj 413 172 spigot;
#X obj 489 156 receive newRackMesures;
#X obj 369 189 4;
#X obj 298 206 * 4;
#X obj 201 247 moses;
#X obj 201 202 f;
#X obj 201 280 + 1;
#X msg 233 280 0;
#X floatatom 82 351 5 0 0 0 - - -, f 5;
#X obj 298 230 - 1;
#X obj 233 40 receive sync;
#X obj 201 142 inlet;
#X obj 201 170 bng 15 250 50 0 empty empty empty 17 7 0 10 -262144
-1 -1;
#X floatatom 251 225 5 0 0 0 - - -, f 5;
#X obj 286 74 loadbang;
#X connect 0 0 2 0;
#X connect 0 0 3 0;
#X connect 1 0 4 0;
#X connect 1 1 6 0;
#X connect 2 0 14 0;
#X connect 3 0 15 0;
#X connect 4 0 5 0;
#X connect 4 0 2 1;
#X connect 5 0 3 1;
#X connect 6 0 7 0;
#X connect 6 0 3 1;
#X connect 7 0 2 1;
#X connect 8 0 9 0;
#X connect 9 0 10 0;
#X connect 9 1 11 0;
#X connect 10 0 20 0;
#X connect 11 0 13 0;
#X connect 11 1 12 0;
#X connect 12 0 20 0;
#X connect 13 0 20 0;
#X connect 14 0 8 0;
#X connect 15 0 8 0;
#X connect 17 0 72 1;
#X connect 17 0 74 0;
#X connect 17 0 77 0;
#X connect 19 0 21 0;
#X connect 20 0 19 0;
#X connect 20 0 21 1;
#X connect 21 0 23 0;
#X connect 21 0 22 0;
#X connect 21 0 26 0;
#X connect 23 0 22 0;
#X connect 24 0 46 1;
#X connect 24 0 47 0;
#X connect 24 0 73 0;
#X connect 25 0 0 0;
#X connect 28 0 29 0;
#X connect 29 0 25 0;
#X connect 29 0 26 0;
#X connect 30 0 34 1;
#X connect 30 0 75 0;
#X connect 30 0 76 0;
#X connect 34 0 1 0;
#X connect 46 0 71 0;
#X connect 47 0 46 0;
#X connect 48 0 16 0;
#X connect 60 0 49 0;
#X connect 61 0 50 0;
#X connect 62 0 51 0;
#X connect 63 0 52 0;
#X connect 64 0 53 0;
#X connect 65 0 54 0;
#X connect 66 0 55 0;
#X connect 67 0 56 0;
#X connect 68 0 57 0;
#X connect 69 0 58 0;
#X connect 70 0 59 0;
#X connect 71 0 28 0;
#X connect 72 0 25 0;
#X connect 72 0 26 1;
#X connect 76 0 34 0;
#X connect 77 0 72 0;
#X connect 78 0 79 0;
#X connect 79 0 80 0;
#X connect 79 0 82 0;
#X connect 79 1 83 0;
#X connect 80 0 86 0;
#X connect 82 0 84 1;
#X connect 83 0 84 1;
#X connect 84 0 86 0;
#X connect 85 0 84 0;
#X connect 86 0 81 0;
#X connect 86 0 87 0;
#X connect 87 0 93 0;
#X connect 87 0 97 0;
#X connect 88 0 90 0;
#X connect 88 1 91 0;
#X connect 89 0 88 0;
#X connect 89 0 92 0;
#X connect 90 0 89 1;
#X connect 91 0 89 1;
#X connect 92 0 48 0;
#X connect 92 0 60 0;
#X connect 92 0 61 0;
#X connect 92 0 62 0;
#X connect 92 0 63 0;
#X connect 92 0 64 0;
#X connect 92 0 65 0;
#X connect 92 0 66 0;
#X connect 92 0 67 0;
#X connect 92 0 68 0;
#X connect 92 0 69 0;
#X connect 92 0 70 0;
#X connect 93 0 88 1;
#X connect 94 0 91 0;
#X connect 95 0 96 0;
#X connect 96 0 89 0;
#X connect 98 0 80 0;
