#N canvas 2 71 1265 953 10;
#N canvas 0 50 450 250 (subpatch) 0;
#X array vel_2 64 float 3;
#A 0 0 0 0 0 0 0 0 0 0 0 0 0 0 0 0 0 0 0 0 0 0 0 0 0 0 0 0 0 0 0 0
0 0 0 0 0 0 0 0 0 0 0 0 0 0 0 0 0 0 0 0 0 0 0 0 0 0 0 0 0 0 0 0 0;
#X coords 0 1 64 -1 200 20 1 0 0;
#X restore 59 596 graph;
#X floatatom 821 296 5 0 0 0 - - -, f 5;
#X floatatom 927 291 5 0 0 0 - - -, f 5;
#X floatatom 821 338 5 0 0 0 - - -, f 5;
#X obj 927 310 select 0;
#X obj 888 407 spigot;
#X obj 941 407 spigot;
#X msg 927 332 0;
#X msg 927 354 1;
#X msg 980 332 0;
#X msg 980 354 1;
#X floatatom 888 467 5 0 0 0 - - -, f 5;
#X obj 888 489 moses 0;
#X msg 888 515 0;
#X obj 934 515 moses 1;
#X msg 980 540 1;
#X floatatom 934 543 5 0 0 0 - - -, f 5;
#X obj 888 430 + 0.25;
#X obj 941 430 - 0.25;
#X obj 44 67 inlet;
#X obj 44 154 outlet;
#X obj 860 228 inlet;
#X text 42 38 pas from sequencer;
#X obj 837 622 delay 1;
#X floatatom 888 587 5 0 0 0 - - -, f 5;
#X obj 917 639 f;
#X obj 1020 656 send to_osc;
#X msg 1020 632 set velo;
#X obj 860 255 unpack f f;
#X text 905 228 pas et vel from nav;
#X obj 204 233 inlet;
#X msg 204 282 set vel_1;
#X msg 225 306 set vel_2;
#X text 249 233 idInstru;
#X msg 247 330 set vel_3;
#X msg 269 354 set vel_4;
#X obj 204 389 send tab_name;
#X obj 821 315 tabread;
#X obj 888 671 tabwrite;
#X obj 956 255 receive tab_name;
#X obj 767 654 receive tab_name;
#N canvas 0 50 450 250 (subpatch) 0;
#X array vel_1 64 float 2;
#X coords 0 1 64 -1 200 20 1 0 0;
#X restore 59 554 graph;
#N canvas 0 50 450 250 (subpatch) 0;
#X array vel_4 64 float 2;
#X coords 0 1 64 -1 200 20 1 0 0;
#X restore 59 678 graph;
#N canvas 0 50 450 250 (subpatch) 0;
#X array vel_3 64 float 3;
#A 0 0 0 0 0 0 0 0 0 0 0 0 0 0 0 0 0 0 0 0 0 0 0 0 0 0 0 0 0 0 0 0
0 0 0 0 0 0 0 0 0 0 0 0 0 0 0 0 0 0 0 0 0 0 0 0 0 0 0 0 0 0 0 0 0;
#X coords 0 1 64 -1 200 20 1 0 0;
#X restore 59 637 graph;
#X obj 44 130 tabread vel_1;
#X obj 144 154 outlet;
#X obj 144 130 tabread vel_2;
#X obj 244 154 outlet;
#X obj 344 154 outlet;
#X obj 244 130 tabread vel_3;
#N canvas 0 50 450 250 (subpatch) 0;
#X array vel_6 64 float 2;
#X coords 0 1 64 -1 200 20 1 0 0;
#X restore 267 596 graph;
#N canvas 0 50 450 250 (subpatch) 0;
#X array vel_5 64 float 2;
#X coords 0 1 64 -1 200 20 1 0 0;
#X restore 267 554 graph;
#N canvas 0 50 450 250 (subpatch) 0;
#X array vel_8 64 float 2;
#X coords 0 1 64 -1 200 20 1 0 0;
#X restore 267 678 graph;
#N canvas 0 50 450 250 (subpatch) 0;
#X array vel_7 64 float 2;
#X coords 0 1 64 -1 200 20 1 0 0;
#X restore 267 637 graph;
#N canvas 0 50 450 250 (subpatch) 0;
#X array vel_10 64 float 2;
#X coords 0 1 64 -1 200 20 1 0 0;
#X restore 475 596 graph;
#N canvas 0 50 450 250 (subpatch) 0;
#X array vel_9 64 float 2;
#X coords 0 1 64 -1 200 20 1 0 0;
#X restore 475 554 graph;
#N canvas 0 50 450 250 (subpatch) 0;
#X array vel_12 64 float 2;
#X coords 0 1 64 -1 200 20 1 0 0;
#X restore 475 678 graph;
#N canvas 0 50 450 250 (subpatch) 0;
#X array vel_11 64 float 2;
#X coords 0 1 64 -1 200 20 1 0 0;
#X restore 475 637 graph;
#X obj 204 257 route 1 2 3 4 5 6 7 8 9 10 11 12, f 38;
#X msg 291 282 set vel_5;
#X msg 313 306 set vel_6;
#X msg 335 330 set vel_7;
#X msg 356 354 set vel_8;
#X msg 379 282 set vel_9;
#X msg 401 306 set vel_10;
#X msg 423 330 set vel_11;
#X msg 444 354 set vel_12;
#X obj 444 154 outlet;
#X obj 544 154 outlet;
#X obj 644 154 outlet;
#X obj 744 154 outlet;
#X obj 845 154 outlet;
#X obj 945 154 outlet;
#X obj 1051 154 outlet;
#X obj 1157 154 outlet;
#X obj 444 130 tabread vel_5;
#X obj 344 130 tabread vel_4;
#X obj 544 130 tabread vel_6;
#X obj 644 130 tabread vel_7;
#X obj 744 130 tabread vel_8;
#X obj 845 130 tabread vel_9;
#X obj 945 130 tabread vel_10;
#X obj 1051 130 tabread vel_11;
#X obj 1157 130 tabread vel_12;
#X obj 138 279 print;
#X connect 1 0 37 0;
#X connect 1 0 38 1;
#X connect 2 0 4 0;
#X connect 3 0 5 0;
#X connect 3 0 6 0;
#X connect 4 0 7 0;
#X connect 4 1 9 0;
#X connect 5 0 17 0;
#X connect 6 0 18 0;
#X connect 7 0 8 0;
#X connect 7 0 5 1;
#X connect 8 0 6 1;
#X connect 9 0 10 0;
#X connect 9 0 6 1;
#X connect 10 0 5 1;
#X connect 11 0 12 0;
#X connect 12 0 13 0;
#X connect 12 1 14 0;
#X connect 13 0 24 0;
#X connect 14 0 16 0;
#X connect 14 1 15 0;
#X connect 15 0 24 0;
#X connect 16 0 24 0;
#X connect 17 0 11 0;
#X connect 18 0 11 0;
#X connect 19 0 44 0;
#X connect 19 0 46 0;
#X connect 19 0 49 0;
#X connect 19 0 76 0;
#X connect 19 0 79 0;
#X connect 19 0 80 0;
#X connect 19 0 81 0;
#X connect 19 0 82 0;
#X connect 19 0 83 0;
#X connect 19 0 75 0;
#X connect 19 0 77 0;
#X connect 19 0 78 0;
#X connect 21 0 28 0;
#X connect 23 0 25 0;
#X connect 24 0 23 0;
#X connect 24 0 25 1;
#X connect 25 0 27 0;
#X connect 25 0 26 0;
#X connect 25 0 38 0;
#X connect 27 0 26 0;
#X connect 28 0 1 0;
#X connect 28 1 2 0;
#X connect 30 0 58 0;
#X connect 30 0 84 0;
#X connect 31 0 36 0;
#X connect 32 0 36 0;
#X connect 34 0 36 0;
#X connect 35 0 36 0;
#X connect 37 0 3 0;
#X connect 39 0 37 0;
#X connect 40 0 38 0;
#X connect 44 0 20 0;
#X connect 46 0 45 0;
#X connect 49 0 47 0;
#X connect 58 0 31 0;
#X connect 58 1 32 0;
#X connect 58 2 34 0;
#X connect 58 3 35 0;
#X connect 58 4 59 0;
#X connect 58 5 60 0;
#X connect 58 6 61 0;
#X connect 58 7 62 0;
#X connect 58 8 63 0;
#X connect 58 9 64 0;
#X connect 58 10 65 0;
#X connect 58 11 66 0;
#X connect 59 0 36 0;
#X connect 60 0 36 0;
#X connect 61 0 36 0;
#X connect 62 0 36 0;
#X connect 63 0 36 0;
#X connect 64 0 36 0;
#X connect 65 0 36 0;
#X connect 66 0 36 0;
#X connect 75 0 67 0;
#X connect 76 0 48 0;
#X connect 77 0 68 0;
#X connect 78 0 69 0;
#X connect 79 0 70 0;
#X connect 80 0 71 0;
#X connect 81 0 72 0;
#X connect 82 0 73 0;
#X connect 83 0 74 0;
