#N canvas 144 79 1540 697 10;
#X floatatom 1101 269 5 0 0 0 - - -, f 5;
#X obj 1207 241 select 0;
#X obj 1168 338 spigot;
#X obj 1221 338 spigot;
#X msg 1207 263 0;
#X msg 1207 285 1;
#X msg 1260 263 0;
#X msg 1260 285 1;
#X floatatom 1168 398 5 0 0 0 - - -, f 5;
#X obj 1168 420 moses 0;
#X msg 1168 446 0;
#X obj 1214 446 moses 1;
#X msg 1260 471 1;
#X floatatom 1214 474 5 0 0 0 - - -, f 5;
#X obj 1168 361 + 0.25;
#X obj 1221 361 - 0.25;
#X obj 1097 57 inlet;
#X text 37 121 pas from sequencer;
#X obj 1117 553 delay 1;
#X floatatom 1168 518 5 0 0 0 - - -, f 5;
#X obj 1197 570 f;
#X obj 1300 587 send to_osc;
#X msg 1300 563 set velo;
#X obj 849 56 inlet;
#X obj 1101 246 tabread;
#X obj 1168 602 tabwrite;
#X obj 849 351 list;
#X obj 1000 368 route list;
#X obj 1275 59 inlet;
#X text 1142 57 pas from nav;
#X text 1322 59 vel from nav;
#X text 894 56 idInstru from nav;
#X obj 1207 216 f;
#X obj 849 298 pack \$1 float;
#X obj 849 271 bng 15 250 50 0 empty empty empty 17 7 0 10 -262144
-1 -1;
#X msg 849 322 set \$1_vel_\$2;
#X obj 1117 211 f;
#X floatatom 898 88 5 0 0 0 - - -, f 5;
#X floatatom 1135 85 5 0 0 0 - - -, f 5;
#X floatatom 1296 87 5 0 0 0 - - -, f 5;
#X obj 1207 192 delay 1, f 8;
#X obj 1097 171 delay 2;
#X obj 39 145 inlet;
#N canvas 0 50 450 250 (subpatch) 0;
#X array \$1_tracks_volume 12 float 2;
#X coords 0 0 12 1 150 20 1 0 0;
#X restore 58 280 graph;
#X obj 245 284 loadbang;
#X obj 245 306 \$1;
#N canvas 0 50 450 250 (subpatch) 0;
#X array \$1_begin_mesure 12 float 2;
#X coords 0 0 12 48 150 20 1 0 0;
#X restore 59 318 graph;
#N canvas 0 50 450 250 (subpatch) 0;
#X array \$1_end_mesure 12 float 2;
#X coords 0 0 12 64 150 20 1 0 0;
#X restore 59 354 graph;
#X obj 334 291 bng 15 250 50 0 empty empty empty 17 7 0 10 -262144
-1 -1;
#X msg 245 328 \; \$1_tracks_volume 0 0.5 0.5 0.5 0.5 0.5 0.5 0.5 0.5
0.5 0.5 0.5 0.5, f 23;
#X msg 531 323 \; \$1_begin_mesure 0 0 0 0 0 0 0 0 0 0 0 0 0, f 22
;
#X obj 112 200 outlet;
#X obj 113 163 track \$1 1, f 6;
#X obj 162 200 outlet;
#X obj 212 200 outlet;
#X obj 263 200 outlet;
#X obj 313 200 outlet;
#X obj 363 200 outlet;
#X obj 413 200 outlet;
#X obj 464 200 outlet;
#X obj 515 200 outlet;
#X obj 565 200 outlet;
#X obj 615 200 outlet;
#X obj 666 200 outlet;
#X obj 162 162 track \$1 2, f 6;
#X obj 212 162 track \$1 3, f 6;
#X obj 263 162 track \$1 4, f 6;
#X obj 313 162 track \$1 5, f 6;
#X obj 363 162 track \$1 6, f 6;
#X obj 413 162 track \$1 7, f 6;
#X obj 464 162 track \$1 8, f 6;
#X obj 515 162 track \$1 9, f 6;
#X obj 565 162 track \$1 10, f 6;
#X obj 615 162 track \$1 11, f 6;
#X obj 666 162 track \$1 12, f 6;
#X msg 424 323 \; \$1_end_mesure 0 16 16 16 16 16 16 16 16 16 16 16
16, f 13;
#X connect 0 0 2 0;
#X connect 0 0 3 0;
#X connect 1 0 4 0;
#X connect 1 1 6 0;
#X connect 2 0 14 0;
#X connect 3 0 15 0;
#X connect 4 0 5 0;
#X connect 4 0 2 1;
#X connect 5 0 3 1;
#X connect 6 0 7 0;
#X connect 6 0 3 1;
#X connect 7 0 2 1;
#X connect 8 0 9 0;
#X connect 9 0 10 0;
#X connect 9 1 11 0;
#X connect 10 0 19 0;
#X connect 11 0 13 0;
#X connect 11 1 12 0;
#X connect 12 0 19 0;
#X connect 13 0 19 0;
#X connect 14 0 8 0;
#X connect 15 0 8 0;
#X connect 16 0 36 1;
#X connect 16 0 38 0;
#X connect 16 0 41 0;
#X connect 18 0 20 0;
#X connect 19 0 18 0;
#X connect 19 0 20 1;
#X connect 20 0 22 0;
#X connect 20 0 21 0;
#X connect 20 0 25 0;
#X connect 22 0 21 0;
#X connect 23 0 33 1;
#X connect 23 0 34 0;
#X connect 23 0 37 0;
#X connect 24 0 0 0;
#X connect 26 0 27 0;
#X connect 27 0 24 0;
#X connect 27 0 25 0;
#X connect 28 0 32 1;
#X connect 28 0 39 0;
#X connect 28 0 40 0;
#X connect 32 0 1 0;
#X connect 33 0 35 0;
#X connect 34 0 33 0;
#X connect 35 0 26 0;
#X connect 36 0 24 0;
#X connect 36 0 25 1;
#X connect 40 0 32 0;
#X connect 41 0 36 0;
#X connect 42 0 52 0;
#X connect 42 0 64 0;
#X connect 42 0 65 0;
#X connect 42 0 66 0;
#X connect 42 0 67 0;
#X connect 42 0 68 0;
#X connect 42 0 69 0;
#X connect 42 0 70 0;
#X connect 42 0 71 0;
#X connect 42 0 72 0;
#X connect 42 0 73 0;
#X connect 42 0 74 0;
#X connect 44 0 45 0;
#X connect 45 0 49 0;
#X connect 45 0 75 0;
#X connect 45 0 50 0;
#X connect 48 0 45 0;
#X connect 52 0 51 0;
#X connect 64 0 53 0;
#X connect 65 0 54 0;
#X connect 66 0 55 0;
#X connect 67 0 56 0;
#X connect 68 0 57 0;
#X connect 69 0 58 0;
#X connect 70 0 59 0;
#X connect 71 0 60 0;
#X connect 72 0 61 0;
#X connect 73 0 62 0;
#X connect 74 0 63 0;
