#N canvas 283 152 1265 953 10;
#N canvas 0 50 450 250 (subpatch) 0;
#X array vel_2 64 float 2;
#X coords 0 1 64 -1 200 20 1 0 0;
#X restore 59 596 graph;
#X floatatom 821 296 5 0 0 0 - - -, f 5;
#X floatatom 821 338 5 0 0 0 - - -, f 5;
#X obj 927 310 select 0;
#X obj 888 407 spigot;
#X obj 941 407 spigot;
#X msg 927 332 0;
#X msg 927 354 1;
#X msg 980 332 0;
#X msg 980 354 1;
#X floatatom 888 467 5 0 0 0 - - -, f 5;
#X obj 888 489 moses 0;
#X msg 888 515 0;
#X obj 934 515 moses 1;
#X msg 980 540 1;
#X floatatom 934 543 5 0 0 0 - - -, f 5;
#X obj 888 430 + 0.25;
#X obj 941 430 - 0.25;
#X obj 44 67 inlet;
#X obj 44 154 outlet;
#X obj 821 191 inlet;
#X text 42 38 pas from sequencer;
#X obj 837 622 delay 1;
#X floatatom 888 587 5 0 0 0 - - -, f 5;
#X obj 917 639 f;
#X obj 1020 656 send to_osc;
#X msg 1020 632 set velo;
#X obj 204 233 inlet;
#X obj 821 315 tabread;
#X obj 888 671 tabwrite;
#N canvas 0 50 450 250 (subpatch) 0;
#X array \$0_vel_1 64 float 2;
#X coords 0 1 64 -1 200 20 1 0 0;
#X restore 59 554 graph;
#N canvas 0 50 450 250 (subpatch) 0;
#X array vel_4 64 float 2;
#X coords 0 1 64 -1 200 20 1 0 0;
#X restore 59 678 graph;
#N canvas 0 50 450 250 (subpatch) 0;
#X array vel_3 64 float 2;
#X coords 0 1 64 -1 200 20 1 0 0;
#X restore 59 637 graph;
#X obj 144 154 outlet;
#X obj 144 130 tabread vel_2;
#X obj 244 154 outlet;
#X obj 344 154 outlet;
#X obj 244 130 tabread vel_3;
#N canvas 0 50 450 250 (subpatch) 0;
#X array vel_6 64 float 2;
#X coords 0 1 64 -1 200 20 1 0 0;
#X restore 267 596 graph;
#N canvas 0 50 450 250 (subpatch) 0;
#X array vel_5 64 float 2;
#X coords 0 1 64 -1 200 20 1 0 0;
#X restore 267 554 graph;
#N canvas 0 50 450 250 (subpatch) 0;
#X array vel_8 64 float 2;
#X coords 0 1 64 -1 200 20 1 0 0;
#X restore 267 678 graph;
#N canvas 0 50 450 250 (subpatch) 0;
#X array vel_7 64 float 2;
#X coords 0 1 64 -1 200 20 1 0 0;
#X restore 267 637 graph;
#N canvas 0 50 450 250 (subpatch) 0;
#X array vel_10 64 float 2;
#X coords 0 1 64 -1 200 20 1 0 0;
#X restore 475 596 graph;
#N canvas 0 50 450 250 (subpatch) 0;
#X array vel_9 64 float 2;
#X coords 0 1 64 -1 200 20 1 0 0;
#X restore 475 554 graph;
#N canvas 0 50 450 250 (subpatch) 0;
#X array vel_12 64 float 2;
#X coords 0 1 64 -1 200 20 1 0 0;
#X restore 475 678 graph;
#N canvas 0 50 450 250 (subpatch) 0;
#X array vel_11 64 float 2;
#X coords 0 1 64 -1 200 20 1 0 0;
#X restore 475 637 graph;
#X obj 444 154 outlet;
#X obj 544 154 outlet;
#X obj 644 154 outlet;
#X obj 744 154 outlet;
#X obj 845 154 outlet;
#X obj 945 154 outlet;
#X obj 1051 154 outlet;
#X obj 1157 154 outlet;
#X obj 444 130 tabread vel_5;
#X obj 344 130 tabread vel_4;
#X obj 544 130 tabread vel_6;
#X obj 644 130 tabread vel_7;
#X obj 744 130 tabread vel_8;
#X obj 845 130 tabread vel_9;
#X obj 945 130 tabread vel_10;
#X obj 1051 130 tabread vel_11;
#X obj 1157 130 tabread vel_12;
#X obj 138 279 print;
#X obj 204 420 list;
#X obj 720 437 route list;
#X obj 927 219 inlet;
#X text 866 191 pas from nav;
#X text 974 219 vel from nav;
#X text 249 233 idInstru from nav;
#X obj 927 260 delay 1, f 8;
#X obj 927 285 f;
#X obj 44 130 tabread \$0_vel_1;
#X msg 204 281 set \$0_vel_\$1;
#X connect 1 0 28 0;
#X connect 1 0 29 1;
#X connect 2 0 4 0;
#X connect 2 0 5 0;
#X connect 3 0 6 0;
#X connect 3 1 8 0;
#X connect 4 0 16 0;
#X connect 5 0 17 0;
#X connect 6 0 7 0;
#X connect 6 0 4 1;
#X connect 7 0 5 1;
#X connect 8 0 9 0;
#X connect 8 0 5 1;
#X connect 9 0 4 1;
#X connect 10 0 11 0;
#X connect 11 0 12 0;
#X connect 11 1 13 0;
#X connect 12 0 23 0;
#X connect 13 0 15 0;
#X connect 13 1 14 0;
#X connect 14 0 23 0;
#X connect 15 0 23 0;
#X connect 16 0 10 0;
#X connect 17 0 10 0;
#X connect 18 0 34 0;
#X connect 18 0 37 0;
#X connect 18 0 55 0;
#X connect 18 0 58 0;
#X connect 18 0 59 0;
#X connect 18 0 60 0;
#X connect 18 0 61 0;
#X connect 18 0 62 0;
#X connect 18 0 54 0;
#X connect 18 0 56 0;
#X connect 18 0 57 0;
#X connect 18 0 72 0;
#X connect 20 0 1 0;
#X connect 22 0 24 0;
#X connect 23 0 22 0;
#X connect 23 0 24 1;
#X connect 24 0 26 0;
#X connect 24 0 25 0;
#X connect 24 0 29 0;
#X connect 26 0 25 0;
#X connect 27 0 63 0;
#X connect 27 0 73 0;
#X connect 28 0 2 0;
#X connect 34 0 33 0;
#X connect 37 0 35 0;
#X connect 54 0 46 0;
#X connect 55 0 36 0;
#X connect 56 0 47 0;
#X connect 57 0 48 0;
#X connect 58 0 49 0;
#X connect 59 0 50 0;
#X connect 60 0 51 0;
#X connect 61 0 52 0;
#X connect 62 0 53 0;
#X connect 64 0 65 0;
#X connect 65 0 28 0;
#X connect 65 0 29 0;
#X connect 66 0 71 1;
#X connect 66 0 70 0;
#X connect 70 0 71 0;
#X connect 71 0 3 0;
#X connect 72 0 19 0;
#X connect 73 0 64 0;
