#N canvas 671 462 691 437 10;
#X obj 214 255 audioplayers, f 16;
#X obj 214 284 mute_box, f 16;
#X obj 213 380 outlet~;
#X obj 93 190 inlet;
#X obj 250 61 inlet;
#X obj 250 96 route 1 2;
#X obj 250 176 unpack f f f;
#X obj 214 207 partition3 1, f 16;
#X connect 0 0 1 0;
#X connect 0 1 1 1;
#X connect 0 2 1 2;
#X connect 0 3 1 3;
#X connect 0 4 1 4;
#X connect 0 5 1 5;
#X connect 0 6 1 6;
#X connect 0 7 1 7;
#X connect 0 8 1 8;
#X connect 0 9 1 9;
#X connect 0 10 1 10;
#X connect 0 11 1 11;
#X connect 1 0 2 0;
#X connect 3 0 7 0;
#X connect 4 0 5 0;
#X connect 5 0 6 0;
#X connect 6 0 7 1;
#X connect 6 1 7 2;
#X connect 6 2 7 3;
#X connect 7 0 0 0;
#X connect 7 1 0 1;
#X connect 7 2 0 2;
#X connect 7 3 0 3;
#X connect 7 4 0 4;
#X connect 7 5 0 5;
#X connect 7 6 0 6;
#X connect 7 7 0 7;
#X connect 7 8 0 8;
#X connect 7 9 0 9;
#X connect 7 10 0 10;
#X connect 7 11 0 11;
