#N canvas 2 133 1265 524 10;
#X obj 171 474 outlet~;
#X obj 199 191 unpack f f f;
#X obj 171 295 mute_box 1, f 16;
#X obj 171 218 partition 1, f 16;
#X obj 171 267 audioplayers 1, f 16;
#X obj 56 201 inlet;
#X obj 324 191 unpack f f f;
#X obj 450 191 unpack f f f;
#X obj 580 191 unpack f f f;
#X obj 296 295 mute_box 2, f 16;
#X obj 422 295 mute_box 3, f 16;
#X obj 552 295 mute_box 4, f 16;
#X obj 199 52 inlet;
#X obj 42 69 print partition;
#X obj 171 440 mute_rack, f 55;
#X obj 296 218 partition 2, f 16;
#X obj 422 218 partition 3, f 16;
#X obj 552 218 partition 4, f 16;
#N canvas 0 50 450 250 (subpatch) 0;
#X array rack_master 8 float 2;
#X coords 0 0 8 1 60 20 1 0 0;
#X restore 859 49 graph;
#X obj 296 267 audioplayers 2, f 16;
#X obj 422 267 audioplayers 3, f 16;
#X obj 552 267 audioplayers 4, f 16;
#X obj 171 329 rack_master 1;
#X obj 296 329 rack_master 2;
#X obj 423 329 rack_master 3;
#X obj 551 329 rack_master 4;
#X obj 434 30 loadbang;
#X obj 706 192 unpack f f f;
#X obj 831 192 unpack f f f;
#X obj 957 192 unpack f f f;
#X obj 1087 192 unpack f f f;
#X obj 199 120 route 1 2 3 4 5 6 7 8;
#X msg 434 55 \; rack_master 0 0.5 0.5 0.5 0.5 0.5 0.5 0.5 0.5 \;,
f 54;
#X obj 678 330 rack_master 5;
#X obj 803 330 rack_master 6;
#X obj 930 330 rack_master 7;
#X obj 1058 330 rack_master 8;
#X obj 678 219 partition 5, f 16;
#X obj 803 219 partition 6, f 16;
#X obj 929 219 partition 7, f 16;
#X obj 1059 219 partition 8, f 16;
#X obj 678 268 audioplayers 5, f 16;
#X obj 803 267 audioplayers 6, f 16;
#X obj 929 268 audioplayers 7, f 16;
#X obj 1059 269 audioplayers 8, f 16;
#X obj 678 296 mute_box 5, f 16;
#X obj 803 296 mute_box 6, f 16;
#X obj 929 296 mute_box 7, f 16;
#X obj 1059 296 mute_box 8, f 16;
#X connect 1 0 3 1;
#X connect 1 1 3 2;
#X connect 1 2 3 3;
#X connect 2 0 22 0;
#X connect 3 0 4 0;
#X connect 3 1 4 1;
#X connect 3 2 4 2;
#X connect 3 3 4 3;
#X connect 3 4 4 4;
#X connect 3 5 4 5;
#X connect 3 6 4 6;
#X connect 3 7 4 7;
#X connect 3 8 4 8;
#X connect 3 9 4 9;
#X connect 3 10 4 10;
#X connect 3 11 4 11;
#X connect 4 0 2 0;
#X connect 4 1 2 1;
#X connect 4 2 2 2;
#X connect 4 3 2 3;
#X connect 4 4 2 4;
#X connect 4 5 2 5;
#X connect 4 6 2 6;
#X connect 4 7 2 7;
#X connect 4 8 2 8;
#X connect 4 9 2 9;
#X connect 4 10 2 10;
#X connect 4 11 2 11;
#X connect 5 0 3 0;
#X connect 5 0 15 0;
#X connect 5 0 16 0;
#X connect 5 0 17 0;
#X connect 5 0 37 0;
#X connect 5 0 38 0;
#X connect 5 0 39 0;
#X connect 5 0 40 0;
#X connect 6 0 15 1;
#X connect 6 1 15 2;
#X connect 6 2 15 3;
#X connect 7 0 16 1;
#X connect 7 1 16 2;
#X connect 7 2 16 3;
#X connect 8 0 17 1;
#X connect 8 1 17 2;
#X connect 8 2 17 3;
#X connect 9 0 23 0;
#X connect 10 0 24 0;
#X connect 11 0 25 0;
#X connect 12 0 13 0;
#X connect 12 0 31 0;
#X connect 14 0 0 0;
#X connect 15 0 19 0;
#X connect 15 1 19 1;
#X connect 15 2 19 2;
#X connect 15 3 19 3;
#X connect 15 4 19 4;
#X connect 15 5 19 5;
#X connect 15 6 19 6;
#X connect 15 7 19 7;
#X connect 15 8 19 8;
#X connect 15 9 19 9;
#X connect 15 10 19 10;
#X connect 15 11 19 11;
#X connect 16 0 20 0;
#X connect 16 1 20 1;
#X connect 16 2 20 2;
#X connect 16 3 20 3;
#X connect 16 4 20 4;
#X connect 16 5 20 5;
#X connect 16 6 20 6;
#X connect 16 7 20 7;
#X connect 16 8 20 8;
#X connect 16 9 20 9;
#X connect 16 10 20 10;
#X connect 16 11 20 11;
#X connect 17 0 21 0;
#X connect 17 1 21 1;
#X connect 17 2 21 2;
#X connect 17 3 21 3;
#X connect 17 4 21 4;
#X connect 17 5 21 5;
#X connect 17 6 21 6;
#X connect 17 7 21 7;
#X connect 17 8 21 8;
#X connect 17 9 21 9;
#X connect 17 10 21 10;
#X connect 17 11 21 11;
#X connect 19 0 9 0;
#X connect 19 1 9 1;
#X connect 19 2 9 2;
#X connect 19 3 9 3;
#X connect 19 4 9 4;
#X connect 19 5 9 5;
#X connect 19 6 9 6;
#X connect 19 7 9 7;
#X connect 19 8 9 8;
#X connect 19 9 9 9;
#X connect 19 10 9 10;
#X connect 19 11 9 11;
#X connect 20 0 10 0;
#X connect 20 1 10 1;
#X connect 20 2 10 2;
#X connect 20 3 10 3;
#X connect 20 4 10 4;
#X connect 20 5 10 5;
#X connect 20 6 10 6;
#X connect 20 7 10 7;
#X connect 20 8 10 8;
#X connect 20 9 10 9;
#X connect 20 10 10 10;
#X connect 20 11 10 11;
#X connect 21 0 11 0;
#X connect 21 1 11 1;
#X connect 21 2 11 2;
#X connect 21 3 11 3;
#X connect 21 4 11 4;
#X connect 21 5 11 5;
#X connect 21 6 11 6;
#X connect 21 7 11 7;
#X connect 21 8 11 8;
#X connect 21 9 11 9;
#X connect 21 10 11 10;
#X connect 21 11 11 11;
#X connect 22 0 14 0;
#X connect 23 0 14 1;
#X connect 24 0 14 2;
#X connect 25 0 14 3;
#X connect 26 0 32 0;
#X connect 27 0 37 1;
#X connect 27 1 37 2;
#X connect 27 2 37 3;
#X connect 28 0 38 1;
#X connect 28 1 38 2;
#X connect 28 2 38 3;
#X connect 29 0 39 1;
#X connect 29 1 39 2;
#X connect 29 2 39 3;
#X connect 30 0 40 1;
#X connect 30 1 40 2;
#X connect 30 2 40 3;
#X connect 31 0 1 0;
#X connect 31 1 6 0;
#X connect 31 2 7 0;
#X connect 31 3 8 0;
#X connect 31 4 27 0;
#X connect 31 5 28 0;
#X connect 31 6 29 0;
#X connect 31 7 30 0;
#X connect 33 0 14 4;
#X connect 34 0 14 5;
#X connect 35 0 14 6;
#X connect 36 0 14 7;
#X connect 37 0 41 0;
#X connect 37 1 41 1;
#X connect 37 2 41 2;
#X connect 37 3 41 3;
#X connect 37 4 41 4;
#X connect 37 5 41 5;
#X connect 37 6 41 6;
#X connect 37 7 41 7;
#X connect 37 8 41 8;
#X connect 37 9 41 9;
#X connect 37 10 41 10;
#X connect 37 11 41 11;
#X connect 38 0 42 0;
#X connect 38 1 42 1;
#X connect 38 2 42 2;
#X connect 38 3 42 3;
#X connect 38 4 42 4;
#X connect 38 5 42 5;
#X connect 38 6 42 6;
#X connect 38 7 42 7;
#X connect 38 8 42 8;
#X connect 38 9 42 9;
#X connect 38 10 42 10;
#X connect 38 11 42 11;
#X connect 39 0 43 0;
#X connect 39 1 43 1;
#X connect 39 2 43 2;
#X connect 39 3 43 3;
#X connect 39 4 43 4;
#X connect 39 5 43 5;
#X connect 39 6 43 6;
#X connect 39 7 43 7;
#X connect 39 8 43 8;
#X connect 39 9 43 9;
#X connect 39 10 43 10;
#X connect 39 11 43 11;
#X connect 40 0 44 0;
#X connect 40 1 44 1;
#X connect 40 2 44 2;
#X connect 40 3 44 3;
#X connect 40 4 44 4;
#X connect 40 5 44 5;
#X connect 40 6 44 6;
#X connect 40 7 44 7;
#X connect 40 8 44 8;
#X connect 40 9 44 9;
#X connect 40 10 44 10;
#X connect 40 11 44 11;
#X connect 41 0 45 0;
#X connect 41 1 45 1;
#X connect 41 2 45 2;
#X connect 41 3 45 3;
#X connect 41 4 45 4;
#X connect 41 5 45 5;
#X connect 41 6 45 6;
#X connect 41 7 45 7;
#X connect 41 8 45 8;
#X connect 41 9 45 9;
#X connect 41 10 45 10;
#X connect 41 11 45 11;
#X connect 42 0 46 0;
#X connect 42 1 46 1;
#X connect 42 2 46 2;
#X connect 42 3 46 3;
#X connect 42 4 46 4;
#X connect 42 5 46 5;
#X connect 42 6 46 6;
#X connect 42 7 46 7;
#X connect 42 8 46 8;
#X connect 42 9 46 9;
#X connect 42 10 46 10;
#X connect 42 11 46 11;
#X connect 43 0 47 0;
#X connect 43 1 47 1;
#X connect 43 2 47 2;
#X connect 43 3 47 3;
#X connect 43 4 47 4;
#X connect 43 5 47 5;
#X connect 43 6 47 6;
#X connect 43 7 47 7;
#X connect 43 8 47 8;
#X connect 43 9 47 9;
#X connect 43 10 47 10;
#X connect 43 11 47 11;
#X connect 44 0 48 0;
#X connect 44 1 48 1;
#X connect 44 2 48 2;
#X connect 44 3 48 3;
#X connect 44 4 48 4;
#X connect 44 5 48 5;
#X connect 44 6 48 6;
#X connect 44 7 48 7;
#X connect 44 8 48 8;
#X connect 44 9 48 9;
#X connect 44 10 48 10;
#X connect 44 11 48 11;
#X connect 45 0 33 0;
#X connect 46 0 34 0;
#X connect 47 0 35 0;
#X connect 48 0 36 0;
