#N canvas 516 236 450 442 10;
#X floatatom 206 321 5 0 0 0 - - -, f 5;
#X obj 206 223 \$1;
#X obj 206 140 bng 15 250 50 0 empty empty empty 17 7 0 10 -262144
-1 -1;
#X obj 67 307 inlet~;
#X obj 67 360 outlet~;
#X obj 66 335 *~;
#X obj 245 98 receive idRack;
#X obj 245 122 route \$1;
#X msg 245 150 1;
#X msg 298 149 0;
#X obj 206 190 spigot;
#X obj 206 37 receive changeRackMaster;
#X obj 77 206 loadbang;
#X obj 32 143 receive loadRackMaster;
#X obj 206 290 tabread rack_master;
#X obj 206 255 - 1;
#X obj 77 235 delay 1;
#X connect 0 0 5 1;
#X connect 1 0 15 0;
#X connect 2 0 10 0;
#X connect 3 0 5 0;
#X connect 5 0 4 0;
#X connect 6 0 7 0;
#X connect 7 0 8 0;
#X connect 7 1 9 0;
#X connect 8 0 10 1;
#X connect 9 0 10 1;
#X connect 10 0 1 0;
#X connect 11 0 2 0;
#X connect 12 0 16 0;
#X connect 13 0 1 0;
#X connect 14 0 0 0;
#X connect 15 0 14 0;
#X connect 16 0 1 0;
