#N canvas 316 148 577 566 10;
#X text 66 106 pas from sequencer;
#X obj 237 26 receive idRack;
#X obj 237 84 route \$1;
#X obj 237 138 bng 15 250 50 0 empty empty empty 17 7 0 10 -262144
-1 -1;
#X obj 237 218 send nbRackMesures;
#X msg 248 110 1;
#X msg 298 109 0;
#X obj 281 153 spigot;
#X obj 357 137 receive newRackMesures;
#X obj 237 170 4;
#X obj 166 187 * 4;
#X obj 69 228 moses;
#X obj 69 183 f;
#X obj 69 261 + 1;
#X msg 101 261 0;
#X obj 166 211 - 1;
#X obj 69 123 inlet;
#X obj 69 151 bng 15 250 50 0 empty empty empty 17 7 0 10 -262144 -1
-1;
#X floatatom 119 206 5 0 0 0 - - -, f 5;
#X obj 154 55 loadbang;
#X obj 259 286 seq_to_osc;
#X obj 259 249 spigot;
#X obj 157 330 spigot;
#X msg 196 300 1;
#X obj 67 295 receive sync;
#X msg 233 331 0;
#X obj 34 342 outlet;
#X connect 1 0 2 0;
#X connect 2 0 3 0;
#X connect 2 0 5 0;
#X connect 2 1 6 0;
#X connect 3 0 9 0;
#X connect 5 0 7 1;
#X connect 5 0 21 1;
#X connect 6 0 7 1;
#X connect 6 0 21 1;
#X connect 7 0 9 0;
#X connect 8 0 7 0;
#X connect 9 0 4 0;
#X connect 9 0 10 0;
#X connect 10 0 15 0;
#X connect 10 0 18 0;
#X connect 11 0 13 0;
#X connect 11 1 14 0;
#X connect 12 0 11 0;
#X connect 12 0 21 0;
#X connect 12 0 26 0;
#X connect 13 0 12 1;
#X connect 14 0 12 1;
#X connect 15 0 11 1;
#X connect 15 0 23 0;
#X connect 16 0 17 0;
#X connect 17 0 12 0;
#X connect 19 0 3 0;
#X connect 21 0 20 0;
#X connect 22 0 25 0;
#X connect 22 0 14 0;
#X connect 23 0 22 1;
#X connect 24 0 22 0;
#X connect 25 0 22 1;
