#N canvas 566 102 655 402 10;
#X obj 69 48 inlet;
#X obj 61 334 tabwrite rack_master;
#X obj 188 65 print rmr0;
#X obj 69 112 unpack f f;
#X obj 346 210 tabread rack_master;
#X floatatom 346 267 5 0 0 0 - - -, f 5;
#X msg 346 152 0;
#X msg 379 152 1;
#X msg 417 152 2;
#X msg 451 152 3;
#X msg 491 152 4;
#X obj 371 241 bng 15 250 50 0 empty empty empty 17 7 0 10 -262144
-1 -1;
#X obj 136 151 / 100;
#X msg 527 152 5;
#X text 339 125 debug;
#X obj 235 333 send loadRackMaster;
#X obj 235 306 delay 1;
#X obj 69 211 + 1;
#X connect 0 0 3 0;
#X connect 3 0 16 0;
#X connect 3 0 17 0;
#X connect 3 1 12 0;
#X connect 4 0 5 0;
#X connect 4 0 11 0;
#X connect 6 0 4 0;
#X connect 7 0 4 0;
#X connect 8 0 4 0;
#X connect 9 0 4 0;
#X connect 10 0 4 0;
#X connect 12 0 1 0;
#X connect 13 0 4 0;
#X connect 16 0 15 0;
#X connect 17 0 1 1;
