#N canvas 217 313 428 336 10;
#X obj 154 98 inlet;
#X text 207 99 id_instru;
#X obj 213 67 inlet;
#X text 323 127 velocite;
#X text 271 68 id_pas;
#X obj 272 126 inlet;
#X obj 37 143 bng 15 250 50 0 empty empty empty 17 7 0 10 -262144 -1
-1;
#X obj 37 166 delay 1;
#X obj 37 219 route 0;
#X obj 37 245 outlet;
#X obj 95 53 inlet;
#X text 145 54 id_rack;
#X obj 37 193 pack float float float float float;
#X connect 0 0 12 2;
#X connect 2 0 12 3;
#X connect 5 0 6 0;
#X connect 5 0 12 4;
#X connect 6 0 7 0;
#X connect 7 0 12 0;
#X connect 8 0 9 0;
#X connect 10 0 12 1;
#X connect 12 0 8 0;
