#N canvas 204 313 831 336 10;
#X obj 513 92 inlet;
#X text 566 93 id_instru;
#X obj 572 61 inlet;
#X text 682 121 velocite;
#X text 630 62 id_pas;
#X obj 631 120 inlet;
#X obj 396 137 bng 15 250 50 0 empty empty empty 17 7 0 10 -262144
-1 -1;
#X obj 396 160 delay 1;
#X obj 396 213 route 0;
#X obj 63 67 loadbang;
#X obj 63 219 send to_osc;
#X msg 63 195 set idInstru;
#X msg 63 92 1;
#X obj 396 239 outlet;
#X obj 176 109 send idInstru;
#X obj 454 47 inlet;
#X text 504 48 id_rack;
#X obj 396 187 pack float float float float float;
#X connect 0 0 11 0;
#X connect 0 0 10 0;
#X connect 0 0 14 0;
#X connect 0 0 17 2;
#X connect 2 0 17 3;
#X connect 5 0 6 0;
#X connect 5 0 17 4;
#X connect 6 0 7 0;
#X connect 7 0 17 0;
#X connect 8 0 13 0;
#X connect 9 0 12 0;
#X connect 11 0 10 0;
#X connect 12 0 11 0;
#X connect 12 0 10 0;
#X connect 12 0 14 0;
#X connect 12 0 17 1;
#X connect 12 0 17 2;
#X connect 15 0 17 1;
#X connect 17 0 8 0;
