#N canvas 116 234 521 499 10;
#X obj 79 268 metro;
#X floatatom 160 182 5 0 0 0 - - -, f 5;
#X obj 79 151 tgl 15 0 empty empty empty 17 7 0 10 -262144 -1 -1 0
1;
#X text 195 183 bpm;
#X obj 106 196 /;
#X floatatom 106 241 5 0 0 0 - - -, f 5;
#X msg 106 166 60000;
#X obj 79 395 bng 15 250 50 0 empty empty empty 17 7 0 10 -262144 -1
-1;
#X msg 79 420 0;
#X obj 118 420 + 1;
#X floatatom 79 333 5 0 0 0 - - -, f 5;
#X obj 160 347 outlet;
#X obj 79 119 inlet;
#X obj 160 206 bng 15 250 50 0 empty empty empty 17 7 0 10 -262144
-1 -1;
#X obj 160 77 inlet;
#X obj 79 310 0;
#X obj 79 369 route 63;
#X obj 106 219 / 4;
#X obj 335 218 send to_osc;
#X obj 335 242 send from_bpm;
#X msg 335 196 set BPM;
#X obj 296 403 receive Stoped;
#X msg 335 440 set playPause;
#X obj 335 468 send to_osc;
#X msg 296 439 2;
#X connect 0 0 15 0;
#X connect 1 0 4 1;
#X connect 1 0 13 0;
#X connect 1 0 20 0;
#X connect 1 0 18 0;
#X connect 1 0 19 0;
#X connect 2 0 0 0;
#X connect 2 0 6 0;
#X connect 4 0 17 0;
#X connect 5 0 0 1;
#X connect 6 0 4 0;
#X connect 7 0 8 0;
#X connect 8 0 15 1;
#X connect 9 0 15 1;
#X connect 10 0 11 0;
#X connect 10 0 16 0;
#X connect 12 0 2 0;
#X connect 13 0 4 0;
#X connect 14 0 1 0;
#X connect 15 0 10 0;
#X connect 16 0 7 0;
#X connect 16 1 9 0;
#X connect 17 0 5 0;
#X connect 20 0 18 0;
#X connect 21 0 8 0;
#X connect 21 0 24 0;
#X connect 22 0 23 0;
#X connect 24 0 22 0;
#X connect 24 0 23 0;
