#N canvas 523 188 260 406 10;
#X obj 62 199 metro;
#X floatatom 143 113 5 0 0 0 - - -, f 5;
#X obj 62 82 tgl 15 0 empty empty empty 17 7 0 10 -262144 -1 -1 1 1
;
#X text 178 114 bpm;
#X obj 89 127 /;
#X floatatom 89 172 5 0 0 0 - - -, f 5;
#X msg 89 97 60000;
#X obj 62 326 bng 15 250 50 0 empty empty empty 17 7 0 10 -262144 -1
-1;
#X msg 62 351 0;
#X obj 101 351 + 1;
#X floatatom 62 264 5 0 0 0 - - -, f 5;
#X msg 143 79 120;
#X obj 143 49 loadbang;
#X obj 143 278 outlet;
#X obj 62 50 inlet;
#X obj 143 137 bng 15 250 50 0 empty empty empty 17 7 0 10 -262144
-1 -1;
#X obj 187 8 inlet;
#X obj 62 241 0;
#X obj 62 300 route 63;
#X obj 89 150 / 4;
#X connect 0 0 17 0;
#X connect 1 0 4 1;
#X connect 1 0 15 0;
#X connect 2 0 0 0;
#X connect 2 0 6 0;
#X connect 4 0 19 0;
#X connect 5 0 0 1;
#X connect 6 0 4 0;
#X connect 7 0 8 0;
#X connect 8 0 17 1;
#X connect 9 0 17 1;
#X connect 10 0 13 0;
#X connect 10 0 18 0;
#X connect 11 0 1 0;
#X connect 12 0 11 0;
#X connect 14 0 2 0;
#X connect 15 0 4 0;
#X connect 16 0 1 0;
#X connect 17 0 10 0;
#X connect 18 0 7 0;
#X connect 18 1 9 0;
#X connect 19 0 5 0;
