#N canvas 478 108 563 697 10;
#X obj 79 268 metro;
#X floatatom 160 123 5 0 0 0 - - -, f 5;
#X obj 79 92 tgl 15 0 empty empty empty 17 7 0 10 -262144 -1 -1 0 1
;
#X text 206 18 bpm;
#X obj 106 196 /;
#X floatatom 106 241 5 0 0 0 - - -, f 5;
#X msg 106 107 60000;
#X obj 125 600 bng 15 250 50 0 empty empty empty 17 7 0 10 -262144
-1 -1;
#X msg 125 625 0;
#X obj 79 599 + 1;
#X floatatom 79 534 5 0 0 0 - - -, f 5;
#X obj 160 548 outlet;
#X obj 79 60 inlet;
#X obj 160 206 bng 15 250 50 0 empty empty empty 17 7 0 10 -262144
-1 -1;
#X obj 160 18 inlet;
#X obj 79 511 0;
#X obj 106 219 / 4;
#X obj 237 159 send to_osc;
#X obj 237 183 send from_bpm;
#X msg 237 137 set BPM;
#X obj 234 583 receive Stoped;
#X msg 273 620 set playPause;
#X obj 273 648 send to_osc;
#X msg 234 619 2;
#X text 128 60 playPause;
#X obj 125 491 - 1;
#X obj 125 468 *;
#X obj 125 428 bng 15 250 50 0 empty empty empty 17 7 0 10 -262144
-1 -1;
#X obj 125 447 4;
#X floatatom 125 514 5 0 0 0 - - -, f 5;
#X text 152 470 nbPas;
#X floatatom 195 485 5 0 0 0 - - -, f 5;
#X floatatom 143 410 5 0 0 0 - - -, f 5;
#X obj 125 356 delay 1;
#X obj 134 317 loadbang;
#X obj 79 570 moses, f 7;
#X obj 125 655 send sync;
#X floatatom 160 162 5 0 0 0 - - -, f 5;
#X obj 27 145 receive loadBpm;
#X msg 143 385 16;
#X obj 423 548 print seq;
#X msg 185 600 0;
#X connect 0 0 15 0;
#X connect 1 0 19 0;
#X connect 1 0 17 0;
#X connect 1 0 18 0;
#X connect 1 0 37 0;
#X connect 2 0 0 0;
#X connect 2 0 6 0;
#X connect 4 0 16 0;
#X connect 5 0 0 1;
#X connect 6 0 4 0;
#X connect 7 0 8 0;
#X connect 8 0 36 0;
#X connect 8 0 15 1;
#X connect 9 0 15 1;
#X connect 10 0 11 0;
#X connect 10 0 35 0;
#X connect 12 0 2 0;
#X connect 13 0 4 0;
#X connect 14 0 1 0;
#X connect 15 0 10 0;
#X connect 16 0 5 0;
#X connect 19 0 17 0;
#X connect 20 0 23 0;
#X connect 20 0 41 0;
#X connect 21 0 22 0;
#X connect 23 0 21 0;
#X connect 23 0 22 0;
#X connect 25 0 29 0;
#X connect 26 0 25 0;
#X connect 26 0 31 0;
#X connect 27 0 28 0;
#X connect 28 0 26 0;
#X connect 29 0 35 1;
#X connect 32 0 26 1;
#X connect 33 0 27 0;
#X connect 34 0 33 0;
#X connect 34 0 39 0;
#X connect 35 0 9 0;
#X connect 35 1 7 0;
#X connect 37 0 13 0;
#X connect 37 0 4 1;
#X connect 38 0 37 0;
#X connect 39 0 32 0;
#X connect 41 0 15 0;
