#N canvas 0 71 1280 953 10;
#X obj 40 98 list;
#X obj 40 135 route 0 47 42 45 55 56 57 52 53 54 49 50 51 48 43 10
127;
#X obj 40 325 route Num_Lock KP_Home KP_Up KP_Prior KP_Left KP_Begin
KP_Right KP_End KP_Down KP_Next KP_Insert;
#X obj 108 191 send 0_0;
#X obj 360 167 send 0_1;
#X obj 383 192 send 0_2;
#X obj 85 215 send 1_0;
#X obj 177 215 send 1_1;
#X obj 245 215 send 1_2;
#X obj 314 215 send 1_3;
#X obj 406 215 send 1_4;
#X obj 62 246 send 2_0;
#X obj 154 246 send 2_1;
#X obj 223 246 send 2_2;
#X obj 291 246 send 2_3;
#X obj 337 269 send 2_4;
#X obj 131 286 send 3_1;
#X obj 200 286 send 3_2;
#X obj 268 286 send 3_3;
#X obj 40 380 send 3_0;
#X obj 74 402 send 3_1;
#X obj 176 402 send 3_2;
#X obj 278 402 send 3_3;
#X obj 108 436 send 2_1;
#X obj 210 436 send 2_2;
#X obj 312 436 send 2_3;
#X obj 142 375 send 1_1;
#X obj 244 375 send 1_2;
#X obj 346 375 send 1_3;
#X obj 380 436 send 2_4;
#X obj 571 42 receive 0_0;
#X obj 570 86 receive 0_1;
#X obj 570 130 receive 0_2;
#X obj 567 263 receive 1_0;
#X obj 567 307 receive 1_1;
#X obj 567 353 receive 1_2;
#X obj 567 399 receive 1_3;
#X obj 569 174 receive 1_4;
#X obj 766 41 receive 2_0;
#X obj 766 86 receive 2_1;
#X obj 766 132 receive 2_2;
#X obj 766 177 receive 2_3;
#X obj 568 219 receive 2_4;
#X obj 765 222 receive 3_0;
#X obj 765 267 receive 3_1;
#X obj 764 312 receive 3_2;
#X obj 764 358 receive 3_3;
#X obj 680 460 outlet;
#X text 79 98 intervenir ici pour les combinaisons de touches;
#X text 940 222 0;
#X text 977 222 1;
#X text 1052 222 2;
#X text 1090 250 3;
#X text 1090 279 4;
#X text 940 250 5;
#X text 977 250 6;
#X text 1015 250 7;
#X text 1052 250 8;
#X text 940 279 9;
#X text 977 279 10;
#X text 1015 279 11;
#X text 1052 279 12;
#X text 940 306 13;
#X text 977 306 14;
#X text 1015 307 15;
#X text 1053 307 16;
#X text 940 187 numéros des touches du clavier :outlet;
#X obj 19 29 keyname;
#X obj 40 61 keyup;
#X msg 571 62 0;
#X msg 570 106 1;
#X msg 570 150 2;
#X msg 568 241 4;
#X msg 567 328 6;
#X msg 567 420 8;
#X msg 766 107 10;
#X msg 766 197 12;
#X msg 765 288 14;
#X msg 764 380 16;
#X msg 569 195 3;
#X msg 567 285 5;
#X msg 567 374 7;
#X msg 766 62 9;
#X msg 766 153 11;
#X msg 765 245 13;
#X msg 764 334 15;
#X connect 0 0 1 0;
#X connect 1 0 2 0;
#X connect 1 1 11 0;
#X connect 1 2 6 0;
#X connect 1 3 3 0;
#X connect 1 4 16 0;
#X connect 1 5 12 0;
#X connect 1 6 7 0;
#X connect 1 7 17 0;
#X connect 1 8 13 0;
#X connect 1 9 8 0;
#X connect 1 10 18 0;
#X connect 1 11 14 0;
#X connect 1 12 9 0;
#X connect 1 13 15 0;
#X connect 1 14 4 0;
#X connect 1 15 5 0;
#X connect 1 16 10 0;
#X connect 2 0 19 0;
#X connect 2 1 20 0;
#X connect 2 2 23 0;
#X connect 2 3 26 0;
#X connect 2 4 21 0;
#X connect 2 5 24 0;
#X connect 2 6 27 0;
#X connect 2 7 22 0;
#X connect 2 8 25 0;
#X connect 2 9 28 0;
#X connect 2 10 29 0;
#X connect 30 0 69 0;
#X connect 31 0 70 0;
#X connect 32 0 71 0;
#X connect 33 0 80 0;
#X connect 34 0 73 0;
#X connect 35 0 81 0;
#X connect 36 0 74 0;
#X connect 37 0 79 0;
#X connect 38 0 82 0;
#X connect 39 0 75 0;
#X connect 40 0 83 0;
#X connect 41 0 76 0;
#X connect 42 0 72 0;
#X connect 43 0 84 0;
#X connect 44 0 77 0;
#X connect 45 0 85 0;
#X connect 46 0 78 0;
#X connect 67 1 0 1;
#X connect 68 0 0 0;
#X connect 69 0 47 0;
#X connect 70 0 47 0;
#X connect 71 0 47 0;
#X connect 72 0 47 0;
#X connect 73 0 47 0;
#X connect 74 0 47 0;
#X connect 75 0 47 0;
#X connect 76 0 47 0;
#X connect 77 0 47 0;
#X connect 78 0 47 0;
#X connect 79 0 47 0;
#X connect 80 0 47 0;
#X connect 81 0 47 0;
#X connect 82 0 47 0;
#X connect 83 0 47 0;
#X connect 84 0 47 0;
#X connect 85 0 47 0;
