#N canvas 158 139 748 583 10;
#X obj 251 375 tabread \$1_begin_mesure;
#X obj 52 116 inlet;
#X obj 52 178 bng 15 250 50 0 empty empty empty 17 7 0 10 -262144 -1
-1;
#X obj 251 354 \$2;
#X floatatom 292 175 5 0 0 0 - - -, f 5;
#X obj 52 249 moses;
#X obj 52 215 0;
#X obj 52 309 f;
#X obj 251 336 bng 15 250 50 0 empty empty empty 17 7 0 10 -262144
-1 -1;
#X obj 52 270 + 1;
#X obj 292 232 - 1;
#X msg 84 270 0;
#N canvas 178 177 450 250 (subpatch) 0;
#X array \$1_vel_\$2 64 float 2;
#X coords 0 1 64 -1 200 20 1 0 0;
#X restore 213 522 graph;
#X obj 52 520 outlet;
#X floatatom 125 510 5 0 0 0 - - -, f 5;
#X obj 52 467 tabread \$1_vel_\$2, f 7;
#X obj 251 301 receive changeBeginMesure;
#X obj 292 154 tabread \$1_end_mesure;
#X floatatom 52 433 5 0 0 0 - - -, f 5;
#X obj 292 133 \$2;
#X obj 292 114 bng 15 250 50 0 empty empty empty 17 7 0 10 -262144
-1 -1;
#X obj 292 87 receive changeEndMesure;
#X floatatom 251 398 5 0 0 0 - - -, f 5;
#X obj 52 347 +;
#X obj 52 378 moses 64;
#X obj 105 404 - 64;
#X obj 506 338 receive idRack;
#X obj 506 361 route \$1;
#X msg 506 385 1;
#X msg 559 385 0;
#X msg 585 460 1;
#X msg 638 460 0;
#X obj 585 413 receive idInstru;
#X obj 585 436 route \$2;
#X obj 467 506 seq_to_osc;
#X obj 126 75 loadbang;
#X obj 126 97 delay 2;
#X obj 467 447 spigot;
#X obj 467 477 spigot;
#X obj 519 170 receive changeEndMesure;
#X obj 519 214 route \$2;
#X msg 519 236 1;
#X obj 519 192 route \$1;
#X obj 136 253 spigot;
#X msg 173 291 0;
#X obj 136 222 receive sync;
#X connect 0 0 22 0;
#X connect 1 0 2 0;
#X connect 2 0 6 0;
#X connect 3 0 0 0;
#X connect 4 0 10 0;
#X connect 5 0 9 0;
#X connect 5 1 11 0;
#X connect 6 0 5 0;
#X connect 7 0 6 1;
#X connect 7 0 23 0;
#X connect 8 0 3 0;
#X connect 9 0 7 0;
#X connect 10 0 5 1;
#X connect 11 0 7 0;
#X connect 15 0 13 0;
#X connect 15 0 14 0;
#X connect 16 0 8 0;
#X connect 17 0 4 0;
#X connect 18 0 15 0;
#X connect 18 0 37 0;
#X connect 19 0 17 0;
#X connect 20 0 19 0;
#X connect 21 0 20 0;
#X connect 22 0 23 1;
#X connect 23 0 24 0;
#X connect 24 0 18 0;
#X connect 24 1 25 0;
#X connect 25 0 18 0;
#X connect 26 0 27 0;
#X connect 27 0 28 0;
#X connect 27 1 29 0;
#X connect 28 0 37 1;
#X connect 29 0 37 1;
#X connect 30 0 38 1;
#X connect 31 0 38 1;
#X connect 32 0 33 0;
#X connect 33 0 30 0;
#X connect 33 1 31 0;
#X connect 35 0 36 0;
#X connect 36 0 20 0;
#X connect 36 0 8 0;
#X connect 37 0 38 0;
#X connect 38 0 34 0;
#X connect 39 0 42 0;
#X connect 40 0 41 0;
#X connect 41 0 43 1;
#X connect 42 0 40 0;
#X connect 43 0 11 0;
#X connect 43 0 44 0;
#X connect 44 0 43 1;
#X connect 45 0 43 0;
