#N canvas 408 208 358 456 10;
#X obj 17 52 receive fileN;
#X obj 17 147 route 1 2 3 4 5 6 7 8 9 10 11 12;
#X obj 17 314 outlet;
#X obj 35 340 outlet;
#X obj 53 365 outlet;
#X obj 72 391 outlet;
#X obj 90 314 outlet;
#X obj 109 340 outlet;
#X obj 127 365 outlet;
#X obj 145 391 outlet;
#X obj 164 314 outlet;
#X obj 182 340 outlet;
#X obj 201 365 outlet;
#X obj 219 391 outlet;
#X obj 17 102 route \$1;
#X connect 0 0 14 0;
#X connect 1 0 2 0;
#X connect 1 1 3 0;
#X connect 1 2 4 0;
#X connect 1 3 5 0;
#X connect 1 4 6 0;
#X connect 1 5 7 0;
#X connect 1 6 8 0;
#X connect 1 7 9 0;
#X connect 1 8 10 0;
#X connect 1 9 11 0;
#X connect 1 10 12 0;
#X connect 1 11 13 0;
#X connect 14 0 1 0;
