#N canvas 0 71 1824 913 10;
#X obj 287 203 outlet;
#X obj 287 124 loadbang;
#X obj 318 267 outlet;
#X obj 342 322 outlet;
#X obj 367 379 outlet;
#X obj 697 487 outlet;
#X obj 711 408 loadbang;
#X obj 742 551 outlet;
#X obj 766 606 outlet;
#X obj 791 663 outlet;
#X obj 1119 477 outlet;
#X obj 1119 398 loadbang;
#X obj 1150 541 outlet;
#X obj 1174 596 outlet;
#X obj 1199 653 outlet;
#X msg 318 240 open samples/kit_ToJu/kick_bass.wav;
#X msg 342 295 open samples/kit_ToJu/rim.wav;
#X msg 367 352 open samples/kit_ToJu/sidetick.wav;
#X msg 711 460 open samples/kit_ToJu/hihat_1.wav;
#X msg 742 524 open samples/kit_ToJu/hihat_2.wav;
#X msg 766 579 open samples/kit_ToJu/hihat_3.wav;
#X msg 791 636 open samples/kit_ToJu/ride.wav;
#X msg 1119 450 open samples/kit_ToJu/shake.wav;
#X msg 1150 514 open samples/kit_ToJu/brush.wav;
#X msg 1174 569 open samples/kit_ToJu/zap.wav;
#X msg 1199 626 open samples/kit_ToJu/taon.wav;
#X msg 440 42 /home/pi/Bureau/BTMachines_git/Machine_1/;
#X msg 287 176 open /home/pi/Bureau/BTMachines_git/Machine_1/samples/kit_ToJu/kick.wav
, f 74;
#X connect 1 0 27 0;
#X connect 1 0 15 0;
#X connect 1 0 17 0;
#X connect 1 0 16 0;
#X connect 6 0 18 0;
#X connect 6 0 19 0;
#X connect 6 0 20 0;
#X connect 6 0 21 0;
#X connect 11 0 22 0;
#X connect 11 0 23 0;
#X connect 11 0 24 0;
#X connect 11 0 25 0;
#X connect 15 0 2 0;
#X connect 16 0 3 0;
#X connect 17 0 4 0;
#X connect 18 0 5 0;
#X connect 19 0 7 0;
#X connect 20 0 8 0;
#X connect 21 0 9 0;
#X connect 22 0 10 0;
#X connect 23 0 12 0;
#X connect 24 0 13 0;
#X connect 25 0 14 0;
#X connect 27 0 0 0;
