#N canvas 83 209 788 325 10;
#X obj 18 91 outlet;
#X msg 18 64 open samples/kick.wav;
#X obj 18 40 loadbang;
#X obj 49 155 outlet;
#X obj 73 210 outlet;
#X obj 98 267 outlet;
#X msg 49 128 open samples/hihat.wav;
#X msg 73 183 open samples/snare.wav;
#X msg 98 240 open samples/zap.wav;
#X obj 233 91 outlet;
#X msg 233 64 open samples/kick.wav;
#X obj 233 40 loadbang;
#X obj 264 155 outlet;
#X obj 288 210 outlet;
#X obj 313 267 outlet;
#X msg 264 128 open samples/hihat.wav;
#X msg 288 183 open samples/snare.wav;
#X msg 313 240 open samples/zap.wav;
#X obj 457 91 outlet;
#X msg 457 64 open samples/kick.wav;
#X obj 457 40 loadbang;
#X obj 488 155 outlet;
#X obj 512 210 outlet;
#X obj 537 267 outlet;
#X msg 488 128 open samples/hihat.wav;
#X msg 512 183 open samples/snare.wav;
#X msg 537 240 open samples/zap.wav;
#X connect 1 0 0 0;
#X connect 2 0 1 0;
#X connect 2 0 6 0;
#X connect 2 0 7 0;
#X connect 2 0 8 0;
#X connect 6 0 3 0;
#X connect 7 0 4 0;
#X connect 8 0 5 0;
#X connect 10 0 9 0;
#X connect 11 0 10 0;
#X connect 11 0 15 0;
#X connect 11 0 16 0;
#X connect 11 0 17 0;
#X connect 15 0 12 0;
#X connect 16 0 13 0;
#X connect 17 0 14 0;
#X connect 19 0 18 0;
#X connect 20 0 19 0;
#X connect 20 0 24 0;
#X connect 20 0 25 0;
#X connect 20 0 26 0;
#X connect 24 0 21 0;
#X connect 25 0 22 0;
#X connect 26 0 23 0;
