#N canvas 129 107 916 610 10;
#X obj 368 35 inlet;
#X obj 414 35 inlet;
#X obj 153 128 receive idInstru;
#X obj 119 28 receive idRack;
#X obj 85 428 send trackVol;
#X msg 552 387 set trackVol;
#X obj 552 408 send to_osc;
#X obj 386 119 tabread;
#X msg 386 85 set \$1_tracks_volume;
#X obj 368 152 f;
#X obj 414 152 f;
#X obj 368 204 f;
#X obj 368 225 moses 0;
#X msg 368 246 0;
#X obj 368 282 f;
#X obj 288 326 bng 15 250 50 0 empty empty empty 17 7 0 10 -262144
-1 -1;
#X obj 153 199 f;
#X obj 387 408 tabwrite;
#X floatatom 512 136 5 0 0 0 - - -, f 5;
#X obj 85 401 route 0;
#X obj 288 358 delay 1;
#X floatatom 420 266 5 0 0 0 - - -, f 5;
#X floatatom 422 299 5 0 0 0 - - -, f 5;
#X floatatom 219 243 5 0 0 0 - - -, f 5;
#X obj 208 101 print track_vol_rack;
#X obj 368 58 bng 15 250 50 0 empty empty empty 17 7 0 10 -262144 -1
-1;
#X obj 414 58 bng 15 250 50 0 empty empty empty 17 7 0 10 -262144 -1
-1;
#X floatatom 495 171 5 0 0 0 - - -, f 5;
#X obj 414 245 moses 1;
#X msg 468 265 1;
#X obj 368 174 - 0.1;
#X obj 414 174 + 0.1;
#X obj 653 66 loadbang;
#X obj 653 135 0.5;
#X obj 653 98 delay 1;
#X floatatom 653 184 5 0 0 0 - - -, f 5;
#X obj 85 375 pack f f f f, f 15;
#X obj 219 216 - 1;
#X connect 0 0 25 0;
#X connect 1 0 26 0;
#X connect 2 0 16 0;
#X connect 3 0 8 0;
#X connect 3 0 36 1;
#X connect 5 0 6 0;
#X connect 7 0 10 1;
#X connect 7 0 9 1;
#X connect 7 0 18 0;
#X connect 8 0 7 0;
#X connect 8 0 17 0;
#X connect 9 0 30 0;
#X connect 10 0 27 0;
#X connect 10 0 31 0;
#X connect 11 0 12 0;
#X connect 12 0 13 0;
#X connect 12 1 28 0;
#X connect 13 0 14 0;
#X connect 14 0 9 1;
#X connect 14 0 10 1;
#X connect 14 0 22 0;
#X connect 14 0 17 0;
#X connect 14 0 15 0;
#X connect 14 0 5 0;
#X connect 14 0 6 0;
#X connect 14 0 36 3;
#X connect 15 0 20 0;
#X connect 16 0 37 0;
#X connect 16 0 36 2;
#X connect 19 0 4 0;
#X connect 20 0 16 0;
#X connect 20 0 36 0;
#X connect 25 0 9 0;
#X connect 26 0 10 0;
#X connect 28 0 14 0;
#X connect 28 0 21 0;
#X connect 28 1 29 0;
#X connect 29 0 14 0;
#X connect 30 0 11 0;
#X connect 31 0 11 0;
#X connect 32 0 34 0;
#X connect 33 0 10 1;
#X connect 33 0 9 1;
#X connect 33 0 35 0;
#X connect 34 0 33 0;
#X connect 36 0 19 0;
#X connect 37 0 7 0;
#X connect 37 0 23 0;
#X connect 37 0 17 1;
