#N canvas 413 303 358 681 10;
#X obj 17 52 receive fileN;
#X obj 17 224 route 1 2 3 4 5 6 7 8 9 10 11 12;
#X obj 17 391 outlet;
#X obj 35 417 outlet;
#X obj 53 442 outlet;
#X obj 72 468 outlet;
#X obj 90 391 outlet;
#X obj 109 417 outlet;
#X obj 127 442 outlet;
#X obj 145 468 outlet;
#X obj 164 391 outlet;
#X obj 182 417 outlet;
#X obj 201 442 outlet;
#X obj 219 468 outlet;
#X obj 56 120 route \$1;
#X obj 56 93 receive idRack;
#X msg 56 147 1;
#X msg 109 147 0;
#X obj 17 192 spigot;
#X msg 239 134 0;
#X obj 239 88 bng 15 250 50 0 empty empty empty 17 7 0 10 -262144 -1
-1;
#X obj 228 202 print \$1;
#X obj 186 163 spigot 1;
#X obj 239 110 delay 100;
#X connect 0 0 18 0;
#X connect 0 0 20 0;
#X connect 0 0 22 0;
#X connect 1 0 2 0;
#X connect 1 1 3 0;
#X connect 1 2 4 0;
#X connect 1 3 5 0;
#X connect 1 4 6 0;
#X connect 1 5 7 0;
#X connect 1 6 8 0;
#X connect 1 7 9 0;
#X connect 1 8 10 0;
#X connect 1 9 11 0;
#X connect 1 10 12 0;
#X connect 1 11 13 0;
#X connect 14 0 16 0;
#X connect 14 1 17 0;
#X connect 15 0 14 0;
#X connect 16 0 18 1;
#X connect 17 0 18 1;
#X connect 18 0 1 0;
#X connect 19 0 22 1;
#X connect 20 0 23 0;
#X connect 22 0 1 0;
#X connect 22 0 21 0;
#X connect 23 0 19 0;
