#N canvas 371 334 255 342 10;
#X obj 55 32 inlet;
#X obj 55 120 + 1;
#X obj 99 120 + 1;
#X obj 55 286 tabwrite;
#X msg 55 185 set \$1_vel_\$2;
#X obj 55 79 unpack f f f f;
#X obj 132 225 f;
#X obj 100 225 f;
#X obj 68 210 bng 15 250 50 0 empty empty empty 17 7 0 10 -262144 -1
-1;
#X obj 55 161 pack \$1 \$2;
#X connect 0 0 5 0;
#X connect 1 0 9 0;
#X connect 2 0 9 1;
#X connect 4 0 3 0;
#X connect 4 0 8 0;
#X connect 5 0 1 0;
#X connect 5 1 2 0;
#X connect 5 2 7 1;
#X connect 5 3 6 1;
#X connect 6 0 3 0;
#X connect 7 0 3 1;
#X connect 8 0 7 0;
#X connect 8 0 6 0;
#X connect 9 0 4 0;
